<svg id="Layer_1" data-name="Layer 1" xmlns="http://www.w3.org/2000/svg" viewBox="0 0 1353.21 815.53"><defs><style>.cls-1,.cls-7{fill:#e11e41;}.cls-1,.cls-6,.cls-7{stroke:#e11e41;}.cls-1,.cls-2,.cls-3,.cls-5,.cls-6,.cls-7{stroke-miterlimit:10;}.cls-1{stroke-width:4px;}.cls-2,.cls-6{fill:none;stroke-width:20px;}.cls-2{stroke:#047db6;}.cls-3,.cls-5{fill:#fff;}.cls-3{stroke:#71b371;stroke-width:10px;}.cls-4{fill:#231f20;}.cls-5{stroke:#e21d40;stroke-width:5px;}</style></defs><line class="cls-1" x1="387.06" y1="501.86" x2="717.98" y2="501.86"/><line class="cls-1" x1="387.06" y1="457.76" x2="717.98" y2="457.76"/><line class="cls-2" x1="222.16" y1="370.75" x2="222.16" y2="249.69"/><line class="cls-2" x1="387.06" y1="479.81" x2="717.98" y2="479.81"/><line class="cls-2" x1="783.36" y1="370.75" x2="783.36" y2="249.69"/><rect class="cls-3" x="717.98" y="370.75" width="319.88" height="212.42"/><path class="cls-4" d="M819.73,463.9V423.82H825v35.35h19.74v4.73Z"/><path class="cls-4" d="M848.64,449.38q0-8.06,4.48-11.95a13.51,13.51,0,0,1,9.13-3.22,13,13,0,0,1,9.79,3.92q3.81,3.93,3.8,10.84a19.22,19.22,0,0,1-1.68,8.82,11.88,11.88,0,0,1-4.89,5,14.23,14.23,0,0,1-7,1.78,13,13,0,0,1-9.85-3.91Q848.64,456.74,848.64,449.38Zm5.05,0c0,3.72.82,6.51,2.44,8.36a8.1,8.1,0,0,0,12.22,0q2.43-2.79,2.43-8.5,0-5.39-2.44-8.16a8.11,8.11,0,0,0-12.21,0C854.51,442.88,853.69,445.66,853.69,449.38Z"/><path class="cls-4" d="M900.56,460.32a18.38,18.38,0,0,1-5.26,3.28,15.2,15.2,0,0,1-5.43,1q-4.79,0-7.36-2.34a7.73,7.73,0,0,1-2.57-6,8.07,8.07,0,0,1,3.52-6.73,11.9,11.9,0,0,1,3.54-1.61,32.73,32.73,0,0,1,4.37-.74,45.07,45.07,0,0,0,8.78-1.7c0-.67,0-1.1,0-1.28,0-2-.47-3.42-1.4-4.24a8.22,8.22,0,0,0-5.6-1.67,8.69,8.69,0,0,0-5.13,1.22,7.43,7.43,0,0,0-2.45,4.3l-4.81-.65a12,12,0,0,1,2.16-5,9.47,9.47,0,0,1,4.35-2.93,19.49,19.49,0,0,1,6.59-1,17.51,17.51,0,0,1,6,.87,8.07,8.07,0,0,1,3.42,2.2,7.74,7.74,0,0,1,1.53,3.35,26.92,26.92,0,0,1,.25,4.54v6.56a70.15,70.15,0,0,0,.31,8.69,10.94,10.94,0,0,0,1.25,3.48h-5.14A10.28,10.28,0,0,1,900.56,460.32Zm-.41-11a36,36,0,0,1-8,1.86,18.84,18.84,0,0,0-4.29,1,4.28,4.28,0,0,0-1.94,1.6,4.34,4.34,0,0,0,.8,5.62,6.41,6.41,0,0,0,4.37,1.31,10.11,10.11,0,0,0,5.05-1.24,7.66,7.66,0,0,0,3.26-3.41,11.86,11.86,0,0,0,.79-4.92Z"/><path class="cls-4" d="M931.6,463.9v-3.66a9,9,0,0,1-8.12,4.32,11.36,11.36,0,0,1-6.39-1.92,12.55,12.55,0,0,1-4.51-5.34,18.44,18.44,0,0,1-1.6-7.89,20.57,20.57,0,0,1,1.45-7.89,11.37,11.37,0,0,1,4.35-5.43,11.67,11.67,0,0,1,6.48-1.88,9.65,9.65,0,0,1,8,4V423.82h4.89V463.9ZM916,449.41q0,5.58,2.35,8.34a7.1,7.1,0,0,0,5.55,2.76,7,7,0,0,0,5.48-2.64q2.26-2.64,2.26-8.05,0-6-2.3-8.75a7.06,7.06,0,0,0-5.66-2.79,6.81,6.81,0,0,0-5.48,2.68C916.77,442.75,916,445.56,916,449.41Z"/><path class="cls-4" d="M771.51,531.1V491h15a18.66,18.66,0,0,1,7.37,1.21,9.47,9.47,0,0,1,4.35,3.75,9.87,9.87,0,0,1,1.57,5.29,9.08,9.08,0,0,1-1.39,4.84,10,10,0,0,1-4.21,3.66,10.58,10.58,0,0,1,5.59,3.64,9.76,9.76,0,0,1,1.95,6.07,11.64,11.64,0,0,1-1.19,5.24,10.13,10.13,0,0,1-2.94,3.73,12.19,12.19,0,0,1-4.39,2,26.42,26.42,0,0,1-6.46.67Zm5.31-23.24h8.67a19.32,19.32,0,0,0,5-.46,5.66,5.66,0,0,0,3.05-2,5.72,5.72,0,0,0,1-3.5,6.42,6.42,0,0,0-1-3.51,4.81,4.81,0,0,0-2.73-2.08,22.62,22.62,0,0,0-6.1-.56h-8Zm0,18.51h10a22.82,22.82,0,0,0,3.61-.19,8.67,8.67,0,0,0,3.06-1.09,5.85,5.85,0,0,0,2-2.23,7,7,0,0,0,.8-3.38,6.74,6.74,0,0,0-1.15-3.9,6.1,6.1,0,0,0-3.19-2.32,19.62,19.62,0,0,0-5.86-.67h-9.27Z"/><path class="cls-4" d="M827.4,527.52a18.25,18.25,0,0,1-5.26,3.28,15.2,15.2,0,0,1-5.43,1q-4.79,0-7.35-2.34a7.69,7.69,0,0,1-2.57-6,8.1,8.1,0,0,1,3.51-6.73,11.9,11.9,0,0,1,3.54-1.61,35,35,0,0,1,4.38-.74,45.09,45.09,0,0,0,8.77-1.7c0-.67,0-1.1,0-1.28,0-2-.46-3.42-1.39-4.24a8.26,8.26,0,0,0-5.61-1.67,8.71,8.71,0,0,0-5.13,1.22,7.41,7.41,0,0,0-2.44,4.3l-4.82-.65a12,12,0,0,1,2.16-5,9.58,9.58,0,0,1,4.35-2.93,19.49,19.49,0,0,1,6.59-1,17.51,17.51,0,0,1,6,.87,8.07,8.07,0,0,1,3.42,2.2,7.74,7.74,0,0,1,1.53,3.35,26.92,26.92,0,0,1,.25,4.54v6.56a70.15,70.15,0,0,0,.31,8.69,10.94,10.94,0,0,0,1.25,3.48h-5.14A10.5,10.5,0,0,1,827.4,527.52Zm-.41-11a35.85,35.85,0,0,1-8,1.86,18.84,18.84,0,0,0-4.29,1,4.34,4.34,0,0,0-1.94,1.6,4.36,4.36,0,0,0,.81,5.62,6.37,6.37,0,0,0,4.36,1.31,10.17,10.17,0,0,0,5.06-1.24,7.64,7.64,0,0,0,3.25-3.41,11.86,11.86,0,0,0,.79-4.92Z"/><path class="cls-4" d="M839.49,531.1V491h4.92V531.1Z"/><path class="cls-4" d="M871,527.52a18.38,18.38,0,0,1-5.26,3.28,15.2,15.2,0,0,1-5.43,1q-4.78,0-7.36-2.34a7.73,7.73,0,0,1-2.57-6,8.07,8.07,0,0,1,3.52-6.73,11.68,11.68,0,0,1,3.54-1.61,34.47,34.47,0,0,1,4.37-.74,45.07,45.07,0,0,0,8.78-1.7c0-.67,0-1.1,0-1.28,0-2-.47-3.42-1.4-4.24a8.23,8.23,0,0,0-5.6-1.67,8.69,8.69,0,0,0-5.13,1.22A7.47,7.47,0,0,0,856,511l-4.81-.65a12,12,0,0,1,2.16-5,9.47,9.47,0,0,1,4.35-2.93,19.45,19.45,0,0,1,6.59-1,17.51,17.51,0,0,1,6,.87,8.07,8.07,0,0,1,3.42,2.2,7.74,7.74,0,0,1,1.53,3.35,28.06,28.06,0,0,1,.25,4.54v6.56a70.15,70.15,0,0,0,.31,8.69,10.92,10.92,0,0,0,1.24,3.48H872A10.28,10.28,0,0,1,871,527.52Zm-.41-11a36.14,36.14,0,0,1-8,1.86,18.84,18.84,0,0,0-4.29,1,4.28,4.28,0,0,0-1.94,1.6,4.34,4.34,0,0,0,.8,5.62,6.4,6.4,0,0,0,4.36,1.31,10.12,10.12,0,0,0,5.06-1.24,7.66,7.66,0,0,0,3.26-3.41,12,12,0,0,0,.79-4.92Z"/><path class="cls-4" d="M883.18,531.1v-29h4.43v4.13a10.45,10.45,0,0,1,9.25-4.78,12.08,12.08,0,0,1,4.82.94,7.61,7.61,0,0,1,3.3,2.47,9.56,9.56,0,0,1,1.53,3.64,28.58,28.58,0,0,1,.27,4.79V531.1h-4.92V513.44a13.33,13.33,0,0,0-.57-4.5,4.8,4.8,0,0,0-2-2.38,6.51,6.51,0,0,0-3.43-.89,8,8,0,0,0-5.43,2q-2.28,2-2.28,7.57V531.1Z"/><path class="cls-4" d="M933.28,520.47l4.84.62a12.56,12.56,0,0,1-4.06,7.84,11.83,11.83,0,0,1-8,2.83,12.45,12.45,0,0,1-9.58-3.9q-3.63-3.9-3.63-11.17a20.21,20.21,0,0,1,1.56-8.23,10.88,10.88,0,0,1,4.75-5.29,14,14,0,0,1,6.93-1.76,12,12,0,0,1,7.74,2.39,11,11,0,0,1,3.85,6.79l-4.78.74a7.94,7.94,0,0,0-2.42-4.4,6.3,6.3,0,0,0-4.2-1.48,7.63,7.63,0,0,0-6,2.67q-2.33,2.67-2.33,8.44t2.25,8.5a7.27,7.27,0,0,0,5.85,2.65,6.89,6.89,0,0,0,4.84-1.78A8.83,8.83,0,0,0,933.28,520.47Z"/><path class="cls-4" d="M962.21,521.75l5.08.63a12.39,12.39,0,0,1-4.45,6.92,13.41,13.41,0,0,1-8.32,2.46q-6.36,0-10.1-3.93t-3.73-11q0-7.34,3.77-11.38a12.8,12.8,0,0,1,9.79-4,12.43,12.43,0,0,1,9.52,4c2.46,2.65,3.69,6.36,3.69,11.16,0,.29,0,.73,0,1.31H945.77q.29,4.78,2.71,7.33a8.08,8.08,0,0,0,6.07,2.54,7.49,7.49,0,0,0,4.62-1.42A9.44,9.44,0,0,0,962.21,521.75Zm-16.16-8h16.21a9.84,9.84,0,0,0-1.86-5.49,7.52,7.52,0,0,0-6.09-2.85,7.84,7.84,0,0,0-5.71,2.27A9,9,0,0,0,946.05,513.79Z"/><path class="cls-4" d="M973.42,531.1v-29h4.43v4.41a12,12,0,0,1,3.13-4.08,5.52,5.52,0,0,1,3.16-1A9.67,9.67,0,0,1,989.2,503l-1.7,4.57a7.06,7.06,0,0,0-3.61-1.07,4.75,4.75,0,0,0-2.9,1,5.35,5.35,0,0,0-1.83,2.7,19,19,0,0,0-.82,5.74v15.2Z"/><rect class="cls-5" x="806.99" y="268.62" width="522" height="84.55"/><path class="cls-4" d="M823.76,304V288.28h10.63v1.85h-8.54V295h7.39v1.86h-7.39V304Z"/><path class="cls-4" d="M836.82,304v-11.4h1.74v1.73a5,5,0,0,1,1.23-1.61,2.21,2.21,0,0,1,1.24-.38,3.79,3.79,0,0,1,2,.62l-.66,1.8a2.8,2.8,0,0,0-1.42-.42,1.82,1.82,0,0,0-1.14.38,2,2,0,0,0-.72,1.06,7.33,7.33,0,0,0-.32,2.25v6Z"/><path class="cls-4" d="M843.45,298.32a5.88,5.88,0,0,1,1.76-4.69,5.31,5.31,0,0,1,3.59-1.27,5.12,5.12,0,0,1,3.85,1.54,5.89,5.89,0,0,1,1.49,4.26,7.52,7.52,0,0,1-.66,3.46,4.6,4.6,0,0,1-1.92,2,5.55,5.55,0,0,1-2.76.7,5.12,5.12,0,0,1-3.87-1.53A6.13,6.13,0,0,1,843.45,298.32Zm2,0a4.83,4.83,0,0,0,1,3.28,3.19,3.19,0,0,0,4.8,0,5,5,0,0,0,.95-3.34,4.72,4.72,0,0,0-1-3.21,3.19,3.19,0,0,0-4.79,0A4.85,4.85,0,0,0,845.44,298.32Z"/><path class="cls-4" d="M856.41,304v-11.4h1.73v1.6a4,4,0,0,1,1.43-1.35,4,4,0,0,1,2-.51,3.74,3.74,0,0,1,2.07.52,2.88,2.88,0,0,1,1.15,1.48,4.08,4.08,0,0,1,3.52-2,3.46,3.46,0,0,1,2.61.94,4,4,0,0,1,.91,2.89V304h-1.92v-7.18a5.11,5.11,0,0,0-.19-1.67,1.55,1.55,0,0,0-.68-.82,2.1,2.1,0,0,0-1.16-.32,2.72,2.72,0,0,0-2,.8,3.55,3.55,0,0,0-.79,2.57V304h-1.93v-7.41a3.21,3.21,0,0,0-.48-1.93,1.78,1.78,0,0,0-1.54-.65,2.85,2.85,0,0,0-1.51.43,2.5,2.5,0,0,0-1,1.26,7,7,0,0,0-.31,2.39V304Z"/><path class="cls-4" d="M875.27,294.82v-2.2h2.2v2.2Zm0,9.2v-2.2h2.2V304Z"/><path class="cls-4" d="M886.24,304l2.38-11.4h1.72l-.48,2.33a8,8,0,0,1,1.72-2,2.86,2.86,0,0,1,1.73-.63,3.42,3.42,0,0,1,1.43.42l-.8,1.8a1.86,1.86,0,0,0-1.11-.36,3,3,0,0,0-2.09,1.14,8.57,8.57,0,0,0-1.69,4.09l-1,4.57Z"/><path class="cls-4" d="M893.91,299.7a8,8,0,0,1,2-5.54,5.46,5.46,0,0,1,4.26-1.8,4.44,4.44,0,0,1,3.32,1.29,4.77,4.77,0,0,1,1.26,3.48,8.51,8.51,0,0,1-.79,3.66,5.91,5.91,0,0,1-2.26,2.59,5.83,5.83,0,0,1-3.09.9,5.11,5.11,0,0,1-2.42-.57,3.93,3.93,0,0,1-1.67-1.61A4.92,4.92,0,0,1,893.91,299.7Zm1.94-.2a3.47,3.47,0,0,0,.78,2.45,2.57,2.57,0,0,0,2,.83,3.39,3.39,0,0,0,1.24-.25,3.76,3.76,0,0,0,1.14-.77,5.46,5.46,0,0,0,.89-1.18,6.66,6.66,0,0,0,.6-1.42,6.89,6.89,0,0,0,.33-2,3.43,3.43,0,0,0-.78-2.4,2.54,2.54,0,0,0-2-.86,3.24,3.24,0,0,0-1.66.44,4.39,4.39,0,0,0-1.36,1.27,5.62,5.62,0,0,0-.89,1.95A8.09,8.09,0,0,0,895.85,299.5Z"/><path class="cls-4" d="M913.59,302a5.74,5.74,0,0,1-4.2,2.32,3,3,0,0,1-2.14-.76,2.43,2.43,0,0,1-.81-1.85,14.7,14.7,0,0,1,.37-2.47l1.37-6.58h2l-1.53,7.29a7.21,7.21,0,0,0-.19,1.42,1.29,1.29,0,0,0,.39,1,1.66,1.66,0,0,0,1.16.36,3.41,3.41,0,0,0,1.59-.4,4.24,4.24,0,0,0,1.35-1.07,5.52,5.52,0,0,0,.91-1.6,14.22,14.22,0,0,0,.55-2.07l1-4.93h2L915,304h-1.79Z"/><path class="cls-4" d="M922.58,302.45l-.32,1.58a5.06,5.06,0,0,1-1.36.19,2.77,2.77,0,0,1-1.84-.57,1.44,1.44,0,0,1-.52-1.17,11.24,11.24,0,0,1,.28-1.73l1.38-6.63h-1.53l.31-1.5h1.54l.59-2.81,2.22-1.34-.87,4.15h1.91l-.32,1.5h-1.9l-1.32,6.31a11.15,11.15,0,0,0-.25,1.43.69.69,0,0,0,.2.53,1,1,0,0,0,.65.18A5,5,0,0,0,922.58,302.45Z"/><path class="cls-4" d="M932.53,300.15l1.89.19a5.73,5.73,0,0,1-1.88,2.67,5.12,5.12,0,0,1-3.49,1.27,4.74,4.74,0,0,1-2.33-.58,3.81,3.81,0,0,1-1.61-1.71,5.61,5.61,0,0,1-.55-2.54,8.07,8.07,0,0,1,.86-3.63,6.18,6.18,0,0,1,2.24-2.61,5.54,5.54,0,0,1,3-.85,4.31,4.31,0,0,1,3.26,1.27,4.76,4.76,0,0,1,1.21,3.45,9.23,9.23,0,0,1-.15,1.72h-8.4c0,.23,0,.43,0,.6a3.62,3.62,0,0,0,.74,2.45,2.3,2.3,0,0,0,1.8.84,3.5,3.5,0,0,0,2-.65A4.29,4.29,0,0,0,932.53,300.15Zm-5.65-2.83h6.4c0-.2,0-.34,0-.43a3.15,3.15,0,0,0-.73-2.24,2.46,2.46,0,0,0-1.88-.78,3.46,3.46,0,0,0-2.27.86A5.11,5.11,0,0,0,926.88,297.32Z"/><path class="cls-4" d="M936.38,304l2.39-11.4h1.72L940,295a7.84,7.84,0,0,1,1.73-2,2.83,2.83,0,0,1,1.72-.63,3.39,3.39,0,0,1,1.43.42l-.8,1.8a1.83,1.83,0,0,0-1.1-.36,3,3,0,0,0-2.1,1.14,8.68,8.68,0,0,0-1.68,4.09l-1,4.57Z"/><path class="cls-4" d="M950.06,304l3.28-15.74h2.59l1.59,10.2a36.52,36.52,0,0,1,.41,3.86,43.05,43.05,0,0,1,2.19-4.31l5.52-9.75h2.64L965,304h-2.07l1.64-7.66c.38-1.76.92-3.75,1.63-5.95-.45,1-1,2.13-1.67,3.31L958.65,304h-2L955,293.93a32.51,32.51,0,0,1-.31-3.24c-.18,1.39-.35,2.48-.53,3.29l-2.09,10Z"/><path class="cls-4" d="M967,304l8.92-15.74h2.48L981,304h-2l-.76-4.53h-6.37L969.29,304Zm5.73-6.15h5.21l-.61-3.95c-.24-1.57-.38-2.88-.44-3.93a27.93,27.93,0,0,1-1.57,3.22Z"/><path class="cls-4" d="M995.36,298.48l2.08.29a8.6,8.6,0,0,1-2.88,4.13,7,7,0,0,1-4.24,1.39,6,6,0,0,1-4.55-1.75,7,7,0,0,1-1.68-5,10,10,0,0,1,2.56-7,7.33,7.33,0,0,1,5.66-2.48,6,6,0,0,1,4.05,1.34,5.31,5.31,0,0,1,1.8,3.61l-2,.18a4.25,4.25,0,0,0-1.29-2.55,3.7,3.7,0,0,0-2.51-.84,5.44,5.44,0,0,0-4.67,2.57,8.92,8.92,0,0,0-1.55,5.25,5.2,5.2,0,0,0,1.2,3.7,4,4,0,0,0,3.1,1.28,4.57,4.57,0,0,0,2.95-1.06A6,6,0,0,0,995.36,298.48Z"/><path class="cls-4" d="M1012.51,302.61a7.73,7.73,0,0,1-1.94,1.27,5,5,0,0,1-2,.4,3.54,3.54,0,0,1-2.55-.93,3.16,3.16,0,0,1-1-2.38,3.27,3.27,0,0,1,.43-1.69,3.45,3.45,0,0,1,1.16-1.18,5,5,0,0,1,1.76-.64,19.07,19.07,0,0,1,2.49-.2,8.74,8.74,0,0,0,2.62-.39,5.08,5.08,0,0,0,.23-1.32,1.26,1.26,0,0,0-.5-1.06,3.1,3.1,0,0,0-2-.54,3.46,3.46,0,0,0-2,.54,3.09,3.09,0,0,0-1.13,1.54l-2-.17a5.19,5.19,0,0,1,1.91-2.6,5.67,5.67,0,0,1,3.29-.9,5.2,5.2,0,0,1,3.36,1,2.37,2.37,0,0,1,.94,1.95,9.83,9.83,0,0,1-.27,2.12l-.63,2.84a10.58,10.58,0,0,0-.3,2.2,7.7,7.7,0,0,0,.23,1.54h-2A7.39,7.39,0,0,1,1012.51,302.61Zm.72-4.37a4.63,4.63,0,0,1-.87.25c-.31.06-.84.12-1.57.18a12,12,0,0,0-2.39.39,2,2,0,0,0-1,.73,1.89,1.89,0,0,0-.36,1.12,1.75,1.75,0,0,0,.57,1.34,2.25,2.25,0,0,0,1.6.53,3.7,3.7,0,0,0,1.86-.51,3.8,3.8,0,0,0,1.41-1.43A8.17,8.17,0,0,0,1013.23,298.24Z"/><path class="cls-4" d="M1024.75,302.37a4.7,4.7,0,0,1-3.48,1.91,3.47,3.47,0,0,1-2.7-1.2,5,5,0,0,1-1.08-3.47,8.46,8.46,0,0,1,.85-3.81,6.4,6.4,0,0,1,2.14-2.58,4.52,4.52,0,0,1,2.57-.86,3.44,3.44,0,0,1,3.21,2.05l1.29-6.13h1.94L1026.2,304h-1.8Zm-5.33-3.13a5.84,5.84,0,0,0,.24,1.88,2.43,2.43,0,0,0,.8,1.15,2.15,2.15,0,0,0,1.37.45,3,3,0,0,0,2.39-1.37,7.06,7.06,0,0,0,1.44-4.51,3,3,0,0,0-.71-2.12,2.32,2.32,0,0,0-1.78-.76,2.57,2.57,0,0,0-1.27.31,3.59,3.59,0,0,0-1.14,1.06,7.61,7.61,0,0,0-1.34,3.91Z"/><path class="cls-4" d="M1037,302.37a4.7,4.7,0,0,1-3.48,1.91,3.48,3.48,0,0,1-2.7-1.2,5,5,0,0,1-1.08-3.47,8.59,8.59,0,0,1,.85-3.81,6.56,6.56,0,0,1,2.14-2.58,4.57,4.57,0,0,1,2.58-.86,3.46,3.46,0,0,1,3.21,2.05l1.29-6.13h1.93L1038.43,304h-1.79Zm-5.33-3.13a5.84,5.84,0,0,0,.24,1.88,2.53,2.53,0,0,0,.81,1.15,2.12,2.12,0,0,0,1.36.45,3,3,0,0,0,2.4-1.37,7.06,7.06,0,0,0,1.44-4.51,3,3,0,0,0-.71-2.12,2.34,2.34,0,0,0-1.79-.76,2.6,2.6,0,0,0-1.27.31,3.81,3.81,0,0,0-1.14,1.06,7,7,0,0,0-1,1.89A6.43,6.43,0,0,0,1031.65,299.24Z"/><path class="cls-4" d="M1041.53,304l2.38-11.4h1.72l-.48,2.33a7.83,7.83,0,0,1,1.72-2,2.86,2.86,0,0,1,1.73-.63,3.35,3.35,0,0,1,1.42.42l-.79,1.8a1.89,1.89,0,0,0-1.11-.36,3,3,0,0,0-2.09,1.14,8.57,8.57,0,0,0-1.69,4.09l-1,4.57Z"/><path class="cls-4" d="M1057.23,300.15l1.89.19a5.63,5.63,0,0,1-1.87,2.67,5.15,5.15,0,0,1-3.5,1.27,4.7,4.7,0,0,1-2.32-.58,3.83,3.83,0,0,1-1.62-1.71,5.75,5.75,0,0,1-.55-2.54,8.08,8.08,0,0,1,.87-3.63,6.12,6.12,0,0,1,2.24-2.61,5.48,5.48,0,0,1,3-.85,4.29,4.29,0,0,1,3.26,1.27,4.76,4.76,0,0,1,1.22,3.45,10.17,10.17,0,0,1-.15,1.72h-8.4a4.62,4.62,0,0,0,0,.6,3.62,3.62,0,0,0,.73,2.45,2.3,2.3,0,0,0,1.8.84,3.53,3.53,0,0,0,2-.65A4.34,4.34,0,0,0,1057.23,300.15Zm-5.65-2.83h6.4c0-.2,0-.34,0-.43a3.15,3.15,0,0,0-.73-2.24,2.44,2.44,0,0,0-1.88-.78,3.48,3.48,0,0,0-2.27.86A5.26,5.26,0,0,0,1051.58,297.32Z"/><path class="cls-4" d="M1061.27,300.12l2-.11a3.62,3.62,0,0,0,.25,1.43,2.09,2.09,0,0,0,1,1,3.37,3.37,0,0,0,1.62.38,3,3,0,0,0,1.93-.52,1.52,1.52,0,0,0,.65-1.21,1.44,1.44,0,0,0-.39-1,6,6,0,0,0-1.94-1.11,19.23,19.23,0,0,1-2-.93,3.09,3.09,0,0,1-1.08-1,2.48,2.48,0,0,1-.37-1.36,3,3,0,0,1,1.08-2.33,4.32,4.32,0,0,1,3-1,4.82,4.82,0,0,1,3.28,1,3.49,3.49,0,0,1,1.16,2.62l-1.9.13a2.2,2.2,0,0,0-.73-1.64,2.88,2.88,0,0,0-2-.6,2.42,2.42,0,0,0-1.56.46,1.3,1.3,0,0,0-.56,1,1.22,1.22,0,0,0,.48.95,8.73,8.73,0,0,0,1.67.86,11.37,11.37,0,0,1,2.81,1.52,2.9,2.9,0,0,1,.92,2.17,3.06,3.06,0,0,1-.52,1.67,3.49,3.49,0,0,1-1.59,1.3,5.93,5.93,0,0,1-2.52.49,5.65,5.65,0,0,1-3.36-1A3.47,3.47,0,0,1,1061.27,300.12Z"/><path class="cls-4" d="M1072.27,300.12l2-.11a3.62,3.62,0,0,0,.25,1.43,2.09,2.09,0,0,0,1,1,3.37,3.37,0,0,0,1.62.38,3,3,0,0,0,1.93-.52,1.52,1.52,0,0,0,.65-1.21,1.44,1.44,0,0,0-.39-1,6,6,0,0,0-1.94-1.11,19.23,19.23,0,0,1-2-.93,3.09,3.09,0,0,1-1.08-1,2.48,2.48,0,0,1-.37-1.36,3,3,0,0,1,1.08-2.33,4.32,4.32,0,0,1,3-1,4.82,4.82,0,0,1,3.28,1,3.49,3.49,0,0,1,1.16,2.62l-1.9.13a2.2,2.2,0,0,0-.73-1.64,2.88,2.88,0,0,0-2-.6,2.42,2.42,0,0,0-1.56.46,1.3,1.3,0,0,0-.56,1,1.22,1.22,0,0,0,.48.95,8.73,8.73,0,0,0,1.67.86,11.37,11.37,0,0,1,2.81,1.52,2.9,2.9,0,0,1,.92,2.17,3.06,3.06,0,0,1-.52,1.67,3.49,3.49,0,0,1-1.59,1.3,5.93,5.93,0,0,1-2.52.49,5.65,5.65,0,0,1-3.36-1A3.47,3.47,0,0,1,1072.27,300.12Z"/><path class="cls-4" d="M1096.89,302.61a7.73,7.73,0,0,1-1.94,1.27,5,5,0,0,1-2,.4,3.54,3.54,0,0,1-2.55-.93,3.16,3.16,0,0,1-1-2.38,3.27,3.27,0,0,1,.43-1.69,3.45,3.45,0,0,1,1.16-1.18,5,5,0,0,1,1.76-.64,19.07,19.07,0,0,1,2.49-.2,8.74,8.74,0,0,0,2.62-.39,5.08,5.08,0,0,0,.23-1.32,1.26,1.26,0,0,0-.5-1.06,3.1,3.1,0,0,0-2-.54,3.46,3.46,0,0,0-2,.54,3.09,3.09,0,0,0-1.13,1.54l-2-.17a5.19,5.19,0,0,1,1.91-2.6,5.67,5.67,0,0,1,3.29-.9,5.2,5.2,0,0,1,3.36,1,2.37,2.37,0,0,1,.94,1.95,9.83,9.83,0,0,1-.27,2.12l-.63,2.84a10.58,10.58,0,0,0-.3,2.2,7.7,7.7,0,0,0,.23,1.54h-2A7.39,7.39,0,0,1,1096.89,302.61Zm.72-4.37a4.63,4.63,0,0,1-.87.25c-.31.06-.84.12-1.57.18a12,12,0,0,0-2.39.39,2,2,0,0,0-1,.73,1.89,1.89,0,0,0-.36,1.12,1.75,1.75,0,0,0,.57,1.34,2.25,2.25,0,0,0,1.6.53,3.7,3.7,0,0,0,1.86-.51,3.8,3.8,0,0,0,1.41-1.43A8.17,8.17,0,0,0,1097.61,298.24Z"/><path class="cls-4" d="M1101.44,304l2.38-11.4h1.76l-.42,2a9.27,9.27,0,0,1,2.15-1.7,4.27,4.27,0,0,1,2-.54,3,3,0,0,1,2.18.75,2.63,2.63,0,0,1,.79,2,10.92,10.92,0,0,1-.28,2l-1.45,6.9h-1.95l1.52-7.23a8.19,8.19,0,0,0,.22-1.55,1.21,1.21,0,0,0-.39-.93,1.66,1.66,0,0,0-1.13-.35,3.84,3.84,0,0,0-2.66,1.07,6.83,6.83,0,0,0-1.71,3.69l-1.11,5.3Z"/><path class="cls-4" d="M1121.36,302.37a4.7,4.7,0,0,1-3.48,1.91,3.48,3.48,0,0,1-2.7-1.2,5,5,0,0,1-1.08-3.47,8.59,8.59,0,0,1,.85-3.81,6.56,6.56,0,0,1,2.14-2.58,4.57,4.57,0,0,1,2.58-.86,3.46,3.46,0,0,1,3.21,2.05l1.29-6.13h1.93L1122.81,304H1121Zm-5.33-3.13a5.84,5.84,0,0,0,.24,1.88,2.53,2.53,0,0,0,.81,1.15,2.12,2.12,0,0,0,1.36.45,3,3,0,0,0,2.4-1.37,7.06,7.06,0,0,0,1.44-4.51,3,3,0,0,0-.71-2.12,2.34,2.34,0,0,0-1.79-.76,2.6,2.6,0,0,0-1.27.31,3.81,3.81,0,0,0-1.14,1.06,7,7,0,0,0-.95,1.89A6.43,6.43,0,0,0,1116,299.24Z"/><path class="cls-4" d="M1139.89,299.87l1.95.2a6.58,6.58,0,0,1-2.08,3.18,4.9,4.9,0,0,1-3.07,1,4,4,0,0,1-3-1.2,4.65,4.65,0,0,1-1.16-3.36,9.53,9.53,0,0,1,.75-3.68,5.88,5.88,0,0,1,2.12-2.74,5.44,5.44,0,0,1,3.15-.94,4,4,0,0,1,2.91,1,3.65,3.65,0,0,1,1.08,2.75l-1.92.13a2.27,2.27,0,0,0-.63-1.7,2.19,2.19,0,0,0-1.62-.61,3,3,0,0,0-2,.74A4.74,4.74,0,0,0,1135,297a9.35,9.35,0,0,0-.49,2.91,3.24,3.24,0,0,0,.64,2.19,2.06,2.06,0,0,0,1.59.73,2.78,2.78,0,0,0,1.81-.72A4.71,4.71,0,0,0,1139.89,299.87Z"/><path class="cls-4" d="M1142.87,304l3.29-15.74h1.94L1144.81,304Z"/><path class="cls-4" d="M1147.83,304l2.39-11.4h1.94l-2.38,11.4Zm2.84-13.54.46-2.2h1.93l-.46,2.2Z"/><path class="cls-4" d="M1161.17,300.15l1.89.19a5.63,5.63,0,0,1-1.87,2.67,5.15,5.15,0,0,1-3.5,1.27,4.7,4.7,0,0,1-2.32-.58,3.76,3.76,0,0,1-1.61-1.71,5.62,5.62,0,0,1-.56-2.54,8.08,8.08,0,0,1,.87-3.63,6.12,6.12,0,0,1,2.24-2.61,5.51,5.51,0,0,1,3-.85,4.29,4.29,0,0,1,3.26,1.27,4.72,4.72,0,0,1,1.22,3.45,10.17,10.17,0,0,1-.15,1.72h-8.4a4.62,4.62,0,0,0,0,.6,3.62,3.62,0,0,0,.73,2.45,2.32,2.32,0,0,0,1.8.84,3.51,3.51,0,0,0,2-.65A4.27,4.27,0,0,0,1161.17,300.15Zm-5.65-2.83h6.41c0-.2,0-.34,0-.43a3.19,3.19,0,0,0-.73-2.24,2.47,2.47,0,0,0-1.88-.78,3.49,3.49,0,0,0-2.28.86A5.26,5.26,0,0,0,1155.52,297.32Z"/><path class="cls-4" d="M1165,304l2.38-11.4h1.77l-.42,2a8.87,8.87,0,0,1,2.15-1.7,4.21,4.21,0,0,1,2-.54,3,3,0,0,1,2.17.75,2.63,2.63,0,0,1,.79,2,10.92,10.92,0,0,1-.28,2l-1.45,6.9h-1.94l1.51-7.23a8.42,8.42,0,0,0,.23-1.55,1.21,1.21,0,0,0-.39-.93,1.69,1.69,0,0,0-1.14-.35,3.85,3.85,0,0,0-2.66,1.07,7,7,0,0,0-1.71,3.69L1167,304Z"/><path class="cls-4" d="M1181.81,302.45l-.32,1.58a5.06,5.06,0,0,1-1.36.19,2.77,2.77,0,0,1-1.84-.57,1.44,1.44,0,0,1-.52-1.17,11.24,11.24,0,0,1,.28-1.73l1.39-6.63h-1.54l.31-1.5h1.54l.59-2.81,2.22-1.34-.87,4.15h1.91l-.32,1.5h-1.9l-1.32,6.31a11.15,11.15,0,0,0-.25,1.43.69.69,0,0,0,.2.53,1,1,0,0,0,.65.18A5,5,0,0,0,1181.81,302.45Z"/><path class="cls-4" d="M1186.06,290.54l.47-2.2h2.21l-.4,1.93a5.1,5.1,0,0,1-1.13,2.53,2.9,2.9,0,0,1-1.81.93l.18-.85c.84-.23,1.41-1,1.69-2.34Z"/><path class="cls-4" d="M1188.05,300.12,1190,300a3.62,3.62,0,0,0,.26,1.43,2,2,0,0,0,1,1,3.34,3.34,0,0,0,1.62.38,3,3,0,0,0,1.93-.52,1.52,1.52,0,0,0,.65-1.21,1.44,1.44,0,0,0-.39-1,6,6,0,0,0-1.94-1.11,18.19,18.19,0,0,1-2-.93,3.09,3.09,0,0,1-1.08-1,2.48,2.48,0,0,1-.37-1.36,3,3,0,0,1,1.08-2.33,4.32,4.32,0,0,1,3-1,4.77,4.77,0,0,1,3.27,1,3.47,3.47,0,0,1,1.17,2.62l-1.9.13a2.2,2.2,0,0,0-.73-1.64,2.88,2.88,0,0,0-2-.6,2.42,2.42,0,0,0-1.56.46,1.3,1.3,0,0,0-.56,1,1.22,1.22,0,0,0,.48.95,8.52,8.52,0,0,0,1.66.86,11.3,11.3,0,0,1,2.82,1.52,2.9,2.9,0,0,1,.92,2.17,3.06,3.06,0,0,1-.52,1.67,3.54,3.54,0,0,1-1.59,1.3,5.93,5.93,0,0,1-2.52.49,5.63,5.63,0,0,1-3.36-1A3.47,3.47,0,0,1,1188.05,300.12Z"/><path class="cls-4" d="M1205.51,304l3.29-15.74h2.1L1207.61,304Z"/><path class="cls-4" d="M1211.31,304l3.3-15.74h6.57a6.44,6.44,0,0,1,2.56.39,3.18,3.18,0,0,1,1.41,1.34,4.06,4.06,0,0,1,.56,2.13,5.46,5.46,0,0,1-.39,2,5.35,5.35,0,0,1-1,1.67,4.68,4.68,0,0,1-1.23,1,5.07,5.07,0,0,1-1.33.5,13.74,13.74,0,0,1-3.06.35h-4l-1.33,6.39Zm3.81-8.17h3.47a7.52,7.52,0,0,0,3-.44,3.6,3.6,0,0,0,2.08-3.21,2.41,2.41,0,0,0-.3-1.27,1.75,1.75,0,0,0-.85-.71,6.12,6.12,0,0,0-2.11-.24h-4Z"/><path class="cls-4" d="M1238.75,302.61a7.73,7.73,0,0,1-1.94,1.27,5,5,0,0,1-2,.4,3.5,3.5,0,0,1-2.54-.93,3.14,3.14,0,0,1-1-2.38,3.27,3.27,0,0,1,.43-1.69,3.45,3.45,0,0,1,1.16-1.18,5.08,5.08,0,0,1,1.76-.64,19.25,19.25,0,0,1,2.49-.2,8.74,8.74,0,0,0,2.62-.39,5.08,5.08,0,0,0,.23-1.32,1.26,1.26,0,0,0-.5-1.06,3.1,3.1,0,0,0-2-.54,3.4,3.4,0,0,0-2,.54,3.11,3.11,0,0,0-1.14,1.54l-2-.17a5.12,5.12,0,0,1,1.9-2.6,5.67,5.67,0,0,1,3.29-.9,5.18,5.18,0,0,1,3.36,1,2.37,2.37,0,0,1,.94,1.95,9.83,9.83,0,0,1-.27,2.12l-.63,2.84a10.58,10.58,0,0,0-.3,2.2A7.17,7.17,0,0,0,1241,304h-2A7.39,7.39,0,0,1,1238.75,302.61Zm.72-4.37a4.63,4.63,0,0,1-.87.25c-.31.06-.83.12-1.57.18a12.09,12.09,0,0,0-2.39.39,2,2,0,0,0-1.05.73,1.89,1.89,0,0,0-.36,1.12,1.75,1.75,0,0,0,.57,1.34,2.25,2.25,0,0,0,1.6.53,3.67,3.67,0,0,0,1.86-.51,3.73,3.73,0,0,0,1.41-1.43A8.17,8.17,0,0,0,1239.47,298.24Z"/><path class="cls-4" d="M1251,302.37a4.7,4.7,0,0,1-3.48,1.91,3.48,3.48,0,0,1-2.7-1.2,5,5,0,0,1-1.08-3.47,8.46,8.46,0,0,1,.85-3.81,6.4,6.4,0,0,1,2.14-2.58,4.52,4.52,0,0,1,2.57-.86,3.44,3.44,0,0,1,3.21,2.05l1.29-6.13h1.94L1252.44,304h-1.79Zm-5.33-3.13a5.84,5.84,0,0,0,.24,1.88,2.43,2.43,0,0,0,.8,1.15,2.15,2.15,0,0,0,1.37.45,3,3,0,0,0,2.39-1.37,7.06,7.06,0,0,0,1.44-4.51,3,3,0,0,0-.71-2.12,2.31,2.31,0,0,0-1.78-.76,2.57,2.57,0,0,0-1.27.31,3.59,3.59,0,0,0-1.14,1.06,6.67,6.67,0,0,0-1,1.89A6.43,6.43,0,0,0,1245.66,299.24Z"/><path class="cls-4" d="M1263.22,302.37a4.7,4.7,0,0,1-3.48,1.91,3.48,3.48,0,0,1-2.7-1.2,5,5,0,0,1-1.08-3.47,8.46,8.46,0,0,1,.86-3.81,6.46,6.46,0,0,1,2.13-2.58,4.57,4.57,0,0,1,2.58-.86,3.44,3.44,0,0,1,3.21,2.05l1.29-6.13H1268L1264.67,304h-1.79Zm-5.32-3.13a6.18,6.18,0,0,0,.23,1.88,2.53,2.53,0,0,0,.81,1.15,2.12,2.12,0,0,0,1.36.45,3,3,0,0,0,2.4-1.37,7.06,7.06,0,0,0,1.44-4.51,3,3,0,0,0-.71-2.12,2.32,2.32,0,0,0-1.78-.76,2.63,2.63,0,0,0-1.28.31,3.81,3.81,0,0,0-1.14,1.06,7,7,0,0,0-1,1.89A6.68,6.68,0,0,0,1257.9,299.24Z"/><path class="cls-4" d="M1267.77,304l2.38-11.4h1.72l-.48,2.33a8,8,0,0,1,1.72-2,2.86,2.86,0,0,1,1.73-.63,3.42,3.42,0,0,1,1.43.42l-.8,1.8a1.86,1.86,0,0,0-1.11-.36,3,3,0,0,0-2.09,1.14,8.57,8.57,0,0,0-1.69,4.09l-1,4.57Z"/><path class="cls-4" d="M1283.47,300.15l1.89.19a5.63,5.63,0,0,1-1.87,2.67,5.15,5.15,0,0,1-3.5,1.27,4.7,4.7,0,0,1-2.32-.58,3.76,3.76,0,0,1-1.61-1.71,5.62,5.62,0,0,1-.56-2.54,8.08,8.08,0,0,1,.87-3.63,6.12,6.12,0,0,1,2.24-2.61,5.51,5.51,0,0,1,3-.85,4.29,4.29,0,0,1,3.26,1.27,4.72,4.72,0,0,1,1.22,3.45,10.17,10.17,0,0,1-.15,1.72h-8.4a4.62,4.62,0,0,0,0,.6,3.62,3.62,0,0,0,.73,2.45,2.32,2.32,0,0,0,1.8.84,3.53,3.53,0,0,0,2-.65A4.34,4.34,0,0,0,1283.47,300.15Zm-5.65-2.83h6.41c0-.2,0-.34,0-.43a3.19,3.19,0,0,0-.73-2.24,2.47,2.47,0,0,0-1.88-.78,3.49,3.49,0,0,0-2.28.86A5.26,5.26,0,0,0,1277.82,297.32Z"/><path class="cls-4" d="M1287.51,300.12l2-.11a3.62,3.62,0,0,0,.25,1.43,2.07,2.07,0,0,0,1,1,3.33,3.33,0,0,0,1.61.38,3,3,0,0,0,1.94-.52,1.51,1.51,0,0,0,.64-1.21,1.44,1.44,0,0,0-.39-1,6,6,0,0,0-1.94-1.11,19.23,19.23,0,0,1-2-.93,3.09,3.09,0,0,1-1.08-1,2.56,2.56,0,0,1-.37-1.36,3,3,0,0,1,1.08-2.33,4.35,4.35,0,0,1,3-1,4.81,4.81,0,0,1,3.27,1,3.49,3.49,0,0,1,1.16,2.62l-1.9.13a2.2,2.2,0,0,0-.73-1.64,2.87,2.87,0,0,0-1.94-.6,2.43,2.43,0,0,0-1.57.46,1.3,1.3,0,0,0-.56,1,1.22,1.22,0,0,0,.48.95,8.73,8.73,0,0,0,1.67.86,11.17,11.17,0,0,1,2.81,1.52,2.91,2.91,0,0,1,.93,2.17,3.07,3.07,0,0,1-.53,1.67,3.49,3.49,0,0,1-1.59,1.3,5.92,5.92,0,0,1-2.51.49,5.66,5.66,0,0,1-3.37-1A3.47,3.47,0,0,1,1287.51,300.12Z"/><path class="cls-4" d="M1298.51,300.12l2-.11a3.62,3.62,0,0,0,.25,1.43,2.07,2.07,0,0,0,1,1,3.33,3.33,0,0,0,1.61.38,3,3,0,0,0,1.94-.52,1.51,1.51,0,0,0,.64-1.21,1.44,1.44,0,0,0-.39-1,6,6,0,0,0-1.94-1.11,19.23,19.23,0,0,1-2-.93,3.09,3.09,0,0,1-1.08-1,2.56,2.56,0,0,1-.37-1.36,3,3,0,0,1,1.08-2.33,4.35,4.35,0,0,1,3-1,4.81,4.81,0,0,1,3.27,1,3.49,3.49,0,0,1,1.16,2.62l-1.9.13a2.2,2.2,0,0,0-.73-1.64,2.87,2.87,0,0,0-1.94-.6,2.43,2.43,0,0,0-1.57.46,1.3,1.3,0,0,0-.56,1,1.22,1.22,0,0,0,.48.95,8.73,8.73,0,0,0,1.67.86,11.17,11.17,0,0,1,2.81,1.52,2.91,2.91,0,0,1,.93,2.17,3.07,3.07,0,0,1-.53,1.67,3.49,3.49,0,0,1-1.59,1.3,5.92,5.92,0,0,1-2.51.49,5.66,5.66,0,0,1-3.37-1A3.47,3.47,0,0,1,1298.51,300.12Z"/><path class="cls-4" d="M827.66,330.42V316.53h-5.19v-1.85H835v1.85h-5.21v13.89Z"/><path class="cls-4" d="M833.69,324.72a5.85,5.85,0,0,1,1.76-4.69,5.29,5.29,0,0,1,3.59-1.27,5.09,5.09,0,0,1,3.84,1.54,5.86,5.86,0,0,1,1.5,4.26,7.39,7.39,0,0,1-.67,3.46,4.6,4.6,0,0,1-1.92,2,5.54,5.54,0,0,1-2.75.7,5.16,5.16,0,0,1-3.88-1.53A6.17,6.17,0,0,1,833.69,324.72Zm2,0a4.83,4.83,0,0,0,1,3.28,3.19,3.19,0,0,0,4.8,0,5,5,0,0,0,1-3.34,4.72,4.72,0,0,0-1-3.21,3,3,0,0,0-2.39-1.09,3.08,3.08,0,0,0-2.41,1.08A4.85,4.85,0,0,0,835.67,324.72Z"/><path class="cls-4" d="M847.18,321.22V319h2.2v2.2Zm0,9.2v-2.2h2.2v2.2Z"/><path class="cls-4" d="M882.45,330.42l3.28-15.74h1.95l-3.29,15.74Z"/><path class="cls-4" d="M887.83,326.09a8,8,0,0,1,2-5.53,5.46,5.46,0,0,1,4.26-1.8,4.44,4.44,0,0,1,3.32,1.29,4.77,4.77,0,0,1,1.26,3.48,8.51,8.51,0,0,1-.79,3.66,5.91,5.91,0,0,1-2.26,2.59,5.83,5.83,0,0,1-3.09.9,5.11,5.11,0,0,1-2.42-.57,3.93,3.93,0,0,1-1.67-1.61A4.93,4.93,0,0,1,887.83,326.09Zm1.94-.19a3.47,3.47,0,0,0,.78,2.45,2.57,2.57,0,0,0,2,.83,3.39,3.39,0,0,0,1.24-.25,3.89,3.89,0,0,0,1.14-.77,5.46,5.46,0,0,0,.89-1.18,6.66,6.66,0,0,0,.6-1.42,6.89,6.89,0,0,0,.33-2,3.43,3.43,0,0,0-.78-2.4,2.54,2.54,0,0,0-2-.86,3.24,3.24,0,0,0-1.66.44A4.39,4.39,0,0,0,891,322a5.62,5.62,0,0,0-.89,1.95A8.09,8.09,0,0,0,889.77,325.9Z"/><path class="cls-4" d="M907.41,329a7.73,7.73,0,0,1-1.94,1.27,5,5,0,0,1-2,.4,3.54,3.54,0,0,1-2.55-.93,3.16,3.16,0,0,1-1-2.38,3.27,3.27,0,0,1,.43-1.69,3.45,3.45,0,0,1,1.16-1.18,5,5,0,0,1,1.76-.64,18.87,18.87,0,0,1,2.48-.2,8.76,8.76,0,0,0,2.63-.39,5.08,5.08,0,0,0,.23-1.32,1.3,1.3,0,0,0-.5-1.07,3.17,3.17,0,0,0-2-.53,3.46,3.46,0,0,0-2,.54,3.09,3.09,0,0,0-1.13,1.54l-2-.17a5.13,5.13,0,0,1,1.91-2.6,5.67,5.67,0,0,1,3.29-.9,5.09,5.09,0,0,1,3.35,1,2.38,2.38,0,0,1,1,2,9.83,9.83,0,0,1-.27,2.12l-.63,2.83a10.74,10.74,0,0,0-.3,2.21,7.7,7.7,0,0,0,.23,1.54h-2A6.67,6.67,0,0,1,907.41,329Zm.72-4.37a4.52,4.52,0,0,1-.88.25q-.46.09-1.56.18a11.25,11.25,0,0,0-2.39.39,2,2,0,0,0-1.06.73,2,2,0,0,0-.35,1.12,1.77,1.77,0,0,0,.56,1.34,2.28,2.28,0,0,0,1.61.53,3.76,3.76,0,0,0,3.26-1.94A7.9,7.9,0,0,0,908.13,324.64Z"/><path class="cls-4" d="M919.65,328.77a4.7,4.7,0,0,1-3.48,1.91,3.49,3.49,0,0,1-2.71-1.2,5,5,0,0,1-1.08-3.47,8.46,8.46,0,0,1,.86-3.81,6.4,6.4,0,0,1,2.14-2.58,4.52,4.52,0,0,1,2.57-.86,3.44,3.44,0,0,1,3.21,2.05l1.29-6.13h1.93l-3.28,15.74h-1.8Zm-5.33-3.13a6.18,6.18,0,0,0,.23,1.88,2.53,2.53,0,0,0,.81,1.15,2.12,2.12,0,0,0,1.36.45,3,3,0,0,0,2.4-1.37,7.06,7.06,0,0,0,1.44-4.51,3,3,0,0,0-.71-2.12,2.32,2.32,0,0,0-1.78-.76,2.63,2.63,0,0,0-1.28.31,3.67,3.67,0,0,0-1.13,1.06,7.37,7.37,0,0,0-1.34,3.91Z"/><path class="cls-4" d="M930.3,330.42l3.29-15.74h1.94l-1.17,5.62a7,7,0,0,1,1.68-1.19,3.56,3.56,0,0,1,1.57-.35,3.47,3.47,0,0,1,2.67,1.19,5.06,5.06,0,0,1,1.07,3.47,8.7,8.7,0,0,1-.43,2.77,7.58,7.58,0,0,1-1.07,2.11,6.64,6.64,0,0,1-1.31,1.37,5.24,5.24,0,0,1-1.38.76,4.06,4.06,0,0,1-1.37.25,3.48,3.48,0,0,1-2-.59,3.88,3.88,0,0,1-1.34-1.83l-.45,2.16Zm2.88-4.68v.37a3.16,3.16,0,0,0,.7,2.22,2.24,2.24,0,0,0,1.74.76,2.88,2.88,0,0,0,1.87-.71,5.17,5.17,0,0,0,1.41-2.23,8.36,8.36,0,0,0,.54-2.79,3.32,3.32,0,0,0-.69-2.24,2.17,2.17,0,0,0-1.71-.79,2.8,2.8,0,0,0-1.94.81,6.21,6.21,0,0,0-1.47,2.49A6.73,6.73,0,0,0,933.18,325.74Z"/><path class="cls-4" d="M950.23,329a7.6,7.6,0,0,1-2,1.27,4.91,4.91,0,0,1-2,.4,3.53,3.53,0,0,1-2.55-.93,3.17,3.17,0,0,1-1-2.38,3.27,3.27,0,0,1,.44-1.69,3.42,3.42,0,0,1,1.15-1.18,5.06,5.06,0,0,1,1.77-.64,18.87,18.87,0,0,1,2.48-.2,8.82,8.82,0,0,0,2.63-.39,5,5,0,0,0,.22-1.32,1.29,1.29,0,0,0-.49-1.07,3.18,3.18,0,0,0-2-.53,3.45,3.45,0,0,0-2,.54,3,3,0,0,0-1.13,1.54l-2-.17a5.13,5.13,0,0,1,1.91-2.6,5.67,5.67,0,0,1,3.29-.9,5.09,5.09,0,0,1,3.35,1,2.38,2.38,0,0,1,.95,2,9.83,9.83,0,0,1-.27,2.12l-.63,2.83a10.2,10.2,0,0,0-.31,2.21,7.17,7.17,0,0,0,.24,1.54h-2A7.48,7.48,0,0,1,950.23,329Zm.72-4.37a4.52,4.52,0,0,1-.88.25q-.47.09-1.56.18a11.5,11.5,0,0,0-2.4.39,2,2,0,0,0-1.05.73,2,2,0,0,0-.35,1.12,1.77,1.77,0,0,0,.56,1.34,2.28,2.28,0,0,0,1.61.53,3.76,3.76,0,0,0,3.26-1.94A7.9,7.9,0,0,0,951,324.64Z"/><path class="cls-4" d="M954.62,330.42l3.29-15.74h1.94l-3.28,15.74Z"/><path class="cls-4" d="M967.35,329a7.73,7.73,0,0,1-1.94,1.27,5,5,0,0,1-2,.4,3.54,3.54,0,0,1-2.55-.93,3.16,3.16,0,0,1-1-2.38,3.27,3.27,0,0,1,.43-1.69,3.45,3.45,0,0,1,1.16-1.18,5,5,0,0,1,1.76-.64,19.07,19.07,0,0,1,2.49-.2,8.74,8.74,0,0,0,2.62-.39,5.08,5.08,0,0,0,.23-1.32,1.3,1.3,0,0,0-.5-1.07,3.17,3.17,0,0,0-2-.53,3.46,3.46,0,0,0-2,.54,3.09,3.09,0,0,0-1.13,1.54l-2-.17a5.19,5.19,0,0,1,1.91-2.6,5.67,5.67,0,0,1,3.29-.9,5.14,5.14,0,0,1,3.36,1,2.37,2.37,0,0,1,.94,2,9.83,9.83,0,0,1-.27,2.12l-.63,2.83a10.74,10.74,0,0,0-.3,2.21,7.7,7.7,0,0,0,.23,1.54h-2A7.39,7.39,0,0,1,967.35,329Zm.72-4.37a4.63,4.63,0,0,1-.87.25c-.31.06-.84.12-1.57.18a11.25,11.25,0,0,0-2.39.39,2,2,0,0,0-1,.73,1.89,1.89,0,0,0-.36,1.12,1.75,1.75,0,0,0,.57,1.34,2.25,2.25,0,0,0,1.6.53,3.7,3.7,0,0,0,1.86-.51,3.8,3.8,0,0,0,1.41-1.43A8.17,8.17,0,0,0,968.07,324.64Z"/><path class="cls-4" d="M971.9,330.42l2.38-11.4H976l-.42,2a9.27,9.27,0,0,1,2.15-1.7,4.27,4.27,0,0,1,2-.54,3,3,0,0,1,2.18.75,2.63,2.63,0,0,1,.79,2,10.92,10.92,0,0,1-.28,2l-1.45,6.9H979.1l1.52-7.23a8.19,8.19,0,0,0,.22-1.55,1.21,1.21,0,0,0-.39-.93,1.66,1.66,0,0,0-1.13-.35,3.84,3.84,0,0,0-2.66,1.07,6.83,6.83,0,0,0-1.71,3.69l-1.11,5.3Z"/><path class="cls-4" d="M992,326.27l1.94.2a6.58,6.58,0,0,1-2.08,3.18,4.9,4.9,0,0,1-3.07,1,4,4,0,0,1-3-1.2,4.64,4.64,0,0,1-1.15-3.36,9.52,9.52,0,0,1,.74-3.68,5.88,5.88,0,0,1,2.12-2.74,5.44,5.44,0,0,1,3.15-.94,4,4,0,0,1,2.91,1,3.65,3.65,0,0,1,1.08,2.75l-1.91.13a2.35,2.35,0,0,0-.63-1.7,2.21,2.21,0,0,0-1.63-.61,3,3,0,0,0-2,.74,4.9,4.9,0,0,0-1.35,2.25,9.65,9.65,0,0,0-.49,2.91,3.24,3.24,0,0,0,.65,2.19,2.06,2.06,0,0,0,1.59.73,2.8,2.8,0,0,0,1.81-.72A4.79,4.79,0,0,0,992,326.27Z"/><path class="cls-4" d="M1003.51,326.55l1.89.19a5.7,5.7,0,0,1-1.87,2.67,5.17,5.17,0,0,1-3.5,1.27,4.77,4.77,0,0,1-2.33-.58,3.87,3.87,0,0,1-1.61-1.71,5.61,5.61,0,0,1-.55-2.54,8.2,8.2,0,0,1,.86-3.63,6.25,6.25,0,0,1,2.24-2.61,5.54,5.54,0,0,1,3-.85,4.29,4.29,0,0,1,3.26,1.27,4.76,4.76,0,0,1,1.22,3.45,10.17,10.17,0,0,1-.15,1.72h-8.4a4.62,4.62,0,0,0,0,.6,3.62,3.62,0,0,0,.73,2.45,2.3,2.3,0,0,0,1.8.84,3.53,3.53,0,0,0,2-.65A4.34,4.34,0,0,0,1003.51,326.55Zm-5.65-2.83h6.4c0-.2,0-.34,0-.43a3.15,3.15,0,0,0-.73-2.24,2.44,2.44,0,0,0-1.88-.78,3.46,3.46,0,0,0-2.27.86A5.26,5.26,0,0,0,997.86,323.72Z"/><path class="cls-4" d="M1007.37,330.42l2.38-11.4h1.72l-.48,2.33a7.83,7.83,0,0,1,1.72-2,2.86,2.86,0,0,1,1.73-.63,3.35,3.35,0,0,1,1.42.42l-.79,1.8a1.89,1.89,0,0,0-1.11-.36,3,3,0,0,0-2.09,1.14,8.57,8.57,0,0,0-1.69,4.09l-1,4.57Z"/><path class="cls-4" d="M1018.2,316.94l.46-2.2h2.21l-.4,1.93a5.1,5.1,0,0,1-1.13,2.53,2.9,2.9,0,0,1-1.81.93l.18-.85c.85-.23,1.41-1,1.69-2.34Z"/><path class="cls-4" d="M1020.18,326.52l2-.11a3.62,3.62,0,0,0,.25,1.43,2.07,2.07,0,0,0,1,1,3.33,3.33,0,0,0,1.61.38,3,3,0,0,0,1.94-.52,1.51,1.51,0,0,0,.64-1.21,1.44,1.44,0,0,0-.39-1,6,6,0,0,0-1.94-1.11,19.23,19.23,0,0,1-2-.93,3.09,3.09,0,0,1-1.08-1,2.48,2.48,0,0,1-.37-1.36,3,3,0,0,1,1.08-2.33,4.34,4.34,0,0,1,3-1,4.82,4.82,0,0,1,3.28,1,3.49,3.49,0,0,1,1.16,2.62l-1.9.13a2.2,2.2,0,0,0-.73-1.64,2.87,2.87,0,0,0-1.94-.6,2.43,2.43,0,0,0-1.57.46,1.29,1.29,0,0,0-.56,1,1.22,1.22,0,0,0,.48.95,8.73,8.73,0,0,0,1.67.86,11.17,11.17,0,0,1,2.81,1.52,2.91,2.91,0,0,1,.93,2.17,3.07,3.07,0,0,1-.53,1.67,3.49,3.49,0,0,1-1.59,1.3,5.92,5.92,0,0,1-2.51.49,5.66,5.66,0,0,1-3.37-1A3.47,3.47,0,0,1,1020.18,326.52Z"/><path class="cls-4" d="M1037.35,330.42l3.29-15.74h2.58l1.59,10.2a36.52,36.52,0,0,1,.41,3.86,43.05,43.05,0,0,1,2.19-4.31l5.53-9.75h2.63l-3.29,15.74h-2.07l1.64-7.66c.38-1.76.92-3.75,1.63-5.95-.45,1-1,2.13-1.67,3.31l-5.87,10.3h-2l-1.58-10.09c-.14-.93-.24-2-.31-3.24-.18,1.39-.35,2.48-.53,3.29l-2.09,10Z"/><path class="cls-4" d="M1054.27,330.42l8.92-15.74h2.49l2.6,15.74h-2l-.76-4.53h-6.37l-2.52,4.53Zm5.73-6.15h5.21l-.61-3.95c-.24-1.57-.38-2.88-.44-3.93a27.93,27.93,0,0,1-1.57,3.22Z"/><path class="cls-4" d="M1082.65,324.88l2.08.29a8.6,8.6,0,0,1-2.88,4.13,7,7,0,0,1-4.24,1.39,6,6,0,0,1-4.55-1.75,7,7,0,0,1-1.68-5,10,10,0,0,1,2.56-7,7.33,7.33,0,0,1,5.66-2.48,6,6,0,0,1,4.05,1.34,5.31,5.31,0,0,1,1.8,3.61l-2,.18a4.25,4.25,0,0,0-1.29-2.55,3.7,3.7,0,0,0-2.51-.84,5.44,5.44,0,0,0-4.67,2.57,8.92,8.92,0,0,0-1.55,5.25,5.2,5.2,0,0,0,1.2,3.7,4,4,0,0,0,3.1,1.28,4.62,4.62,0,0,0,3-1.06A6,6,0,0,0,1082.65,324.88Z"/><path class="cls-4" d="M1099.8,329a7.73,7.73,0,0,1-1.94,1.27,5,5,0,0,1-2,.4,3.5,3.5,0,0,1-2.54-.93,3.14,3.14,0,0,1-1-2.38,3.27,3.27,0,0,1,.43-1.69,3.45,3.45,0,0,1,1.16-1.18,5.08,5.08,0,0,1,1.76-.64,19.25,19.25,0,0,1,2.49-.2,8.74,8.74,0,0,0,2.62-.39A5.08,5.08,0,0,0,1101,322a1.3,1.3,0,0,0-.5-1.07,3.17,3.17,0,0,0-2-.53,3.4,3.4,0,0,0-2,.54,3.11,3.11,0,0,0-1.14,1.54l-2-.17a5.12,5.12,0,0,1,1.9-2.6,5.67,5.67,0,0,1,3.29-.9,5.12,5.12,0,0,1,3.36,1,2.37,2.37,0,0,1,.94,2,9.83,9.83,0,0,1-.27,2.12l-.63,2.83a10.74,10.74,0,0,0-.3,2.21,7.7,7.7,0,0,0,.23,1.54h-2A7.39,7.39,0,0,1,1099.8,329Zm.72-4.37a4.63,4.63,0,0,1-.87.25c-.31.06-.83.12-1.57.18a11.25,11.25,0,0,0-2.39.39,2,2,0,0,0-1,.73,1.89,1.89,0,0,0-.36,1.12,1.75,1.75,0,0,0,.57,1.34,2.25,2.25,0,0,0,1.6.53,3.67,3.67,0,0,0,1.86-.51,3.8,3.8,0,0,0,1.41-1.43A8.17,8.17,0,0,0,1100.52,324.64Z"/><path class="cls-4" d="M1104.35,330.42l2.38-11.4h1.76l-.42,2a9.27,9.27,0,0,1,2.15-1.7,4.27,4.27,0,0,1,2-.54,3,3,0,0,1,2.18.75,2.63,2.63,0,0,1,.79,2,10.92,10.92,0,0,1-.28,2l-1.45,6.9h-1.94l1.51-7.23a8.42,8.42,0,0,0,.23-1.55,1.22,1.22,0,0,0-.4-.93,1.66,1.66,0,0,0-1.13-.35,3.85,3.85,0,0,0-2.66,1.07,6.83,6.83,0,0,0-1.71,3.69l-1.11,5.3Z"/><path class="cls-4" d="M1124.27,328.77a4.7,4.7,0,0,1-3.48,1.91,3.48,3.48,0,0,1-2.7-1.2A5,5,0,0,1,1117,326a8.46,8.46,0,0,1,.86-3.81,6.46,6.46,0,0,1,2.13-2.58,4.57,4.57,0,0,1,2.58-.86,3.45,3.45,0,0,1,3.21,2.05l1.29-6.13H1129l-3.29,15.74h-1.79Zm-5.32-3.13a6.18,6.18,0,0,0,.23,1.88,2.53,2.53,0,0,0,.81,1.15,2.12,2.12,0,0,0,1.36.45,3,3,0,0,0,2.4-1.37,7.06,7.06,0,0,0,1.44-4.51,3,3,0,0,0-.71-2.12,2.32,2.32,0,0,0-1.78-.76,2.63,2.63,0,0,0-1.28.31,3.81,3.81,0,0,0-1.14,1.06,7,7,0,0,0-1,1.89A6.38,6.38,0,0,0,1119,325.64Z"/><path class="cls-4" d="M1140,330.42l-3-15.74h2l1.82,9.38c.34,1.71.56,3.08.66,4.13.66-1.35,1.2-2.41,1.62-3.2l5.62-10.31h2.17l-8.64,15.74Z"/><path class="cls-4" d="M1150.13,330.42l3.3-15.74h2.09l-3.28,15.74Z"/><path class="cls-4" d="M1155.93,330.42l3.3-15.74h6.57a6.4,6.4,0,0,1,2.56.39,3.15,3.15,0,0,1,1.42,1.34,4.16,4.16,0,0,1,.56,2.13,5.86,5.86,0,0,1-1.4,3.66,4.89,4.89,0,0,1-1.24,1,4.94,4.94,0,0,1-1.33.5,13.74,13.74,0,0,1-3.06.35h-3.94l-1.33,6.39Zm3.81-8.17h3.47a7.52,7.52,0,0,0,3-.44,3.6,3.6,0,0,0,2.08-3.21,2.41,2.41,0,0,0-.3-1.27,1.83,1.83,0,0,0-.85-.72,6.35,6.35,0,0,0-2.1-.23h-4Z"/><path class="cls-4" d="M1183.38,329a7.77,7.77,0,0,1-2,1.27,5,5,0,0,1-2,.4,3.51,3.51,0,0,1-2.55-.93,3.14,3.14,0,0,1-1-2.38,3.27,3.27,0,0,1,.44-1.69,3.42,3.42,0,0,1,1.15-1.18,5.08,5.08,0,0,1,1.76-.64,19.25,19.25,0,0,1,2.49-.2,8.82,8.82,0,0,0,2.63-.39,5,5,0,0,0,.22-1.32,1.29,1.29,0,0,0-.49-1.07,3.18,3.18,0,0,0-2-.53,3.45,3.45,0,0,0-2,.54,3,3,0,0,0-1.13,1.54l-2-.17a5.13,5.13,0,0,1,1.91-2.6,5.65,5.65,0,0,1,3.29-.9,5.09,5.09,0,0,1,3.35,1,2.38,2.38,0,0,1,1,2,9.83,9.83,0,0,1-.27,2.12l-.64,2.83a10.74,10.74,0,0,0-.3,2.21,7.17,7.17,0,0,0,.24,1.54h-2A7.48,7.48,0,0,1,1183.38,329Zm.72-4.37a5,5,0,0,1-.88.25q-.46.09-1.56.18a11.5,11.5,0,0,0-2.4.39,2,2,0,0,0-1,.73,1.88,1.88,0,0,0-.35,1.12,1.74,1.74,0,0,0,.56,1.34,2.28,2.28,0,0,0,1.61.53,3.79,3.79,0,0,0,3.26-1.94A8.14,8.14,0,0,0,1184.1,324.64Z"/><path class="cls-4" d="M1195.61,328.77a4.7,4.7,0,0,1-3.48,1.91,3.48,3.48,0,0,1-2.7-1.2,5,5,0,0,1-1.08-3.47,8.59,8.59,0,0,1,.85-3.81,6.56,6.56,0,0,1,2.14-2.58,4.57,4.57,0,0,1,2.58-.86,3.46,3.46,0,0,1,3.21,2.05l1.29-6.13h1.93l-3.29,15.74h-1.79Zm-5.33-3.13a5.84,5.84,0,0,0,.24,1.88,2.53,2.53,0,0,0,.81,1.15,2.12,2.12,0,0,0,1.36.45,3,3,0,0,0,2.4-1.37,7.06,7.06,0,0,0,1.44-4.51,3,3,0,0,0-.71-2.12,2.34,2.34,0,0,0-1.79-.76,2.6,2.6,0,0,0-1.27.31,3.81,3.81,0,0,0-1.14,1.06,7,7,0,0,0-.95,1.89A6.43,6.43,0,0,0,1190.28,325.64Z"/><path class="cls-4" d="M1207.85,328.77a4.7,4.7,0,0,1-3.48,1.91,3.48,3.48,0,0,1-2.7-1.2,5,5,0,0,1-1.08-3.47,8.46,8.46,0,0,1,.85-3.81,6.4,6.4,0,0,1,2.14-2.58,4.52,4.52,0,0,1,2.57-.86,3.44,3.44,0,0,1,3.21,2.05l1.29-6.13h1.94l-3.29,15.74h-1.8Zm-5.33-3.13a5.84,5.84,0,0,0,.24,1.88,2.43,2.43,0,0,0,.8,1.15,2.15,2.15,0,0,0,1.37.45,3,3,0,0,0,2.39-1.37,7.06,7.06,0,0,0,1.44-4.51,3,3,0,0,0-.71-2.12,2.31,2.31,0,0,0-1.78-.76,2.57,2.57,0,0,0-1.27.31,3.59,3.59,0,0,0-1.14,1.06,7.61,7.61,0,0,0-1.34,3.91Z"/><path class="cls-4" d="M1212.39,330.42l2.39-11.4h1.72l-.49,2.33a7.84,7.84,0,0,1,1.73-2,2.83,2.83,0,0,1,1.72-.63,3.39,3.39,0,0,1,1.43.42l-.8,1.8a1.83,1.83,0,0,0-1.1-.36,3,3,0,0,0-2.1,1.14,8.58,8.58,0,0,0-1.68,4.09l-1,4.57Z"/><path class="cls-4" d="M1228.1,326.55l1.89.19a5.66,5.66,0,0,1-1.88,2.67,5.12,5.12,0,0,1-3.49,1.27,4.74,4.74,0,0,1-2.33-.58,3.87,3.87,0,0,1-1.61-1.71,5.61,5.61,0,0,1-.55-2.54,8.07,8.07,0,0,1,.86-3.63,6.18,6.18,0,0,1,2.24-2.61,5.54,5.54,0,0,1,3-.85,4.31,4.31,0,0,1,3.26,1.27,4.76,4.76,0,0,1,1.22,3.45,10.17,10.17,0,0,1-.15,1.72h-8.4a4.83,4.83,0,0,0-.05.6,3.62,3.62,0,0,0,.74,2.45,2.3,2.3,0,0,0,1.8.84,3.5,3.5,0,0,0,2-.65A4.29,4.29,0,0,0,1228.1,326.55Zm-5.65-2.83h6.4c0-.2,0-.34,0-.43a3.15,3.15,0,0,0-.73-2.24,2.46,2.46,0,0,0-1.88-.78,3.46,3.46,0,0,0-2.27.86A5.11,5.11,0,0,0,1222.45,323.72Z"/><path class="cls-4" d="M1232.14,326.52l1.94-.11a3.62,3.62,0,0,0,.26,1.43,2,2,0,0,0,1,1,3.34,3.34,0,0,0,1.62.38,3,3,0,0,0,1.93-.52,1.51,1.51,0,0,0,.64-1.21,1.43,1.43,0,0,0-.38-1,6.17,6.17,0,0,0-1.94-1.11,17.24,17.24,0,0,1-2-.93,3.21,3.21,0,0,1-1.09-1,2.56,2.56,0,0,1-.36-1.36,3,3,0,0,1,1.07-2.33,4.37,4.37,0,0,1,3-1,4.81,4.81,0,0,1,3.27,1,3.47,3.47,0,0,1,1.17,2.62l-1.91.13a2.16,2.16,0,0,0-.73-1.64,2.83,2.83,0,0,0-1.94-.6,2.45,2.45,0,0,0-1.57.46,1.32,1.32,0,0,0-.56,1,1.2,1.2,0,0,0,.49.95,8.52,8.52,0,0,0,1.66.86,11.3,11.3,0,0,1,2.82,1.52,2.93,2.93,0,0,1,.92,2.17,3.06,3.06,0,0,1-.52,1.67,3.6,3.6,0,0,1-1.59,1.3,5.93,5.93,0,0,1-2.52.49,5.61,5.61,0,0,1-3.36-1A3.44,3.44,0,0,1,1232.14,326.52Z"/><path class="cls-4" d="M1243.14,326.52l1.94-.11a3.62,3.62,0,0,0,.26,1.43,2,2,0,0,0,1,1,3.34,3.34,0,0,0,1.62.38,3,3,0,0,0,1.93-.52,1.51,1.51,0,0,0,.64-1.21,1.43,1.43,0,0,0-.38-1,6.17,6.17,0,0,0-1.94-1.11,17.24,17.24,0,0,1-2-.93,3.21,3.21,0,0,1-1.09-1,2.56,2.56,0,0,1-.36-1.36,3,3,0,0,1,1.07-2.33,4.37,4.37,0,0,1,3-1,4.81,4.81,0,0,1,3.27,1,3.47,3.47,0,0,1,1.17,2.62l-1.91.13a2.16,2.16,0,0,0-.73-1.64,2.83,2.83,0,0,0-1.94-.6,2.45,2.45,0,0,0-1.57.46,1.32,1.32,0,0,0-.56,1,1.2,1.2,0,0,0,.49.95,8.52,8.52,0,0,0,1.66.86,11.3,11.3,0,0,1,2.82,1.52,2.93,2.93,0,0,1,.92,2.17,3.06,3.06,0,0,1-.52,1.67,3.6,3.6,0,0,1-1.59,1.3,5.93,5.93,0,0,1-2.52.49,5.61,5.61,0,0,1-3.36-1A3.44,3.44,0,0,1,1243.14,326.52Z"/><rect class="cls-3" x="619.98" y="37.27" width="319.88" height="212.42"/><path class="cls-4" d="M700.28,155.41V115.33h17.78a23.62,23.62,0,0,1,8.14,1.08,8.91,8.91,0,0,1,4.46,3.81,11.43,11.43,0,0,1,1.67,6,10.09,10.09,0,0,1-2.76,7.19q-2.76,2.92-8.53,3.72a13.93,13.93,0,0,1,3.2,2,28.09,28.09,0,0,1,4.4,5.33l7,10.91h-6.67l-5.31-8.34q-2.32-3.6-3.82-5.52a12.18,12.18,0,0,0-2.7-2.68,7.91,7.91,0,0,0-2.42-1.06,15.47,15.47,0,0,0-3-.2h-6.15v17.8ZM705.59,133H717a17.19,17.19,0,0,0,5.69-.75,6,6,0,0,0,3.11-2.41,6.42,6.42,0,0,0,1.07-3.59,6,6,0,0,0-2.06-4.68c-1.38-1.22-3.55-1.83-6.53-1.83H705.59Z"/><path class="cls-4" d="M738.18,140.9q0-8.07,4.49-12a13.5,13.5,0,0,1,9.13-3.23,13.06,13.06,0,0,1,9.79,3.92q3.79,3.93,3.8,10.85a19.2,19.2,0,0,1-1.68,8.81,11.85,11.85,0,0,1-4.9,5,14.19,14.19,0,0,1-7,1.78,13,13,0,0,1-9.86-3.91Q738.18,148.25,738.18,140.9Zm5.06,0c0,3.71.81,6.5,2.43,8.35a8.12,8.12,0,0,0,12.23,0q2.43-2.79,2.43-8.51,0-5.39-2.45-8.16a8.1,8.1,0,0,0-12.21,0Q743.24,135.32,743.24,140.9Z"/><path class="cls-4" d="M790.19,155.41v-4.26a10.63,10.63,0,0,1-9.22,4.92,11.88,11.88,0,0,1-4.8-1,7.89,7.89,0,0,1-3.3-2.48,9.23,9.23,0,0,1-1.52-3.65,25,25,0,0,1-.3-4.59v-18H776v16.1a28.89,28.89,0,0,0,.3,5.2,5.17,5.17,0,0,0,2,3,6.14,6.14,0,0,0,3.72,1.1,8.14,8.14,0,0,0,4.15-1.13,6.33,6.33,0,0,0,2.75-3.09,15.5,15.5,0,0,0,.81-5.68V126.38h4.92v29Z"/><path class="cls-4" d="M813.05,151l.71,4.35a18.47,18.47,0,0,1-3.72.44,8.5,8.5,0,0,1-4.16-.85,4.77,4.77,0,0,1-2.07-2.23q-.62-1.38-.61-5.81V130.2h-3.61v-3.82h3.61v-7.2l4.9-3v10.15h4.95v3.82H808.1v17a8.67,8.67,0,0,0,.26,2.71,2,2,0,0,0,.85,1,3.24,3.24,0,0,0,1.68.35A15.76,15.76,0,0,0,813.05,151Z"/><path class="cls-4" d="M837.74,146.06l5.08.63a12.39,12.39,0,0,1-4.45,6.92,13.4,13.4,0,0,1-8.31,2.46q-6.37,0-10.11-3.92t-3.73-11c0-4.88,1.26-8.68,3.77-11.37a12.78,12.78,0,0,1,9.79-4.05,12.43,12.43,0,0,1,9.52,4q3.69,4,3.69,11.16c0,.29,0,.73,0,1.31H821.31c.18,3.19,1.08,5.64,2.7,7.33a8,8,0,0,0,6.07,2.54,7.49,7.49,0,0,0,4.62-1.42A9.44,9.44,0,0,0,837.74,146.06Zm-16.16-7.95h16.21a9.84,9.84,0,0,0-1.86-5.5,7.51,7.51,0,0,0-6.09-2.84,7.79,7.79,0,0,0-5.7,2.27A9,9,0,0,0,821.58,138.11Z"/><path class="cls-4" d="M849,155.41v-29h4.43v4.4a12,12,0,0,1,3.13-4.08,5.52,5.52,0,0,1,3.16-1,9.6,9.6,0,0,1,5.06,1.59l-1.7,4.56a7,7,0,0,0-3.61-1.06,4.69,4.69,0,0,0-2.9,1,5.28,5.28,0,0,0-1.83,2.69,19.37,19.37,0,0,0-.82,5.74v15.2Z"/><line class="cls-6" x1="744.3" y1="322.92" x2="744.3" y2="265.59"/><polygon class="cls-7" points="744.3 356.21 764.36 321.47 724.25 321.47 744.3 356.21"/><rect class="cls-3" x="67.19" y="373.6" width="319.88" height="212.42"/><path class="cls-4" d="M122.26,491.75V451.66h15a18.64,18.64,0,0,1,7.37,1.22,9.47,9.47,0,0,1,4.35,3.75,9.84,9.84,0,0,1,1.57,5.29,9.08,9.08,0,0,1-1.39,4.84,10,10,0,0,1-4.21,3.66,10.53,10.53,0,0,1,5.59,3.64,9.76,9.76,0,0,1,1.95,6.07,11.64,11.64,0,0,1-1.19,5.24,10.13,10.13,0,0,1-2.94,3.73,12.36,12.36,0,0,1-4.39,2,26.42,26.42,0,0,1-6.46.67Zm5.31-23.24h8.67a19.21,19.21,0,0,0,5-.47,5.59,5.59,0,0,0,3.05-2,5.72,5.72,0,0,0,1-3.5,6.47,6.47,0,0,0-1-3.52,4.84,4.84,0,0,0-2.73-2.07,22.52,22.52,0,0,0-6.1-.57h-8Zm0,18.51h10a22.82,22.82,0,0,0,3.61-.19,8.48,8.48,0,0,0,3.06-1.1,5.82,5.82,0,0,0,2-2.22,7,7,0,0,0,.8-3.38,6.72,6.72,0,0,0-1.15-3.9,6.1,6.1,0,0,0-3.19-2.32,19.62,19.62,0,0,0-5.86-.67h-9.27Z"/><path class="cls-4" d="M178.15,488.17a18.25,18.25,0,0,1-5.26,3.28,15.2,15.2,0,0,1-5.43,1q-4.78,0-7.35-2.34a7.7,7.7,0,0,1-2.57-6,8.1,8.1,0,0,1,3.51-6.72,12.18,12.18,0,0,1,3.54-1.62A35.42,35.42,0,0,1,169,475a44.93,44.93,0,0,0,8.77-1.7c0-.67,0-1.1,0-1.28,0-2-.46-3.42-1.39-4.24a8.26,8.26,0,0,0-5.61-1.67,8.66,8.66,0,0,0-5.13,1.22,7.38,7.38,0,0,0-2.44,4.3l-4.82-.65a12,12,0,0,1,2.16-5,9.5,9.5,0,0,1,4.35-2.93,19.48,19.48,0,0,1,6.59-1,17.49,17.49,0,0,1,6,.88,8,8,0,0,1,3.42,2.2,7.74,7.74,0,0,1,1.53,3.35,26.92,26.92,0,0,1,.25,4.54v6.56a69.83,69.83,0,0,0,.31,8.68,10.91,10.91,0,0,0,1.25,3.49h-5.14A10.5,10.5,0,0,1,178.15,488.17Zm-.41-11a35.85,35.85,0,0,1-8,1.86,18.84,18.84,0,0,0-4.29,1,4.27,4.27,0,0,0-1.94,1.6,4.36,4.36,0,0,0,.81,5.62,6.42,6.42,0,0,0,4.36,1.31,10.17,10.17,0,0,0,5.06-1.24A7.69,7.69,0,0,0,177,483.9a11.86,11.86,0,0,0,.79-4.92Z"/><path class="cls-4" d="M209.3,481.11l4.84.63a12.56,12.56,0,0,1-4.06,7.84,11.88,11.88,0,0,1-8,2.83,12.45,12.45,0,0,1-9.58-3.9q-3.63-3.9-3.63-11.17a20.17,20.17,0,0,1,1.56-8.23,10.83,10.83,0,0,1,4.75-5.29,14,14,0,0,1,6.93-1.77,12,12,0,0,1,7.74,2.4,11,11,0,0,1,3.85,6.79l-4.78.74a7.94,7.94,0,0,0-2.42-4.4,6.25,6.25,0,0,0-4.2-1.48,7.63,7.63,0,0,0-6,2.67q-2.32,2.67-2.33,8.43t2.25,8.51a7.27,7.27,0,0,0,5.85,2.65,6.89,6.89,0,0,0,4.84-1.78A8.86,8.86,0,0,0,209.3,481.11Z"/><path class="cls-4" d="M218.38,491.75V451.66h4.92v22.86L235,462.71h6.37l-11.1,10.77,12.22,18.27h-6.07l-9.6-14.85-3.47,3.34v11.51Z"/><path class="cls-4" d="M266.23,482.4l5.08.63a12.43,12.43,0,0,1-4.45,6.92,13.41,13.41,0,0,1-8.32,2.46q-6.36,0-10.1-3.93t-3.73-11q0-7.34,3.77-11.38a12.78,12.78,0,0,1,9.79-4.05,12.44,12.44,0,0,1,9.52,4q3.69,4,3.69,11.16c0,.29,0,.73,0,1.31H249.79q.28,4.78,2.71,7.33a8.08,8.08,0,0,0,6.07,2.54,7.49,7.49,0,0,0,4.62-1.42A9.44,9.44,0,0,0,266.23,482.4Zm-16.16-8h16.21a9.84,9.84,0,0,0-1.86-5.49,7.52,7.52,0,0,0-6.09-2.85,7.84,7.84,0,0,0-5.71,2.27A9,9,0,0,0,250.07,474.44Z"/><path class="cls-4" d="M277.49,491.75v-29h4.43v4.13a10.46,10.46,0,0,1,9.25-4.79A12.09,12.09,0,0,1,296,463a7.61,7.61,0,0,1,3.3,2.47,9.49,9.49,0,0,1,1.53,3.64,28.52,28.52,0,0,1,.27,4.78v17.86h-4.92V474.09a13,13,0,0,0-.58-4.5,4.69,4.69,0,0,0-2-2.38,6.51,6.51,0,0,0-3.43-.89,8,8,0,0,0-5.43,2q-2.28,2-2.28,7.57v15.86Z"/><path class="cls-4" d="M327.48,491.75v-3.66a9,9,0,0,1-8.12,4.32,11.36,11.36,0,0,1-6.39-1.92,12.61,12.61,0,0,1-4.51-5.34,18.44,18.44,0,0,1-1.6-7.89,20.57,20.57,0,0,1,1.45-7.89,11.43,11.43,0,0,1,4.35-5.43,11.6,11.6,0,0,1,6.48-1.89,9.62,9.62,0,0,1,4.67,1.11,9.77,9.77,0,0,1,3.34,2.89V451.66H332v40.09Zm-15.56-14.49q0,5.58,2.35,8.34a7.1,7.1,0,0,0,5.55,2.76,7,7,0,0,0,5.48-2.64q2.26-2.64,2.26-8.05c0-4-.77-6.89-2.3-8.75a7.06,7.06,0,0,0-5.66-2.79,6.82,6.82,0,0,0-5.48,2.68C312.65,470.6,311.92,473.41,311.92,477.26Z"/><line class="cls-6" x1="540.5" y1="543.97" x2="597.83" y2="543.97"/><polygon class="cls-7" points="507.21 543.97 541.95 564.02 541.95 523.91 507.21 543.97"/><line class="cls-6" x1="151.35" y1="298.2" x2="151.35" y2="355.53"/><polygon class="cls-7" points="151.35 264.91 131.29 299.65 171.41 299.65 151.35 264.91"/><rect class="cls-3" x="67.19" y="37.27" width="319.88" height="212.42"/><path class="cls-4" d="M147.49,155.41V115.33h17.77a23.68,23.68,0,0,1,8.15,1.08,9,9,0,0,1,4.46,3.81,11.42,11.42,0,0,1,1.66,6,10.09,10.09,0,0,1-2.76,7.19q-2.76,2.92-8.53,3.72a13.93,13.93,0,0,1,3.2,2,27.36,27.36,0,0,1,4.4,5.33l7,10.91h-6.68l-5.3-8.34q-2.33-3.6-3.83-5.52a12.17,12.17,0,0,0-2.69-2.68,8,8,0,0,0-2.42-1.06,15.6,15.6,0,0,0-3-.2h-6.15v17.8Zm5.3-22.39h11.4a17.15,17.15,0,0,0,5.69-.75,6,6,0,0,0,3.12-2.41,6.5,6.5,0,0,0,1.07-3.59,6,6,0,0,0-2.07-4.68q-2.07-1.83-6.52-1.83H152.79Z"/><path class="cls-4" d="M185.39,140.9q0-8.07,4.48-12a13.52,13.52,0,0,1,9.13-3.23,13,13,0,0,1,9.79,3.92q3.81,3.93,3.8,10.85a19.2,19.2,0,0,1-1.68,8.81,11.82,11.82,0,0,1-4.89,5,14.23,14.23,0,0,1-7,1.78,13,13,0,0,1-9.85-3.91Q185.39,148.25,185.39,140.9Zm5.05,0c0,3.71.82,6.5,2.44,8.35a8.11,8.11,0,0,0,12.22,0q2.43-2.79,2.43-8.51,0-5.39-2.44-8.16a8.1,8.1,0,0,0-12.21,0C191.26,134.4,190.44,137.18,190.44,140.9Z"/><path class="cls-4" d="M237.39,155.41v-4.26a10.62,10.62,0,0,1-9.21,4.92,11.88,11.88,0,0,1-4.8-1,7.87,7.87,0,0,1-3.31-2.48,9.38,9.38,0,0,1-1.52-3.65,25,25,0,0,1-.3-4.59v-18h4.92v16.1a28.59,28.59,0,0,0,.31,5.2,5.15,5.15,0,0,0,2,3,6.18,6.18,0,0,0,3.72,1.1,8.15,8.15,0,0,0,4.16-1.13,6.38,6.38,0,0,0,2.75-3.09,15.54,15.54,0,0,0,.8-5.68V126.38h4.93v29Z"/><path class="cls-4" d="M260.25,151l.71,4.35a18.3,18.3,0,0,1-3.71.44,8.47,8.47,0,0,1-4.16-.85,4.75,4.75,0,0,1-2.08-2.23q-.6-1.38-.6-5.81V130.2H246.8v-3.82h3.61v-7.2l4.89-3v10.15h4.95v3.82H255.3v17a8.67,8.67,0,0,0,.26,2.71,2.13,2.13,0,0,0,.85,1,3.24,3.24,0,0,0,1.68.35A15.51,15.51,0,0,0,260.25,151Z"/><path class="cls-4" d="M284.94,146.06l5.09.63a12.41,12.41,0,0,1-4.46,6.92,13.4,13.4,0,0,1-8.31,2.46q-6.37,0-10.1-3.92t-3.74-11c0-4.88,1.26-8.68,3.78-11.37a12.76,12.76,0,0,1,9.79-4.05,12.41,12.41,0,0,1,9.51,4q3.69,4,3.69,11.16c0,.29,0,.73,0,1.31H268.51c.18,3.19,1.09,5.64,2.71,7.33a8,8,0,0,0,6.07,2.54,7.53,7.53,0,0,0,4.62-1.42A9.36,9.36,0,0,0,284.94,146.06Zm-16.16-7.95H285a9.84,9.84,0,0,0-1.86-5.5,7.53,7.53,0,0,0-6.1-2.84,7.79,7.79,0,0,0-5.7,2.27A9,9,0,0,0,268.78,138.11Z"/><path class="cls-4" d="M296.16,155.41v-29h4.43v4.4a12,12,0,0,1,3.13-4.08,5.48,5.48,0,0,1,3.15-1,9.58,9.58,0,0,1,5.06,1.59l-1.69,4.56a7.07,7.07,0,0,0-3.61-1.06,4.67,4.67,0,0,0-2.9,1,5.16,5.16,0,0,0-1.83,2.69,19,19,0,0,0-.82,5.74v15.2Z"/><rect class="cls-5" x="398.33" y="613.46" width="312.62" height="169.15"/><rect class="cls-5" x="409.14" y="691.93" width="290.63" height="79.5"/><path class="cls-4" d="M420.56,644.36V628.62h10.62v1.85h-8.54v4.88H430v1.86h-7.39v7.15Z"/><path class="cls-4" d="M433.62,644.36V633h1.74v1.73a4.53,4.53,0,0,1,1.23-1.6,2.14,2.14,0,0,1,1.24-.39,3.85,3.85,0,0,1,2,.62l-.67,1.8a2.74,2.74,0,0,0-1.42-.42,1.82,1.82,0,0,0-1.14.38,2.1,2.1,0,0,0-.72,1.06,7.65,7.65,0,0,0-.32,2.25v6Z"/><path class="cls-4" d="M440.25,638.66A5.85,5.85,0,0,1,442,634a5.29,5.29,0,0,1,3.59-1.27,5.1,5.1,0,0,1,3.84,1.54,5.86,5.86,0,0,1,1.5,4.26,7.39,7.39,0,0,1-.67,3.46,4.6,4.6,0,0,1-1.92,2,5.54,5.54,0,0,1-2.75.7,5.16,5.16,0,0,1-3.88-1.53A6.17,6.17,0,0,1,440.25,638.66Zm2,0a4.83,4.83,0,0,0,1,3.28,3.19,3.19,0,0,0,4.8,0,5,5,0,0,0,1-3.34,4.73,4.73,0,0,0-1-3.21,3,3,0,0,0-2.39-1.09,3.08,3.08,0,0,0-2.41,1.08A4.85,4.85,0,0,0,442.23,638.66Z"/><path class="cls-4" d="M453.2,644.36V633h1.73v1.6a4.12,4.12,0,0,1,1.43-1.35,4,4,0,0,1,2-.51,3.75,3.75,0,0,1,2.08.52,2.86,2.86,0,0,1,1.14,1.48,4.1,4.1,0,0,1,3.53-2,3.46,3.46,0,0,1,2.61.94,4,4,0,0,1,.91,2.89v7.83h-1.92v-7.18a5.41,5.41,0,0,0-.19-1.67,1.6,1.6,0,0,0-.68-.82,2.12,2.12,0,0,0-1.16-.32,2.71,2.71,0,0,0-2,.8,3.55,3.55,0,0,0-.8,2.57v6.62H460V637a3.29,3.29,0,0,0-.47-1.93,1.8,1.8,0,0,0-1.55-.65,2.88,2.88,0,0,0-1.51.43,2.43,2.43,0,0,0-1,1.26,7,7,0,0,0-.31,2.39v5.91Z"/><path class="cls-4" d="M472.07,635.16V633h2.2v2.2Zm0,9.2v-2.2h2.2v2.2Z"/><path class="cls-4" d="M483.18,644.36l3.29-15.74h2.11l-2.92,14h8.18l-.38,1.78Z"/><path class="cls-4" d="M495.49,644.36l3.3-15.74h4.88a13.67,13.67,0,0,1,2,.1,5.06,5.06,0,0,1,1.77.64,3.1,3.1,0,0,1,1.13,1.25,3.9,3.9,0,0,1,.39,1.74,3.84,3.84,0,0,1-.71,2.29,4.46,4.46,0,0,1-2.19,1.51,3.74,3.74,0,0,1,1.91,1.26,3.14,3.14,0,0,1,.64,2,4.58,4.58,0,0,1-.75,2.49,5.15,5.15,0,0,1-2,1.85,5.84,5.84,0,0,1-2.75.64Zm2.49-1.78h3.58a11.45,11.45,0,0,0,1.93-.1,4.28,4.28,0,0,0,1.62-.58,3,3,0,0,0,1-1.09,3.1,3.1,0,0,0,.35-1.42,2.05,2.05,0,0,0-.69-1.68,4.34,4.34,0,0,0-2.64-.58h-4Zm1.51-7.24h3.19a5.68,5.68,0,0,0,3.29-.73,2.47,2.47,0,0,0,1-2.13,2.17,2.17,0,0,0-.31-1.15,1.85,1.85,0,0,0-.84-.7,5.68,5.68,0,0,0-2-.22h-3.35Z"/><path class="cls-4" d="M512.63,630.88l.46-2.2h2.21l-.4,1.93a5.1,5.1,0,0,1-1.13,2.53,2.88,2.88,0,0,1-1.81.93l.18-.85c.85-.23,1.41-1,1.69-2.34Z"/><path class="cls-4" d="M520.25,644.36l3.3-15.74h2.1l-3.29,15.74Z"/><path class="cls-4" d="M526.06,644.36l3.29-15.74h6.58a6.44,6.44,0,0,1,2.56.39,3.18,3.18,0,0,1,1.41,1.34,4.18,4.18,0,0,1,.56,2.13,5.27,5.27,0,0,1-.4,2,5.33,5.33,0,0,1-1,1.67,5,5,0,0,1-1.23,1,5.2,5.2,0,0,1-1.33.5,13.74,13.74,0,0,1-3.06.35h-4l-1.33,6.39Zm3.81-8.17h3.47a7.5,7.5,0,0,0,3-.43,3.56,3.56,0,0,0,1.52-1.33,3.48,3.48,0,0,0,.57-1.89,2.35,2.35,0,0,0-.3-1.26,1.76,1.76,0,0,0-.85-.72,6.12,6.12,0,0,0-2.11-.24h-4Z"/><path class="cls-4" d="M553.5,643a7.73,7.73,0,0,1-1.94,1.27,5,5,0,0,1-2,.4,3.54,3.54,0,0,1-2.55-.93,3.16,3.16,0,0,1-1-2.38,3.27,3.27,0,0,1,.43-1.69,3.45,3.45,0,0,1,1.16-1.18,5,5,0,0,1,1.76-.64,20.87,20.87,0,0,1,2.48-.2,8.76,8.76,0,0,0,2.63-.39,5.08,5.08,0,0,0,.23-1.32,1.26,1.26,0,0,0-.5-1.06,3.1,3.1,0,0,0-2-.54,3.46,3.46,0,0,0-2,.54,3.09,3.09,0,0,0-1.13,1.54l-2-.17a5.19,5.19,0,0,1,1.91-2.6,5.67,5.67,0,0,1,3.29-.9,5.15,5.15,0,0,1,3.35,1,2.38,2.38,0,0,1,.95,1.95,9.83,9.83,0,0,1-.27,2.12l-.63,2.84a10.58,10.58,0,0,0-.3,2.2,7.7,7.7,0,0,0,.23,1.54h-2A6.67,6.67,0,0,1,553.5,643Zm.72-4.36a4.62,4.62,0,0,1-.87.24c-.32.06-.84.12-1.57.18a12,12,0,0,0-2.39.39,2,2,0,0,0-1.06.73,2,2,0,0,0-.35,1.12,1.77,1.77,0,0,0,.56,1.34,2.3,2.3,0,0,0,1.61.53,3.73,3.73,0,0,0,1.86-.51,3.8,3.8,0,0,0,1.41-1.43A8.18,8.18,0,0,0,554.22,638.59Z"/><path class="cls-4" d="M565.74,642.71a4.67,4.67,0,0,1-3.48,1.91,3.47,3.47,0,0,1-2.7-1.2,4.94,4.94,0,0,1-1.08-3.47,8.46,8.46,0,0,1,.85-3.81,6.4,6.4,0,0,1,2.14-2.58,4.59,4.59,0,0,1,2.57-.86,3.44,3.44,0,0,1,3.21,2l1.29-6.13h1.93l-3.28,15.74h-1.8Zm-5.33-3.13a5.84,5.84,0,0,0,.24,1.88,2.43,2.43,0,0,0,.8,1.15,2.13,2.13,0,0,0,1.37.45,3,3,0,0,0,2.39-1.37,7.06,7.06,0,0,0,1.44-4.51,3,3,0,0,0-.71-2.12,2.32,2.32,0,0,0-1.78-.76,2.57,2.57,0,0,0-1.27.31,3.59,3.59,0,0,0-1.14,1.06,7.61,7.61,0,0,0-1.34,3.91Z"/><path class="cls-4" d="M578,642.71a4.67,4.67,0,0,1-3.48,1.91,3.48,3.48,0,0,1-2.7-1.2,5,5,0,0,1-1.08-3.47,8.59,8.59,0,0,1,.85-3.81,6.48,6.48,0,0,1,2.14-2.58,4.65,4.65,0,0,1,2.58-.86,3.46,3.46,0,0,1,3.21,2l1.29-6.13h1.93l-3.29,15.74h-1.79Zm-5.33-3.13a5.84,5.84,0,0,0,.24,1.88,2.53,2.53,0,0,0,.81,1.15,2.12,2.12,0,0,0,1.36.45,3,3,0,0,0,2.4-1.37,7.06,7.06,0,0,0,1.44-4.51,3,3,0,0,0-.71-2.12,2.34,2.34,0,0,0-1.79-.76,2.6,2.6,0,0,0-1.27.31,3.81,3.81,0,0,0-1.14,1.06,7,7,0,0,0-1,1.89A6.43,6.43,0,0,0,572.64,639.58Z"/><path class="cls-4" d="M582.52,644.36,584.9,633h1.72l-.48,2.33a8,8,0,0,1,1.72-2,2.86,2.86,0,0,1,1.72-.63,3.35,3.35,0,0,1,1.43.42l-.79,1.8a1.89,1.89,0,0,0-1.11-.36A3,3,0,0,0,587,635.7a8.62,8.62,0,0,0-1.69,4.09l-1,4.57Z"/><path class="cls-4" d="M598.22,640.49l1.89.19a5.63,5.63,0,0,1-1.87,2.67,5.17,5.17,0,0,1-3.5,1.27,4.77,4.77,0,0,1-2.33-.58,3.87,3.87,0,0,1-1.61-1.71,5.75,5.75,0,0,1-.55-2.54,8.08,8.08,0,0,1,.87-3.63,6.12,6.12,0,0,1,2.24-2.61,5.48,5.48,0,0,1,3-.85,4.29,4.29,0,0,1,3.26,1.27,4.76,4.76,0,0,1,1.22,3.45,10.17,10.17,0,0,1-.15,1.72h-8.4a4.66,4.66,0,0,0,0,.61,3.61,3.61,0,0,0,.73,2.44,2.3,2.3,0,0,0,1.8.84,3.53,3.53,0,0,0,2-.65A4.34,4.34,0,0,0,598.22,640.49Zm-5.65-2.83H599c0-.2,0-.34,0-.43a3.15,3.15,0,0,0-.73-2.24,2.44,2.44,0,0,0-1.88-.78,3.48,3.48,0,0,0-2.27.86A5.26,5.26,0,0,0,592.57,637.66Z"/><path class="cls-4" d="M602.26,640.47l1.94-.12a3.62,3.62,0,0,0,.26,1.43,2,2,0,0,0,.95,1,3.34,3.34,0,0,0,1.62.38,3,3,0,0,0,1.93-.52,1.52,1.52,0,0,0,.65-1.21,1.44,1.44,0,0,0-.39-1,6,6,0,0,0-1.94-1.11,18.19,18.19,0,0,1-2-.93,3.16,3.16,0,0,1-1.08-1,2.54,2.54,0,0,1-.37-1.37,3,3,0,0,1,1.08-2.32,4.28,4.28,0,0,1,3-1,4.77,4.77,0,0,1,3.27,1,3.47,3.47,0,0,1,1.17,2.62l-1.9.13a2.21,2.21,0,0,0-.73-1.64,2.88,2.88,0,0,0-2-.6,2.42,2.42,0,0,0-1.56.46,1.3,1.3,0,0,0-.56,1,1.22,1.22,0,0,0,.48,1,8,8,0,0,0,1.66.86,11.3,11.3,0,0,1,2.82,1.52,2.9,2.9,0,0,1,.92,2.17,3.06,3.06,0,0,1-.52,1.67,3.54,3.54,0,0,1-1.59,1.3,5.93,5.93,0,0,1-2.52.49,5.63,5.63,0,0,1-3.36-1A3.46,3.46,0,0,1,602.26,640.47Z"/><path class="cls-4" d="M613.26,640.47l1.94-.12a3.62,3.62,0,0,0,.26,1.43,2,2,0,0,0,.95,1,3.34,3.34,0,0,0,1.62.38,3,3,0,0,0,1.93-.52,1.52,1.52,0,0,0,.65-1.21,1.44,1.44,0,0,0-.39-1,6,6,0,0,0-1.94-1.11,18.19,18.19,0,0,1-2-.93,3.16,3.16,0,0,1-1.08-1,2.54,2.54,0,0,1-.37-1.37,3,3,0,0,1,1.08-2.32,4.28,4.28,0,0,1,3-1,4.77,4.77,0,0,1,3.27,1,3.47,3.47,0,0,1,1.17,2.62l-1.9.13a2.21,2.21,0,0,0-.73-1.64,2.88,2.88,0,0,0-2-.6,2.42,2.42,0,0,0-1.56.46,1.3,1.3,0,0,0-.56,1,1.22,1.22,0,0,0,.48,1,8,8,0,0,0,1.66.86,11.3,11.3,0,0,1,2.82,1.52,2.9,2.9,0,0,1,.92,2.17,3.06,3.06,0,0,1-.52,1.67,3.54,3.54,0,0,1-1.59,1.3,5.93,5.93,0,0,1-2.52.49,5.63,5.63,0,0,1-3.36-1A3.46,3.46,0,0,1,613.26,640.47Z"/><path class="cls-4" d="M424.46,670.76V656.88h-5.19V655h12.48v1.86h-5.21v13.88Z"/><path class="cls-4" d="M430.48,665.06a5.88,5.88,0,0,1,1.76-4.69,5.31,5.31,0,0,1,3.59-1.27,5.12,5.12,0,0,1,3.85,1.54,5.89,5.89,0,0,1,1.49,4.26,7.52,7.52,0,0,1-.66,3.46,4.6,4.6,0,0,1-1.92,2,5.55,5.55,0,0,1-2.76.7,5.14,5.14,0,0,1-3.87-1.53A6.13,6.13,0,0,1,430.48,665.06Zm2,0a4.83,4.83,0,0,0,1,3.28,3.19,3.19,0,0,0,4.8,0,5,5,0,0,0,.95-3.34,4.73,4.73,0,0,0-1-3.21,3.19,3.19,0,0,0-4.79,0A4.85,4.85,0,0,0,432.47,665.06Z"/><path class="cls-4" d="M444,661.56v-2.2h2.21v2.2Zm0,9.2v-2.2h2.21v2.2Z"/><path class="cls-4" d="M479.39,670.76,482.68,655h1.94l-1.17,5.63a6.83,6.83,0,0,1,1.68-1.2,3.71,3.71,0,0,1,1.57-.35,3.47,3.47,0,0,1,2.67,1.19,5.06,5.06,0,0,1,1.06,3.47,8.43,8.43,0,0,1-.43,2.77,7.57,7.57,0,0,1-1.06,2.11,6.64,6.64,0,0,1-1.31,1.37,5.14,5.14,0,0,1-1.39.76,4,4,0,0,1-1.36.25,3.48,3.48,0,0,1-2-.59,3.9,3.9,0,0,1-1.34-1.82l-.45,2.15Zm2.88-4.68v.37a3.16,3.16,0,0,0,.7,2.22,2.24,2.24,0,0,0,1.74.76,2.88,2.88,0,0,0,1.87-.71,5.07,5.07,0,0,0,1.4-2.23,8.15,8.15,0,0,0,.55-2.79,3.32,3.32,0,0,0-.69-2.24,2.17,2.17,0,0,0-1.71-.79,2.8,2.8,0,0,0-1.94.81,6.08,6.08,0,0,0-1.47,2.5A6.67,6.67,0,0,0,482.27,666.08Z"/><path class="cls-4" d="M499.32,669.35a7.6,7.6,0,0,1-1.95,1.27,5,5,0,0,1-2,.4,3.51,3.51,0,0,1-2.55-.93,3.17,3.17,0,0,1-1-2.38,3.27,3.27,0,0,1,.44-1.69,3.42,3.42,0,0,1,1.15-1.18,5.08,5.08,0,0,1,1.76-.64,21.32,21.32,0,0,1,2.49-.2,8.82,8.82,0,0,0,2.63-.39,5,5,0,0,0,.22-1.32,1.26,1.26,0,0,0-.49-1.06,3.12,3.12,0,0,0-2-.54,3.45,3.45,0,0,0-2,.54,3,3,0,0,0-1.13,1.54l-2-.17a5.13,5.13,0,0,1,1.91-2.6,5.65,5.65,0,0,1,3.29-.9,5.15,5.15,0,0,1,3.35,1,2.38,2.38,0,0,1,1,1.95,9.83,9.83,0,0,1-.27,2.12l-.64,2.84a10.58,10.58,0,0,0-.3,2.2,7.17,7.17,0,0,0,.24,1.54h-2A7.48,7.48,0,0,1,499.32,669.35ZM500,665a5.65,5.65,0,0,1-.88.24c-.31.06-.83.12-1.56.19a11.67,11.67,0,0,0-2.4.38,2,2,0,0,0-1.05.73,1.88,1.88,0,0,0-.35,1.12,1.74,1.74,0,0,0,.56,1.34,2.28,2.28,0,0,0,1.61.53,3.66,3.66,0,0,0,1.85-.51,3.7,3.7,0,0,0,1.41-1.42A8.32,8.32,0,0,0,500,665Z"/><path class="cls-4" d="M511.74,666.61l1.94.2A6.54,6.54,0,0,1,511.6,670a4.9,4.9,0,0,1-3.07,1,4,4,0,0,1-3-1.2,4.64,4.64,0,0,1-1.15-3.36,9.52,9.52,0,0,1,.74-3.68,5.93,5.93,0,0,1,2.12-2.74,5.44,5.44,0,0,1,3.15-.94,4,4,0,0,1,2.91,1,3.65,3.65,0,0,1,1.08,2.75l-1.91.13a2.35,2.35,0,0,0-.63-1.7,2.21,2.21,0,0,0-1.63-.61,3,3,0,0,0-2,.74,4.9,4.9,0,0,0-1.35,2.25,9.65,9.65,0,0,0-.49,2.91,3.24,3.24,0,0,0,.65,2.19,2,2,0,0,0,1.59.73,2.8,2.8,0,0,0,1.81-.72A4.79,4.79,0,0,0,511.74,666.61Z"/><path class="cls-4" d="M514.88,670.76l3.3-15.74h1.93l-2,9.76,5.68-5.42h2.56l-4.86,4.25,2.94,7.15h-2.13L520,664.91l-2.37,2-.79,3.81Z"/><path class="cls-4" d="M534.24,666.89l1.89.19a5.7,5.7,0,0,1-1.87,2.68,5.21,5.21,0,0,1-3.5,1.26,4.77,4.77,0,0,1-2.33-.58,3.87,3.87,0,0,1-1.61-1.71,5.61,5.61,0,0,1-.55-2.54,8.08,8.08,0,0,1,.87-3.63,6.17,6.17,0,0,1,2.23-2.61,5.54,5.54,0,0,1,3-.85,4.29,4.29,0,0,1,3.26,1.27,4.77,4.77,0,0,1,1.22,3.46,10.14,10.14,0,0,1-.15,1.71h-8.4a4.66,4.66,0,0,0,0,.61,3.61,3.61,0,0,0,.73,2.44,2.3,2.3,0,0,0,1.8.84,3.53,3.53,0,0,0,2-.65A4.34,4.34,0,0,0,534.24,666.89Zm-5.65-2.83H535c0-.2,0-.34,0-.43a3.15,3.15,0,0,0-.73-2.24,2.44,2.44,0,0,0-1.88-.78,3.48,3.48,0,0,0-2.27.86A5.26,5.26,0,0,0,528.59,664.06Z"/><path class="cls-4" d="M538.1,670.76l2.38-11.4h1.76l-.42,2a9.27,9.27,0,0,1,2.15-1.7,4.27,4.27,0,0,1,2-.54,3,3,0,0,1,2.18.75,2.63,2.63,0,0,1,.79,2,10.92,10.92,0,0,1-.28,2l-1.45,6.9h-1.94l1.51-7.22a8.61,8.61,0,0,0,.23-1.56,1.22,1.22,0,0,0-.4-.93,1.66,1.66,0,0,0-1.13-.35,3.85,3.85,0,0,0-2.66,1.07,6.83,6.83,0,0,0-1.71,3.69l-1.11,5.3Z"/><path class="cls-4" d="M558,669.11a4.7,4.7,0,0,1-3.48,1.91,3.48,3.48,0,0,1-2.7-1.2,5,5,0,0,1-1.08-3.47,8.46,8.46,0,0,1,.86-3.81,6.46,6.46,0,0,1,2.13-2.58,4.57,4.57,0,0,1,2.58-.86,3.45,3.45,0,0,1,3.21,2l1.29-6.13h1.93l-3.29,15.74h-1.79ZM552.7,666a6.18,6.18,0,0,0,.23,1.88,2.53,2.53,0,0,0,.81,1.15,2.13,2.13,0,0,0,1.36.46,3.06,3.06,0,0,0,2.4-1.38,7.06,7.06,0,0,0,1.44-4.51,3,3,0,0,0-.71-2.12,2.32,2.32,0,0,0-1.78-.76,2.63,2.63,0,0,0-1.28.31,3.81,3.81,0,0,0-1.14,1.06,6.87,6.87,0,0,0-.95,1.9A6.28,6.28,0,0,0,552.7,666Z"/><path class="cls-4" d="M565.25,657.28l.47-2.2h2.21l-.4,1.93a5.1,5.1,0,0,1-1.13,2.53,2.9,2.9,0,0,1-1.81.93l.18-.84c.84-.24,1.41-1,1.69-2.35Z"/><path class="cls-4" d="M567.24,666.87l2-.12a3.62,3.62,0,0,0,.25,1.43,2,2,0,0,0,.95,1,3.37,3.37,0,0,0,1.62.38,3,3,0,0,0,1.93-.52,1.51,1.51,0,0,0,.65-1.21,1.44,1.44,0,0,0-.39-1,6,6,0,0,0-1.94-1.11,19.23,19.23,0,0,1-2-.93,3.16,3.16,0,0,1-1.08-1,2.54,2.54,0,0,1-.37-1.37,3,3,0,0,1,1.08-2.32,4.28,4.28,0,0,1,3-1,4.82,4.82,0,0,1,3.28,1,3.51,3.51,0,0,1,1.16,2.62l-1.9.13a2.21,2.21,0,0,0-.73-1.64,2.88,2.88,0,0,0-2-.6,2.42,2.42,0,0,0-1.56.46,1.3,1.3,0,0,0-.56,1,1.22,1.22,0,0,0,.48,1,8.16,8.16,0,0,0,1.67.86,11.37,11.37,0,0,1,2.81,1.52,2.9,2.9,0,0,1,.92,2.17,3.06,3.06,0,0,1-.52,1.67,3.49,3.49,0,0,1-1.59,1.3,5.93,5.93,0,0,1-2.52.49,5.71,5.71,0,0,1-3.36-1A3.49,3.49,0,0,1,567.24,666.87Z"/><path class="cls-4" d="M584.7,670.76,588,655h2.1l-3.29,15.74Z"/><path class="cls-4" d="M590.5,670.76,593.8,655h6.57a6.44,6.44,0,0,1,2.56.39,3.18,3.18,0,0,1,1.41,1.34,4.06,4.06,0,0,1,.56,2.13,5.46,5.46,0,0,1-.39,2,5.35,5.35,0,0,1-1,1.67,4.68,4.68,0,0,1-1.23,1,5.07,5.07,0,0,1-1.33.5,13.18,13.18,0,0,1-3.06.35h-3.94l-1.34,6.39Zm3.81-8.17h3.47a7.52,7.52,0,0,0,3-.44,3.6,3.6,0,0,0,2.08-3.21,2.41,2.41,0,0,0-.3-1.27,1.75,1.75,0,0,0-.85-.71,6.08,6.08,0,0,0-2.11-.24h-4Z"/><path class="cls-4" d="M617.94,669.35a7.73,7.73,0,0,1-1.94,1.27,5,5,0,0,1-2,.4,3.5,3.5,0,0,1-2.54-.93,3.14,3.14,0,0,1-1-2.38,3.27,3.27,0,0,1,.43-1.69,3.45,3.45,0,0,1,1.16-1.18,5.08,5.08,0,0,1,1.76-.64,21.32,21.32,0,0,1,2.49-.2,8.74,8.74,0,0,0,2.62-.39,5.08,5.08,0,0,0,.23-1.32,1.28,1.28,0,0,0-.49-1.06,3.15,3.15,0,0,0-2-.54,3.4,3.4,0,0,0-2,.54,3.11,3.11,0,0,0-1.14,1.54l-2-.17a5.12,5.12,0,0,1,1.9-2.6,5.68,5.68,0,0,1,3.3-.9,5.17,5.17,0,0,1,3.35,1,2.37,2.37,0,0,1,.94,1.95,9.83,9.83,0,0,1-.27,2.12L620.2,667a10.58,10.58,0,0,0-.3,2.2,7.17,7.17,0,0,0,.24,1.54h-2A7.39,7.39,0,0,1,617.94,669.35Zm.72-4.36a5.52,5.52,0,0,1-.87.24c-.31.06-.83.12-1.56.19a11.54,11.54,0,0,0-2.4.38,2,2,0,0,0-1.05.73,1.89,1.89,0,0,0-.36,1.12A1.75,1.75,0,0,0,613,669a2.25,2.25,0,0,0,1.6.53,3.67,3.67,0,0,0,1.86-.51,3.77,3.77,0,0,0,1.41-1.42A8.34,8.34,0,0,0,618.66,665Z"/><path class="cls-4" d="M630.18,669.11A4.7,4.7,0,0,1,626.7,671a3.48,3.48,0,0,1-2.7-1.2,5,5,0,0,1-1.08-3.47,8.46,8.46,0,0,1,.85-3.81,6.4,6.4,0,0,1,2.14-2.58,4.54,4.54,0,0,1,2.57-.86,3.44,3.44,0,0,1,3.21,2L633,655h1.94l-3.29,15.74h-1.79ZM624.85,666a5.84,5.84,0,0,0,.24,1.88,2.43,2.43,0,0,0,.8,1.15,2.16,2.16,0,0,0,1.37.46,3,3,0,0,0,2.39-1.38,7.06,7.06,0,0,0,1.44-4.51,3,3,0,0,0-.71-2.12,2.31,2.31,0,0,0-1.78-.76,2.57,2.57,0,0,0-1.27.31,3.59,3.59,0,0,0-1.14,1.06,6.61,6.61,0,0,0-1,1.9A6.32,6.32,0,0,0,624.85,666Z"/><path class="cls-4" d="M642.41,669.11a4.7,4.7,0,0,1-3.48,1.91,3.48,3.48,0,0,1-2.7-1.2,5,5,0,0,1-1.08-3.47,8.46,8.46,0,0,1,.86-3.81,6.4,6.4,0,0,1,2.14-2.58,4.52,4.52,0,0,1,2.57-.86,3.44,3.44,0,0,1,3.21,2l1.29-6.13h1.93l-3.29,15.74h-1.79ZM637.09,666a6.18,6.18,0,0,0,.23,1.88,2.53,2.53,0,0,0,.81,1.15,2.13,2.13,0,0,0,1.36.46,3.06,3.06,0,0,0,2.4-1.38,7.06,7.06,0,0,0,1.44-4.51,3,3,0,0,0-.71-2.12,2.32,2.32,0,0,0-1.78-.76,2.63,2.63,0,0,0-1.28.31,3.81,3.81,0,0,0-1.14,1.06,6.87,6.87,0,0,0-.95,1.9A6.57,6.57,0,0,0,637.09,666Z"/><path class="cls-4" d="M647,670.76l2.38-11.4h1.72l-.48,2.33a8.23,8.23,0,0,1,1.72-2,2.86,2.86,0,0,1,1.73-.63,3.42,3.42,0,0,1,1.43.42l-.8,1.8a1.86,1.86,0,0,0-1.11-.36,3,3,0,0,0-2.09,1.14,8.57,8.57,0,0,0-1.69,4.09l-1,4.57Z"/><path class="cls-4" d="M662.66,666.89l1.89.19a5.7,5.7,0,0,1-1.87,2.68,5.19,5.19,0,0,1-3.5,1.26,4.7,4.7,0,0,1-2.32-.58,3.76,3.76,0,0,1-1.61-1.71,5.62,5.62,0,0,1-.56-2.54,8.08,8.08,0,0,1,.87-3.63A6.12,6.12,0,0,1,657.8,660a5.51,5.51,0,0,1,3-.85,4.29,4.29,0,0,1,3.26,1.27,4.73,4.73,0,0,1,1.22,3.46,10.14,10.14,0,0,1-.15,1.71h-8.4a4.66,4.66,0,0,0,0,.61,3.61,3.61,0,0,0,.73,2.44,2.33,2.33,0,0,0,1.8.84,3.51,3.51,0,0,0,2-.65A4.27,4.27,0,0,0,662.66,666.89ZM657,664.06h6.41c0-.2,0-.34,0-.43a3.19,3.19,0,0,0-.73-2.24,2.47,2.47,0,0,0-1.88-.78,3.5,3.5,0,0,0-2.28.86A5.26,5.26,0,0,0,657,664.06Z"/><path class="cls-4" d="M666.7,666.87l1.95-.12a3.62,3.62,0,0,0,.25,1.43,2.07,2.07,0,0,0,1,1,3.33,3.33,0,0,0,1.61.38,3,3,0,0,0,1.94-.52,1.5,1.5,0,0,0,.64-1.21,1.44,1.44,0,0,0-.39-1,6.08,6.08,0,0,0-1.93-1.11,18.7,18.7,0,0,1-2-.93,3.16,3.16,0,0,1-1.08-1,2.63,2.63,0,0,1-.37-1.37,3,3,0,0,1,1.08-2.32,4.31,4.31,0,0,1,3-1,4.81,4.81,0,0,1,3.27,1,3.51,3.51,0,0,1,1.16,2.62l-1.9.13a2.21,2.21,0,0,0-.73-1.64,2.87,2.87,0,0,0-1.94-.6,2.43,2.43,0,0,0-1.57.46,1.33,1.33,0,0,0-.56,1,1.22,1.22,0,0,0,.48,1,8.16,8.16,0,0,0,1.67.86,11,11,0,0,1,2.81,1.52,2.91,2.91,0,0,1,.93,2.17,3.14,3.14,0,0,1-.52,1.67,3.6,3.6,0,0,1-1.59,1.3,6,6,0,0,1-2.52.49,5.72,5.72,0,0,1-3.37-1A3.49,3.49,0,0,1,666.7,666.87Z"/><path class="cls-4" d="M677.7,666.87l1.95-.12a3.62,3.62,0,0,0,.25,1.43,2.07,2.07,0,0,0,1,1,3.33,3.33,0,0,0,1.61.38,3,3,0,0,0,1.94-.52,1.5,1.5,0,0,0,.64-1.21,1.44,1.44,0,0,0-.39-1,6.08,6.08,0,0,0-1.93-1.11,18.7,18.7,0,0,1-2-.93,3.16,3.16,0,0,1-1.08-1,2.63,2.63,0,0,1-.37-1.37,3,3,0,0,1,1.08-2.32,4.31,4.31,0,0,1,3-1,4.81,4.81,0,0,1,3.27,1,3.51,3.51,0,0,1,1.16,2.62l-1.9.13a2.21,2.21,0,0,0-.73-1.64,2.87,2.87,0,0,0-1.94-.6,2.43,2.43,0,0,0-1.57.46,1.33,1.33,0,0,0-.56,1,1.22,1.22,0,0,0,.48,1,8.16,8.16,0,0,0,1.67.86,11,11,0,0,1,2.81,1.52,2.91,2.91,0,0,1,.93,2.17,3.14,3.14,0,0,1-.52,1.67,3.6,3.6,0,0,1-1.59,1.3,6,6,0,0,1-2.52.49,5.72,5.72,0,0,1-3.37-1A3.49,3.49,0,0,1,677.7,666.87Z"/><path class="cls-4" d="M422.36,724.47V708.72H433v1.86h-8.54v4.88h7.4v1.85h-7.4v7.16Z"/><path class="cls-4" d="M435.42,724.47V713.06h1.74v1.73a4.89,4.89,0,0,1,1.23-1.6,2.14,2.14,0,0,1,1.24-.39,3.72,3.72,0,0,1,2,.63l-.66,1.79a2.8,2.8,0,0,0-1.42-.42,1.86,1.86,0,0,0-1.14.38,2.06,2.06,0,0,0-.72,1.06,7.39,7.39,0,0,0-.32,2.26v6Z"/><path class="cls-4" d="M442.05,718.76a5.89,5.89,0,0,1,1.76-4.69,5.34,5.34,0,0,1,3.59-1.27,5.16,5.16,0,0,1,3.85,1.54,5.89,5.89,0,0,1,1.49,4.26,7.57,7.57,0,0,1-.66,3.47,4.71,4.71,0,0,1-1.92,2,5.69,5.69,0,0,1-2.76.7,5.09,5.09,0,0,1-3.87-1.54A6.11,6.11,0,0,1,442.05,718.76Zm2,0a4.91,4.91,0,0,0,.95,3.29,3.19,3.19,0,0,0,4.81,0,5,5,0,0,0,.95-3.34,4.73,4.73,0,0,0-1-3.21,3.19,3.19,0,0,0-4.8,0A4.85,4.85,0,0,0,444,718.76Z"/><path class="cls-4" d="M455,724.47V713.06h1.73v1.6a4,4,0,0,1,1.42-1.35,4.05,4.05,0,0,1,2-.51,3.75,3.75,0,0,1,2.08.53,2.81,2.81,0,0,1,1.15,1.47,4.09,4.09,0,0,1,3.52-2,3.5,3.5,0,0,1,2.61.94,4,4,0,0,1,.91,2.9v7.83h-1.92v-7.19a5.15,5.15,0,0,0-.19-1.67,1.59,1.59,0,0,0-.68-.82,2.1,2.1,0,0,0-1.16-.31,2.72,2.72,0,0,0-2,.8,3.52,3.52,0,0,0-.79,2.56v6.63h-1.94v-7.41a3.25,3.25,0,0,0-.47-1.94,1.78,1.78,0,0,0-1.55-.64,2.75,2.75,0,0,0-1.5.43,2.41,2.41,0,0,0-1,1.26,7,7,0,0,0-.31,2.38v5.92Z"/><path class="cls-4" d="M473.87,715.26v-2.2h2.2v2.2Zm0,9.21v-2.2h2.2v2.2Z"/><path class="cls-4" d="M492.71,720.31l2,.21a6.55,6.55,0,0,1-2.08,3.17,4.91,4.91,0,0,1-3.07,1,4,4,0,0,1-3-1.21,4.65,4.65,0,0,1-1.16-3.36,9.66,9.66,0,0,1,.74-3.67,6,6,0,0,1,2.12-2.75,5.57,5.57,0,0,1,3.16-.94,4,4,0,0,1,2.91,1,3.66,3.66,0,0,1,1.07,2.74l-1.91.13a2.31,2.31,0,0,0-.63-1.69,2.2,2.2,0,0,0-1.63-.62,3,3,0,0,0-2,.74,4.9,4.9,0,0,0-1.34,2.26,9.24,9.24,0,0,0-.49,2.9,3.2,3.2,0,0,0,.64,2.19,2,2,0,0,0,1.59.73,2.78,2.78,0,0,0,1.81-.72A4.71,4.71,0,0,0,492.71,720.31Z"/><path class="cls-4" d="M495.69,724.47,499,708.72h1.95l-3.29,15.75Z"/><path class="cls-4" d="M500.65,724.47,503,713.06h2l-2.39,11.41Zm2.84-13.55.46-2.2h1.93l-.46,2.2Z"/><path class="cls-4" d="M514,720.59l1.89.19a5.7,5.7,0,0,1-1.87,2.68,5.22,5.22,0,0,1-3.5,1.27,4.77,4.77,0,0,1-2.33-.59,3.89,3.89,0,0,1-1.61-1.7,5.79,5.79,0,0,1-.55-2.55,8.07,8.07,0,0,1,.87-3.62,6.12,6.12,0,0,1,2.24-2.61,5.49,5.49,0,0,1,3-.86,4.33,4.33,0,0,1,3.26,1.27,4.81,4.81,0,0,1,1.22,3.46,10.26,10.26,0,0,1-.15,1.72H508a4.41,4.41,0,0,0,0,.6,3.59,3.59,0,0,0,.73,2.44,2.28,2.28,0,0,0,1.8.85,3.47,3.47,0,0,0,2-.66A4.23,4.23,0,0,0,514,720.59Zm-5.65-2.82h6.4c0-.2,0-.35,0-.43a3.13,3.13,0,0,0-.73-2.24,2.44,2.44,0,0,0-1.88-.78,3.43,3.43,0,0,0-2.27.86A5.17,5.17,0,0,0,508.34,717.77Z"/><path class="cls-4" d="M517.85,724.47l2.38-11.41H522l-.41,2a9.38,9.38,0,0,1,2.14-1.71,4.27,4.27,0,0,1,2-.54,3,3,0,0,1,2.18.75,2.66,2.66,0,0,1,.79,2,10.81,10.81,0,0,1-.28,2L527,724.47h-1.94l1.51-7.23a8.38,8.38,0,0,0,.23-1.56,1.15,1.15,0,0,0-.4-.92,1.61,1.61,0,0,0-1.13-.36,3.82,3.82,0,0,0-2.66,1.08,6.83,6.83,0,0,0-1.71,3.68l-1.11,5.31Z"/><path class="cls-4" d="M534.63,722.89l-.33,1.59a5.34,5.34,0,0,1-1.35.18,2.82,2.82,0,0,1-1.85-.57,1.43,1.43,0,0,1-.51-1.17,11.24,11.24,0,0,1,.28-1.73l1.38-6.63h-1.53l.31-1.5h1.53l.6-2.8,2.22-1.35-.87,4.15h1.91l-.32,1.5h-1.9l-1.32,6.31a10.88,10.88,0,0,0-.25,1.44.69.69,0,0,0,.2.53,1,1,0,0,0,.65.18A4.49,4.49,0,0,0,534.63,722.89Z"/><path class="cls-4" d="M538.88,711l.46-2.2h2.22l-.4,1.93a5.14,5.14,0,0,1-1.13,2.53,3,3,0,0,1-1.81.93l.18-.85q1.26-.36,1.68-2.34Z"/><path class="cls-4" d="M540.87,720.57l1.94-.12a3.58,3.58,0,0,0,.26,1.43,2.06,2.06,0,0,0,.95,1,3.34,3.34,0,0,0,1.62.37,3.07,3.07,0,0,0,1.93-.51,1.54,1.54,0,0,0,.65-1.22,1.44,1.44,0,0,0-.39-1,6.17,6.17,0,0,0-1.94-1.11,18.19,18.19,0,0,1-2-.93,3.31,3.31,0,0,1-1.09-1,2.59,2.59,0,0,1-.36-1.37,3,3,0,0,1,1.07-2.32,4.37,4.37,0,0,1,3-1,4.76,4.76,0,0,1,3.27,1,3.44,3.44,0,0,1,1.17,2.61l-1.9.13a2.21,2.21,0,0,0-.73-1.63,2.88,2.88,0,0,0-2-.6,2.41,2.41,0,0,0-1.57.46,1.32,1.32,0,0,0-.56,1,1.21,1.21,0,0,0,.49.94,7.5,7.5,0,0,0,1.66.86,11.57,11.57,0,0,1,2.82,1.53,2.92,2.92,0,0,1,.92,2.17,3,3,0,0,1-.52,1.66,3.61,3.61,0,0,1-1.59,1.31,6.09,6.09,0,0,1-2.52.49,5.68,5.68,0,0,1-3.36-1A3.47,3.47,0,0,1,540.87,720.57Z"/><path class="cls-4" d="M558.32,724.47l3.3-15.75h2.1l-3.29,15.75Z"/><path class="cls-4" d="M564.13,724.47l3.29-15.75H574a6.44,6.44,0,0,1,2.56.39,3.2,3.2,0,0,1,1.41,1.35,4.13,4.13,0,0,1,.56,2.13,5.35,5.35,0,0,1-.4,2,5.28,5.28,0,0,1-1,1.66,4.86,4.86,0,0,1-1.23,1,5.18,5.18,0,0,1-1.33.49,13.19,13.19,0,0,1-3.06.36h-4l-1.33,6.39Zm3.81-8.18h3.47a7.5,7.5,0,0,0,3-.43,3.49,3.49,0,0,0,1.52-1.33,3.43,3.43,0,0,0,.57-1.89,2.4,2.4,0,0,0-.3-1.26,1.76,1.76,0,0,0-.85-.72,6.46,6.46,0,0,0-2.11-.23h-4Z"/><path class="cls-4" d="M591.57,723.05a7.47,7.47,0,0,1-1.94,1.27,5,5,0,0,1-2,.41,3.54,3.54,0,0,1-2.55-.93,3.18,3.18,0,0,1-1-2.38,3.24,3.24,0,0,1,.43-1.69,3.36,3.36,0,0,1,1.16-1.18,4.81,4.81,0,0,1,1.76-.64,18.33,18.33,0,0,1,2.48-.21,8.76,8.76,0,0,0,2.63-.39,5,5,0,0,0,.23-1.32,1.28,1.28,0,0,0-.5-1.06,3.1,3.1,0,0,0-2-.54,3.39,3.39,0,0,0-2,.55,3,3,0,0,0-1.13,1.54l-2-.18a5.11,5.11,0,0,1,1.91-2.59,5.6,5.6,0,0,1,3.29-.91,5.15,5.15,0,0,1,3.35,1,2.4,2.4,0,0,1,1,2,9.74,9.74,0,0,1-.27,2.11l-.63,2.84a10.66,10.66,0,0,0-.3,2.2,7.78,7.78,0,0,0,.23,1.55h-2A6.78,6.78,0,0,1,591.57,723.05Zm.72-4.36a4.63,4.63,0,0,1-.87.25c-.32,0-.84.11-1.57.18a12.14,12.14,0,0,0-2.39.38,2,2,0,0,0-1.06.74,1.92,1.92,0,0,0-.35,1.11,1.78,1.78,0,0,0,.56,1.35,2.29,2.29,0,0,0,1.61.52,3.73,3.73,0,0,0,1.86-.51,3.77,3.77,0,0,0,1.41-1.42A8.34,8.34,0,0,0,592.29,718.69Z"/><path class="cls-4" d="M603.81,722.81a4.68,4.68,0,0,1-3.48,1.92,3.47,3.47,0,0,1-2.7-1.2,5,5,0,0,1-1.08-3.48,8.44,8.44,0,0,1,.85-3.8,6.5,6.5,0,0,1,2.14-2.59,4.59,4.59,0,0,1,2.57-.86,3.46,3.46,0,0,1,3.21,2.05l1.29-6.13h1.93l-3.28,15.75h-1.8Zm-5.33-3.12a5.92,5.92,0,0,0,.24,1.88,2.36,2.36,0,0,0,.8,1.14,2.07,2.07,0,0,0,1.36.46,3,3,0,0,0,2.4-1.38,7,7,0,0,0,1.44-4.51,3,3,0,0,0-.71-2.11,2.33,2.33,0,0,0-1.78-.77,2.58,2.58,0,0,0-1.27.32,3.55,3.55,0,0,0-1.14,1,6.36,6.36,0,0,0-1,1.9A6.43,6.43,0,0,0,598.48,719.69Z"/><path class="cls-4" d="M616,722.81a4.68,4.68,0,0,1-3.48,1.92,3.48,3.48,0,0,1-2.7-1.2,5,5,0,0,1-1.08-3.48,8.58,8.58,0,0,1,.85-3.8,6.59,6.59,0,0,1,2.14-2.59,4.64,4.64,0,0,1,2.57-.86,3.48,3.48,0,0,1,3.22,2.05l1.29-6.13h1.93l-3.29,15.75H615.7Zm-5.33-3.12a5.92,5.92,0,0,0,.24,1.88,2.45,2.45,0,0,0,.81,1.14,2.07,2.07,0,0,0,1.36.46,3.06,3.06,0,0,0,2.4-1.38,7,7,0,0,0,1.44-4.51,3,3,0,0,0-.71-2.11,2.35,2.35,0,0,0-1.79-.77,2.6,2.6,0,0,0-1.27.32,3.76,3.76,0,0,0-1.14,1,6.61,6.61,0,0,0-.95,1.9A6.43,6.43,0,0,0,610.71,719.69Z"/><path class="cls-4" d="M620.59,724.47,623,713.06h1.72l-.48,2.33a7.76,7.76,0,0,1,1.72-1.95,2.81,2.81,0,0,1,1.72-.64,3.35,3.35,0,0,1,1.43.42l-.79,1.81a1.83,1.83,0,0,0-1.11-.37,3,3,0,0,0-2.09,1.14,8.62,8.62,0,0,0-1.69,4.09l-1,4.58Z"/><path class="cls-4" d="M636.29,720.59l1.89.19a5.7,5.7,0,0,1-1.87,2.68,5.22,5.22,0,0,1-3.5,1.27,4.77,4.77,0,0,1-2.33-.59,3.89,3.89,0,0,1-1.61-1.7,5.79,5.79,0,0,1-.55-2.55,8.07,8.07,0,0,1,.87-3.62,6.17,6.17,0,0,1,2.23-2.61,5.55,5.55,0,0,1,3-.86,4.33,4.33,0,0,1,3.26,1.27,4.81,4.81,0,0,1,1.22,3.46,10.26,10.26,0,0,1-.15,1.72h-8.4a4.41,4.41,0,0,0,0,.6,3.59,3.59,0,0,0,.73,2.44,2.28,2.28,0,0,0,1.8.85,3.47,3.47,0,0,0,2-.66A4.23,4.23,0,0,0,636.29,720.59Zm-5.65-2.82H637c0-.2,0-.35,0-.43a3.13,3.13,0,0,0-.73-2.24,2.44,2.44,0,0,0-1.88-.78,3.43,3.43,0,0,0-2.27.86A5.17,5.17,0,0,0,630.64,717.77Z"/><path class="cls-4" d="M640.33,720.57l1.94-.12a3.58,3.58,0,0,0,.26,1.43,2.06,2.06,0,0,0,1,1,3.34,3.34,0,0,0,1.62.37,3.07,3.07,0,0,0,1.93-.51,1.54,1.54,0,0,0,.65-1.22,1.44,1.44,0,0,0-.39-1,6,6,0,0,0-1.94-1.11,18.19,18.19,0,0,1-2-.93,3.18,3.18,0,0,1-1.08-1,2.51,2.51,0,0,1-.37-1.37,3,3,0,0,1,1.08-2.32,4.33,4.33,0,0,1,3-1,4.72,4.72,0,0,1,3.27,1,3.44,3.44,0,0,1,1.17,2.61l-1.9.13a2.17,2.17,0,0,0-.73-1.63,2.88,2.88,0,0,0-2-.6,2.41,2.41,0,0,0-1.57.46,1.3,1.3,0,0,0-.55,1,1.2,1.2,0,0,0,.48.94,7.5,7.5,0,0,0,1.66.86,11.57,11.57,0,0,1,2.82,1.53,2.88,2.88,0,0,1,.92,2.17,3,3,0,0,1-.52,1.66,3.61,3.61,0,0,1-1.59,1.31,6.09,6.09,0,0,1-2.52.49,5.7,5.7,0,0,1-3.36-1A3.47,3.47,0,0,1,640.33,720.57Z"/><path class="cls-4" d="M651.33,720.57l1.94-.12a3.58,3.58,0,0,0,.26,1.43,2.06,2.06,0,0,0,1,1,3.34,3.34,0,0,0,1.62.37,3.07,3.07,0,0,0,1.93-.51,1.54,1.54,0,0,0,.65-1.22,1.44,1.44,0,0,0-.39-1,6,6,0,0,0-1.94-1.11,18.19,18.19,0,0,1-2-.93,3.18,3.18,0,0,1-1.08-1,2.51,2.51,0,0,1-.37-1.37,3,3,0,0,1,1.08-2.32,4.33,4.33,0,0,1,3-1,4.72,4.72,0,0,1,3.27,1,3.44,3.44,0,0,1,1.17,2.61l-1.9.13a2.17,2.17,0,0,0-.73-1.63,2.88,2.88,0,0,0-2-.6,2.41,2.41,0,0,0-1.57.46,1.3,1.3,0,0,0-.55,1,1.2,1.2,0,0,0,.48.94,7.5,7.5,0,0,0,1.66.86,11.57,11.57,0,0,1,2.82,1.53,2.88,2.88,0,0,1,.92,2.17,3,3,0,0,1-.52,1.66,3.61,3.61,0,0,1-1.59,1.31,6.09,6.09,0,0,1-2.52.49,5.7,5.7,0,0,1-3.36-1A3.47,3.47,0,0,1,651.33,720.57Z"/><path class="cls-4" d="M426.26,750.87V737h-5.19v-1.86h12.48V737h-5.21v13.89Z"/><path class="cls-4" d="M432.29,745.17a5.87,5.87,0,0,1,1.76-4.7,5.32,5.32,0,0,1,3.59-1.27,5.14,5.14,0,0,1,3.84,1.54A5.85,5.85,0,0,1,443,745a7.44,7.44,0,0,1-.66,3.47,4.71,4.71,0,0,1-1.92,2,5.65,5.65,0,0,1-2.75.7,5.13,5.13,0,0,1-3.88-1.54A6.14,6.14,0,0,1,432.29,745.17Zm2,0a4.85,4.85,0,0,0,1,3.28,3.09,3.09,0,0,0,2.41,1.09,3,3,0,0,0,2.39-1.1,5,5,0,0,0,1-3.34,4.73,4.73,0,0,0-1-3.21,3.19,3.19,0,0,0-4.8,0A4.81,4.81,0,0,0,434.27,745.17Z"/><path class="cls-4" d="M445.78,741.66v-2.2H448v2.2Zm0,9.21v-2.2H448v2.2Z"/><path class="cls-4" d="M486.22,750.87l-3-15.75h2l1.83,9.39c.34,1.7.55,3.08.66,4.12.65-1.34,1.19-2.41,1.62-3.2L495,735.12h2.17l-8.64,15.75Z"/><path class="cls-4" d="M496.4,750.87l3.29-15.75h2.1l-3.29,15.75Z"/><path class="cls-4" d="M502.2,750.87l3.29-15.75h6.58a6.44,6.44,0,0,1,2.56.39,3.15,3.15,0,0,1,1.41,1.35,4,4,0,0,1,.56,2.13,5.35,5.35,0,0,1-.4,2,5.28,5.28,0,0,1-1,1.66,4.69,4.69,0,0,1-1.23,1,5.18,5.18,0,0,1-1.33.49,13.19,13.19,0,0,1-3.06.36h-3.95l-1.33,6.39Zm3.81-8.18h3.47a7.5,7.5,0,0,0,3-.43,3.49,3.49,0,0,0,1.52-1.33,3.43,3.43,0,0,0,.57-1.89,2.4,2.4,0,0,0-.3-1.26,1.76,1.76,0,0,0-.85-.72,6.46,6.46,0,0,0-2.11-.23h-4Z"/><path class="cls-4" d="M529.64,749.45a7.47,7.47,0,0,1-1.94,1.27,5,5,0,0,1-2,.41,3.54,3.54,0,0,1-2.55-.93,3.16,3.16,0,0,1-1-2.38,3.24,3.24,0,0,1,.43-1.69,3.48,3.48,0,0,1,1.16-1.19,5,5,0,0,1,1.76-.63,18.53,18.53,0,0,1,2.49-.21,9.16,9.16,0,0,0,2.62-.38,5.21,5.21,0,0,0,.23-1.33,1.28,1.28,0,0,0-.5-1.06,3.1,3.1,0,0,0-2-.54,3.39,3.39,0,0,0-2,.55,3,3,0,0,0-1.13,1.54l-2-.17a5.15,5.15,0,0,1,1.91-2.6,5.6,5.6,0,0,1,3.29-.91,5.18,5.18,0,0,1,3.36,1,2.39,2.39,0,0,1,.94,2,9.74,9.74,0,0,1-.27,2.11l-.63,2.84a10.66,10.66,0,0,0-.3,2.2,7.78,7.78,0,0,0,.23,1.55h-2A7.51,7.51,0,0,1,529.64,749.45Zm.72-4.36a4.63,4.63,0,0,1-.87.25c-.31,0-.84.12-1.57.18a12.14,12.14,0,0,0-2.39.38,1.92,1.92,0,0,0-1,.74,1.86,1.86,0,0,0-.36,1.11,1.75,1.75,0,0,0,.57,1.35,2.25,2.25,0,0,0,1.6.52,3.7,3.7,0,0,0,1.86-.51,3.77,3.77,0,0,0,1.41-1.42A8.34,8.34,0,0,0,530.36,745.09Z"/><path class="cls-4" d="M541.88,749.22a4.7,4.7,0,0,1-3.48,1.91,3.48,3.48,0,0,1-2.7-1.2,5,5,0,0,1-1.08-3.48,8.41,8.41,0,0,1,.85-3.8,6.5,6.5,0,0,1,2.14-2.59,4.59,4.59,0,0,1,2.57-.86,3.45,3.45,0,0,1,3.21,2.06l1.29-6.14h1.94l-3.29,15.75h-1.8Zm-5.33-3.13a5.92,5.92,0,0,0,.24,1.88,2.36,2.36,0,0,0,.8,1.14,2.1,2.1,0,0,0,1.37.46,3,3,0,0,0,2.39-1.38,7,7,0,0,0,1.44-4.51,3,3,0,0,0-.71-2.11,2.33,2.33,0,0,0-1.78-.77,2.58,2.58,0,0,0-1.27.32,3.55,3.55,0,0,0-1.14,1,6.36,6.36,0,0,0-.95,1.9A6.43,6.43,0,0,0,536.55,746.09Z"/><path class="cls-4" d="M554.11,749.22a4.7,4.7,0,0,1-3.48,1.91,3.48,3.48,0,0,1-2.7-1.2,5,5,0,0,1-1.08-3.48,8.42,8.42,0,0,1,.86-3.8,6.57,6.57,0,0,1,2.13-2.59,4.65,4.65,0,0,1,2.58-.86,3.47,3.47,0,0,1,3.21,2.06l1.29-6.14h1.93l-3.29,15.75h-1.79Zm-5.32-3.13A6,6,0,0,0,549,748a2.45,2.45,0,0,0,.81,1.14,2.07,2.07,0,0,0,1.36.46,3.06,3.06,0,0,0,2.4-1.38,7,7,0,0,0,1.44-4.51,3,3,0,0,0-.71-2.11,2.35,2.35,0,0,0-1.79-.77,2.6,2.6,0,0,0-1.27.32,3.76,3.76,0,0,0-1.14,1,6.87,6.87,0,0,0-1,1.9A6.38,6.38,0,0,0,548.79,746.09Z"/><path class="cls-4" d="M558.66,750.87,561,739.46h1.72l-.48,2.33a7.76,7.76,0,0,1,1.72-1.95,2.81,2.81,0,0,1,1.73-.64,3.35,3.35,0,0,1,1.42.42l-.79,1.81a1.83,1.83,0,0,0-1.11-.37,3,3,0,0,0-2.09,1.14,8.62,8.62,0,0,0-1.69,4.09l-1,4.58Z"/><path class="cls-4" d="M574.36,747l1.89.19a5.7,5.7,0,0,1-1.87,2.68,5.2,5.2,0,0,1-3.5,1.27,4.71,4.71,0,0,1-2.32-.59,3.86,3.86,0,0,1-1.62-1.7,5.79,5.79,0,0,1-.55-2.55,8.07,8.07,0,0,1,.87-3.62,6.12,6.12,0,0,1,2.24-2.61,5.49,5.49,0,0,1,3-.86,4.33,4.33,0,0,1,3.26,1.27,4.76,4.76,0,0,1,1.22,3.46,10.26,10.26,0,0,1-.15,1.72h-8.4a4.41,4.41,0,0,0,0,.6,3.59,3.59,0,0,0,.73,2.44,2.28,2.28,0,0,0,1.8.85,3.47,3.47,0,0,0,2-.66A4.28,4.28,0,0,0,574.36,747Zm-5.65-2.82h6.4c0-.2,0-.35,0-.43a3.13,3.13,0,0,0-.74-2.24,2.44,2.44,0,0,0-1.88-.78,3.43,3.43,0,0,0-2.27.86A5.17,5.17,0,0,0,568.71,744.17Z"/><path class="cls-4" d="M578.4,747l2-.12a3.59,3.59,0,0,0,.25,1.43,2.11,2.11,0,0,0,.95,1,3.37,3.37,0,0,0,1.62.37,3.07,3.07,0,0,0,1.93-.51,1.54,1.54,0,0,0,.65-1.22,1.44,1.44,0,0,0-.39-.95,6,6,0,0,0-1.94-1.11c-1-.45-1.68-.75-2-.93a3.18,3.18,0,0,1-1.08-1,2.51,2.51,0,0,1-.37-1.37,3,3,0,0,1,1.08-2.32,4.35,4.35,0,0,1,3-1,4.77,4.77,0,0,1,3.28,1,3.47,3.47,0,0,1,1.16,2.61l-1.9.13a2.17,2.17,0,0,0-.73-1.63,2.88,2.88,0,0,0-1.95-.6,2.36,2.36,0,0,0-1.56.46,1.29,1.29,0,0,0-.56,1,1.2,1.2,0,0,0,.48.94A7.66,7.66,0,0,0,584,744a11.43,11.43,0,0,1,2.81,1.53,2.88,2.88,0,0,1,.92,2.17,3,3,0,0,1-.52,1.66,3.51,3.51,0,0,1-1.59,1.31,6.09,6.09,0,0,1-2.52.49,5.72,5.72,0,0,1-3.36-1A3.47,3.47,0,0,1,578.4,747Z"/><path class="cls-4" d="M589.4,747l2-.12a3.59,3.59,0,0,0,.25,1.43,2.11,2.11,0,0,0,.95,1,3.37,3.37,0,0,0,1.62.37,3.07,3.07,0,0,0,1.93-.51,1.54,1.54,0,0,0,.65-1.22,1.44,1.44,0,0,0-.39-.95,6,6,0,0,0-1.94-1.11c-1-.45-1.68-.75-2-.93a3.18,3.18,0,0,1-1.08-1,2.51,2.51,0,0,1-.37-1.37,3,3,0,0,1,1.08-2.32,4.35,4.35,0,0,1,3-1,4.77,4.77,0,0,1,3.28,1,3.47,3.47,0,0,1,1.16,2.61l-1.9.13a2.17,2.17,0,0,0-.73-1.63,2.88,2.88,0,0,0-1.95-.6,2.36,2.36,0,0,0-1.56.46,1.29,1.29,0,0,0-.56,1,1.2,1.2,0,0,0,.48.94A7.66,7.66,0,0,0,595,744a11.43,11.43,0,0,1,2.81,1.53,2.88,2.88,0,0,1,.92,2.17,3,3,0,0,1-.52,1.66,3.51,3.51,0,0,1-1.59,1.31,6.09,6.09,0,0,1-2.52.49,5.72,5.72,0,0,1-3.36-1A3.47,3.47,0,0,1,589.4,747Z"/></svg>