<svg id="Layer_1" data-name="Layer 1" xmlns="http://www.w3.org/2000/svg" viewBox="0 0 783.85 959.63"><defs><style>.cls-1,.cls-5{fill:none;stroke-width:20px;}.cls-1{stroke:#047db6;}.cls-1,.cls-2,.cls-4,.cls-5,.cls-6{stroke-miterlimit:10;}.cls-2,.cls-4{fill:#fff;}.cls-2{stroke:#71b371;stroke-width:10px;}.cls-3{fill:#231f20;}.cls-4{stroke:#e21d40;stroke-width:5px;}.cls-5,.cls-6{stroke:#e11e41;}.cls-6{fill:#e11e41;}</style></defs><line class="cls-1" x1="200.96" y1="704.24" x2="200.96" y2="583.18"/><line class="cls-1" x1="200.96" y1="370.75" x2="200.96" y2="249.69"/><rect class="cls-2" x="37.58" y="370.75" width="319.88" height="212.42"/><path class="cls-3" d="M139.33,463.9V423.82h5.3v35.35h19.74v4.73Z"/><path class="cls-3" d="M168.23,449.38q0-8.06,4.48-11.95a13.54,13.54,0,0,1,9.14-3.22,13,13,0,0,1,9.79,3.92q3.8,3.93,3.8,10.84a19.22,19.22,0,0,1-1.68,8.82,12,12,0,0,1-4.9,5,14.19,14.19,0,0,1-7,1.78,13,13,0,0,1-9.86-3.91Q168.22,456.74,168.23,449.38Zm5.06,0q0,5.58,2.43,8.36a8.12,8.12,0,0,0,12.23,0q2.43-2.79,2.43-8.5,0-5.39-2.45-8.16a8.11,8.11,0,0,0-12.21,0Q173.29,443.8,173.29,449.38Z"/><path class="cls-3" d="M220.16,460.32a18.42,18.42,0,0,1-5.27,3.28,15.13,15.13,0,0,1-5.43,1q-4.78,0-7.35-2.34a7.73,7.73,0,0,1-2.57-6,8.1,8.1,0,0,1,3.51-6.73,11.9,11.9,0,0,1,3.54-1.61,33.25,33.25,0,0,1,4.38-.74,45.23,45.23,0,0,0,8.78-1.7c0-.67,0-1.1,0-1.28,0-2-.46-3.42-1.39-4.24a8.26,8.26,0,0,0-5.61-1.67,8.68,8.68,0,0,0-5.12,1.22,7.38,7.38,0,0,0-2.45,4.3l-4.81-.65a11.7,11.7,0,0,1,2.16-5,9.49,9.49,0,0,1,4.34-2.93,19.53,19.53,0,0,1,6.59-1,17.58,17.58,0,0,1,6.05.87,8,8,0,0,1,3.41,2.2,7.87,7.87,0,0,1,1.54,3.35,28.41,28.41,0,0,1,.24,4.54v6.56a69.34,69.34,0,0,0,.32,8.69,10.92,10.92,0,0,0,1.24,3.48h-5.14A10.28,10.28,0,0,1,220.16,460.32Zm-.41-11a36.14,36.14,0,0,1-8,1.86,18.82,18.82,0,0,0-4.3,1,4.34,4.34,0,0,0-1.94,1.6,4.24,4.24,0,0,0-.68,2.34,4.2,4.2,0,0,0,1.49,3.28,6.38,6.38,0,0,0,4.36,1.31,10.15,10.15,0,0,0,5.06-1.24,7.64,7.64,0,0,0,3.25-3.41,11.83,11.83,0,0,0,.8-4.92Z"/><path class="cls-3" d="M251.19,463.9v-3.66a9,9,0,0,1-8.12,4.32,11.33,11.33,0,0,1-6.38-1.92,12.5,12.5,0,0,1-4.52-5.34,18.59,18.59,0,0,1-1.6-7.89,20.76,20.76,0,0,1,1.45-7.89,11.49,11.49,0,0,1,4.35-5.43,11.67,11.67,0,0,1,6.48-1.88,9.62,9.62,0,0,1,8,4V423.82h4.9V463.9Zm-15.56-14.49c0,3.72.79,6.5,2.35,8.34a7.1,7.1,0,0,0,5.55,2.76,7,7,0,0,0,5.49-2.64q2.25-2.64,2.25-8.05,0-6-2.29-8.75a7.08,7.08,0,0,0-5.66-2.79,6.82,6.82,0,0,0-5.49,2.68C236.37,442.75,235.63,445.56,235.63,449.41Z"/><path class="cls-3" d="M91.11,531.1V491h15a18.66,18.66,0,0,1,7.37,1.21,9.45,9.45,0,0,1,4.34,3.75,9.88,9.88,0,0,1,1.58,5.29,9.09,9.09,0,0,1-1.4,4.84,10,10,0,0,1-4.21,3.66,10.55,10.55,0,0,1,5.59,3.64,9.7,9.7,0,0,1,2,6.07,11.78,11.78,0,0,1-1.19,5.24,10.34,10.34,0,0,1-2.94,3.73,12.26,12.26,0,0,1-4.39,2,26.57,26.57,0,0,1-6.47.67Zm5.3-23.24h8.67a19.4,19.4,0,0,0,5.06-.46,5.7,5.7,0,0,0,3-2,5.78,5.78,0,0,0,1-3.5,6.5,6.5,0,0,0-.95-3.51,4.8,4.8,0,0,0-2.74-2.08,22.57,22.57,0,0,0-6.1-.56h-8Zm0,18.51h10a22.65,22.65,0,0,0,3.61-.19,8.67,8.67,0,0,0,3.06-1.09,5.87,5.87,0,0,0,2-2.23,7,7,0,0,0,.79-3.38,6.67,6.67,0,0,0-1.15-3.9,6.08,6.08,0,0,0-3.18-2.32,19.69,19.69,0,0,0-5.87-.67H96.41Z"/><path class="cls-3" d="M147,527.52a18.42,18.42,0,0,1-5.27,3.28,15.11,15.11,0,0,1-5.42,1c-3.19,0-5.65-.78-7.36-2.34a7.73,7.73,0,0,1-2.57-6,7.92,7.92,0,0,1,1-3.9,8.09,8.09,0,0,1,2.54-2.83,11.85,11.85,0,0,1,3.55-1.61,34.47,34.47,0,0,1,4.37-.74,45.23,45.23,0,0,0,8.78-1.7c0-.67,0-1.1,0-1.28,0-2-.47-3.42-1.4-4.24a8.25,8.25,0,0,0-5.6-1.67,8.69,8.69,0,0,0-5.13,1.22A7.47,7.47,0,0,0,132,511l-4.81-.65a12,12,0,0,1,2.16-5,9.47,9.47,0,0,1,4.35-2.93,19.45,19.45,0,0,1,6.59-1,17.51,17.51,0,0,1,6,.87,8.07,8.07,0,0,1,3.42,2.2,7.74,7.74,0,0,1,1.53,3.35,28.41,28.41,0,0,1,.24,4.54v6.56a69.34,69.34,0,0,0,.32,8.69,10.92,10.92,0,0,0,1.24,3.48H148A10.28,10.28,0,0,1,147,527.52Zm-.41-11a36.14,36.14,0,0,1-8,1.86,18.7,18.7,0,0,0-4.29,1,4.36,4.36,0,0,0-1.95,1.6,4.24,4.24,0,0,0-.68,2.34,4.2,4.2,0,0,0,1.49,3.28,6.38,6.38,0,0,0,4.36,1.31,10.15,10.15,0,0,0,5.06-1.24,7.59,7.59,0,0,0,3.25-3.41,11.83,11.83,0,0,0,.8-4.92Z"/><path class="cls-3" d="M159.08,531.1V491H164V531.1Z"/><path class="cls-3" d="M190.58,527.52a18.25,18.25,0,0,1-5.26,3.28,15.2,15.2,0,0,1-5.43,1q-4.78,0-7.35-2.34a7.69,7.69,0,0,1-2.57-6,8.1,8.1,0,0,1,3.51-6.73,11.9,11.9,0,0,1,3.54-1.61,35,35,0,0,1,4.38-.74,44.93,44.93,0,0,0,8.77-1.7c0-.67,0-1.1,0-1.28,0-2-.46-3.42-1.39-4.24a8.26,8.26,0,0,0-5.61-1.67,8.74,8.74,0,0,0-5.13,1.22,7.46,7.46,0,0,0-2.44,4.3l-4.82-.65a12,12,0,0,1,2.16-5,9.58,9.58,0,0,1,4.35-2.93,19.49,19.49,0,0,1,6.59-1,17.58,17.58,0,0,1,6.05.87,8.09,8.09,0,0,1,3.41,2.2,7.74,7.74,0,0,1,1.53,3.35,26.92,26.92,0,0,1,.25,4.54v6.56a70.15,70.15,0,0,0,.31,8.69,10.94,10.94,0,0,0,1.25,3.48h-5.14A10.5,10.5,0,0,1,190.58,527.52Zm-.41-11a35.85,35.85,0,0,1-8,1.86,18.84,18.84,0,0,0-4.29,1,4.34,4.34,0,0,0-1.94,1.6,4.36,4.36,0,0,0,.81,5.62,6.37,6.37,0,0,0,4.36,1.31,10.17,10.17,0,0,0,5.06-1.24,7.64,7.64,0,0,0,3.25-3.41,11.86,11.86,0,0,0,.79-4.92Z"/><path class="cls-3" d="M202.78,531.1v-29h4.43v4.13a10.43,10.43,0,0,1,9.24-4.78,12.13,12.13,0,0,1,4.83.94,7.63,7.63,0,0,1,3.29,2.47,9.56,9.56,0,0,1,1.53,3.64,27.24,27.24,0,0,1,.28,4.79V531.1h-4.93V513.44a13.33,13.33,0,0,0-.57-4.5,4.71,4.71,0,0,0-2-2.38,6.49,6.49,0,0,0-3.43-.89,8,8,0,0,0-5.43,2q-2.28,2-2.28,7.57V531.1Z"/><path class="cls-3" d="M252.87,520.47l4.84.62a12.56,12.56,0,0,1-4.06,7.84,11.81,11.81,0,0,1-8,2.83,12.47,12.47,0,0,1-9.59-3.9q-3.61-3.9-3.62-11.17a20.21,20.21,0,0,1,1.56-8.23,10.9,10.9,0,0,1,4.74-5.29,14.06,14.06,0,0,1,6.93-1.76,12,12,0,0,1,7.74,2.39,11,11,0,0,1,3.86,6.79l-4.79.74a7.88,7.88,0,0,0-2.42-4.4,6.25,6.25,0,0,0-4.19-1.48,7.65,7.65,0,0,0-6,2.67q-2.33,2.67-2.32,8.44t2.24,8.5a7.3,7.3,0,0,0,5.85,2.65,6.87,6.87,0,0,0,4.84-1.78A8.72,8.72,0,0,0,252.87,520.47Z"/><path class="cls-3" d="M281.8,521.75l5.09.63a12.41,12.41,0,0,1-4.46,6.92,13.4,13.4,0,0,1-8.31,2.46q-6.37,0-10.1-3.93t-3.74-11q0-7.34,3.78-11.38a12.77,12.77,0,0,1,9.79-4,12.41,12.41,0,0,1,9.51,4c2.46,2.65,3.69,6.36,3.69,11.16,0,.29,0,.73,0,1.31H265.37q.27,4.78,2.71,7.33a8.06,8.06,0,0,0,6.07,2.54,7.53,7.53,0,0,0,4.62-1.42A9.43,9.43,0,0,0,281.8,521.75Zm-16.16-8h16.22A9.84,9.84,0,0,0,280,508.3a7.54,7.54,0,0,0-6.1-2.85,7.83,7.83,0,0,0-5.7,2.27A9,9,0,0,0,265.64,513.79Z"/><path class="cls-3" d="M293,531.1v-29h4.43v4.41a12.17,12.17,0,0,1,3.13-4.08,5.52,5.52,0,0,1,3.16-1,9.65,9.65,0,0,1,5.06,1.58l-1.69,4.57a7.09,7.09,0,0,0-3.61-1.07,4.71,4.71,0,0,0-2.9,1,5.23,5.23,0,0,0-1.83,2.7,19,19,0,0,0-.82,5.74v15.2Z"/><rect class="cls-4" x="224.58" y="268.62" width="522" height="84.55"/><path class="cls-3" d="M241.36,304V288.28H252v1.85h-8.54V295h7.39v1.86h-7.39V304Z"/><path class="cls-3" d="M254.42,304v-11.4h1.74v1.73a4.69,4.69,0,0,1,1.23-1.61,2.21,2.21,0,0,1,1.24-.38,3.85,3.85,0,0,1,2,.62l-.67,1.8a2.74,2.74,0,0,0-1.42-.42,1.82,1.82,0,0,0-1.14.38,2.1,2.1,0,0,0-.72,1.06,7.65,7.65,0,0,0-.32,2.25v6Z"/><path class="cls-3" d="M261.05,298.32a5.85,5.85,0,0,1,1.76-4.69,5.27,5.27,0,0,1,3.59-1.27,5.1,5.1,0,0,1,3.84,1.54,5.85,5.85,0,0,1,1.49,4.26,7.4,7.4,0,0,1-.66,3.46,4.6,4.6,0,0,1-1.92,2,5.54,5.54,0,0,1-2.75.7,5.16,5.16,0,0,1-3.88-1.53A6.17,6.17,0,0,1,261.05,298.32Zm2,0a4.83,4.83,0,0,0,1,3.28,3.19,3.19,0,0,0,4.8,0,5,5,0,0,0,1-3.34,4.72,4.72,0,0,0-1-3.21,3.2,3.2,0,0,0-4.8,0A4.85,4.85,0,0,0,263,298.32Z"/><path class="cls-3" d="M274,304v-11.4h1.73v1.6a4,4,0,0,1,3.46-1.86,3.78,3.78,0,0,1,2.08.52,2.86,2.86,0,0,1,1.14,1.48,4.08,4.08,0,0,1,3.53-2,3.46,3.46,0,0,1,2.61.94,4,4,0,0,1,.91,2.89V304h-1.92v-7.18a5.41,5.41,0,0,0-.19-1.67,1.6,1.6,0,0,0-.68-.82,2.12,2.12,0,0,0-1.16-.32,2.71,2.71,0,0,0-2,.8,3.55,3.55,0,0,0-.8,2.57V304h-1.93v-7.41a3.29,3.29,0,0,0-.47-1.93,1.8,1.8,0,0,0-1.55-.65,2.88,2.88,0,0,0-1.51.43,2.43,2.43,0,0,0-1,1.26,7,7,0,0,0-.31,2.39V304Z"/><path class="cls-3" d="M292.86,294.82v-2.2h2.21v2.2Zm0,9.2v-2.2h2.21V304Z"/><path class="cls-3" d="M303.83,304l2.39-11.4h1.72l-.49,2.33a7.84,7.84,0,0,1,1.73-2,2.83,2.83,0,0,1,1.72-.63,3.39,3.39,0,0,1,1.43.42l-.8,1.8a1.83,1.83,0,0,0-1.1-.36,3,3,0,0,0-2.1,1.14,8.68,8.68,0,0,0-1.68,4.09l-1,4.57Z"/><path class="cls-3" d="M311.5,299.7a8,8,0,0,1,2-5.54,5.45,5.45,0,0,1,4.25-1.8,4.44,4.44,0,0,1,3.33,1.29,4.77,4.77,0,0,1,1.26,3.48,8.51,8.51,0,0,1-.8,3.66,5.91,5.91,0,0,1-2.26,2.59,5.78,5.78,0,0,1-3.09.9,5.17,5.17,0,0,1-2.42-.57,3.91,3.91,0,0,1-1.66-1.61A4.82,4.82,0,0,1,311.5,299.7Zm1.95-.2a3.46,3.46,0,0,0,.77,2.45,2.59,2.59,0,0,0,2,.83,3.38,3.38,0,0,0,1.23-.25,3.65,3.65,0,0,0,1.14-.77,5.5,5.5,0,0,0,.9-1.18,7.19,7.19,0,0,0,.59-1.42,6.91,6.91,0,0,0,.34-2,3.43,3.43,0,0,0-.78-2.4,2.54,2.54,0,0,0-2-.86,3.28,3.28,0,0,0-1.67.44,4.5,4.5,0,0,0-1.36,1.27,5.81,5.81,0,0,0-.89,1.95A8,8,0,0,0,313.45,299.5Z"/><path class="cls-3" d="M331.18,302a5.74,5.74,0,0,1-4.2,2.32,3,3,0,0,1-2.13-.76,2.43,2.43,0,0,1-.81-1.85,14.38,14.38,0,0,1,.36-2.47l1.38-6.58h1.94l-1.52,7.29a7.38,7.38,0,0,0-.2,1.42,1.29,1.29,0,0,0,.4,1,1.63,1.63,0,0,0,1.15.36,3.42,3.42,0,0,0,1.6-.4,4.2,4.2,0,0,0,1.34-1.07,5.78,5.78,0,0,0,.92-1.6,15.68,15.68,0,0,0,.55-2.07l1-4.93h1.94L332.55,304h-1.8Z"/><path class="cls-3" d="M340.17,302.45l-.32,1.58a5,5,0,0,1-1.35.19,2.8,2.8,0,0,1-1.85-.57,1.47,1.47,0,0,1-.52-1.17,12.74,12.74,0,0,1,.28-1.73l1.39-6.63h-1.54l.31-1.5h1.54l.59-2.81,2.23-1.34-.87,4.15H342l-.33,1.5h-1.9l-1.32,6.31a12.31,12.31,0,0,0-.24,1.43.69.69,0,0,0,.19.53,1,1,0,0,0,.65.18A5,5,0,0,0,340.17,302.45Z"/><path class="cls-3" d="M350.12,300.15l1.89.19a5.7,5.7,0,0,1-1.87,2.67,5.17,5.17,0,0,1-3.5,1.27,4.77,4.77,0,0,1-2.33-.58A3.87,3.87,0,0,1,342.7,302a5.61,5.61,0,0,1-.55-2.54,8.08,8.08,0,0,1,.87-3.63,6.17,6.17,0,0,1,2.23-2.61,5.54,5.54,0,0,1,3-.85,4.29,4.29,0,0,1,3.26,1.27,4.76,4.76,0,0,1,1.22,3.45,10.17,10.17,0,0,1-.15,1.72h-8.4a4.62,4.62,0,0,0,0,.6,3.62,3.62,0,0,0,.73,2.45,2.3,2.3,0,0,0,1.8.84,3.53,3.53,0,0,0,2-.65A4.34,4.34,0,0,0,350.12,300.15Zm-5.65-2.83h6.4c0-.2,0-.34,0-.43a3.15,3.15,0,0,0-.73-2.24,2.44,2.44,0,0,0-1.88-.78,3.48,3.48,0,0,0-2.27.86A5.26,5.26,0,0,0,344.47,297.32Z"/><path class="cls-3" d="M354,304l2.38-11.4h1.72L357.6,295a7.83,7.83,0,0,1,1.72-2,2.86,2.86,0,0,1,1.73-.63,3.35,3.35,0,0,1,1.42.42l-.79,1.8a1.89,1.89,0,0,0-1.11-.36,3,3,0,0,0-2.09,1.14,8.57,8.57,0,0,0-1.69,4.09l-1,4.57Z"/><path class="cls-3" d="M367.65,304l3.29-15.74h2.59l1.59,10.2c.21,1.34.34,2.63.41,3.86a39.11,39.11,0,0,1,2.19-4.31l5.52-9.75h2.63L382.58,304h-2.07l1.64-7.66c.38-1.76.93-3.75,1.64-5.95a35.75,35.75,0,0,1-1.68,3.31L376.25,304h-2l-1.58-10.09a32.26,32.26,0,0,1-.32-3.24c-.17,1.39-.35,2.48-.52,3.29l-2.1,10Z"/><path class="cls-3" d="M384.57,304l8.93-15.74H396l2.6,15.74h-2l-.77-4.53H389.4L386.88,304Zm5.74-6.15h5.21l-.62-3.95c-.23-1.57-.38-2.88-.44-3.93a27.66,27.66,0,0,1-1.56,3.22Z"/><path class="cls-3" d="M413,298.48l2.09.29a8.6,8.6,0,0,1-2.88,4.13,7,7,0,0,1-4.25,1.39,6,6,0,0,1-4.55-1.75,7,7,0,0,1-1.68-5,10,10,0,0,1,2.56-7A7.34,7.34,0,0,1,409.9,288a6,6,0,0,1,4.06,1.34,5.4,5.4,0,0,1,1.8,3.61l-2,.18a4.3,4.3,0,0,0-1.28-2.55,3.71,3.71,0,0,0-2.51-.84,5.44,5.44,0,0,0-4.68,2.57,8.91,8.91,0,0,0-1.54,5.25,5.24,5.24,0,0,0,1.19,3.7,4,4,0,0,0,3.1,1.28,4.6,4.6,0,0,0,3-1.06A6,6,0,0,0,413,298.48Z"/><path class="cls-3" d="M430.11,302.61a7.77,7.77,0,0,1-1.95,1.27,5,5,0,0,1-2,.4,3.5,3.5,0,0,1-2.54-.93,3.14,3.14,0,0,1-1-2.38,3.27,3.27,0,0,1,.44-1.69,3.42,3.42,0,0,1,1.15-1.18,5.08,5.08,0,0,1,1.76-.64,19.25,19.25,0,0,1,2.49-.2,8.82,8.82,0,0,0,2.63-.39,5,5,0,0,0,.22-1.32,1.26,1.26,0,0,0-.49-1.06,3.12,3.12,0,0,0-2-.54,3.45,3.45,0,0,0-2,.54,3.11,3.11,0,0,0-1.14,1.54l-2-.17a5.13,5.13,0,0,1,1.91-2.6,5.65,5.65,0,0,1,3.29-.9,5.15,5.15,0,0,1,3.35,1,2.38,2.38,0,0,1,.95,1.95,9.83,9.83,0,0,1-.27,2.12l-.64,2.84a10.58,10.58,0,0,0-.3,2.2,7.17,7.17,0,0,0,.24,1.54h-2A7.48,7.48,0,0,1,430.11,302.61Zm.72-4.37a5,5,0,0,1-.88.25q-.46.09-1.56.18a12.23,12.23,0,0,0-2.4.39,2,2,0,0,0-1.05.73,1.88,1.88,0,0,0-.35,1.12,1.74,1.74,0,0,0,.56,1.34,2.26,2.26,0,0,0,1.61.53,3.79,3.79,0,0,0,3.26-1.94A8.4,8.4,0,0,0,430.83,298.24Z"/><path class="cls-3" d="M442.34,302.37a4.7,4.7,0,0,1-3.48,1.91,3.48,3.48,0,0,1-2.7-1.2,5,5,0,0,1-1.08-3.47,8.59,8.59,0,0,1,.85-3.81,6.48,6.48,0,0,1,2.14-2.58,4.57,4.57,0,0,1,2.57-.86,3.47,3.47,0,0,1,3.22,2.05l1.29-6.13h1.93L443.79,304H442ZM437,299.24a5.84,5.84,0,0,0,.24,1.88,2.53,2.53,0,0,0,.81,1.15,2.12,2.12,0,0,0,1.36.45,3,3,0,0,0,2.4-1.37,7.06,7.06,0,0,0,1.44-4.51,3,3,0,0,0-.71-2.12,2.34,2.34,0,0,0-1.79-.76,2.6,2.6,0,0,0-1.27.31,3.81,3.81,0,0,0-1.14,1.06,7,7,0,0,0-1,1.89A6.43,6.43,0,0,0,437,299.24Z"/><path class="cls-3" d="M454.58,302.37a4.7,4.7,0,0,1-3.48,1.91,3.47,3.47,0,0,1-2.7-1.2,5,5,0,0,1-1.08-3.47,8.46,8.46,0,0,1,.85-3.81,6.4,6.4,0,0,1,2.14-2.58,4.52,4.52,0,0,1,2.57-.86,3.44,3.44,0,0,1,3.21,2.05l1.29-6.13h1.93L456,304h-1.8Zm-5.33-3.13a5.84,5.84,0,0,0,.24,1.88,2.43,2.43,0,0,0,.8,1.15,2.15,2.15,0,0,0,1.37.45,3,3,0,0,0,2.39-1.37,7.06,7.06,0,0,0,1.44-4.51,3,3,0,0,0-.71-2.12A2.32,2.32,0,0,0,453,294a2.57,2.57,0,0,0-1.27.31,3.59,3.59,0,0,0-1.14,1.06,7.61,7.61,0,0,0-1.34,3.91Z"/><path class="cls-3" d="M459.12,304l2.39-11.4h1.72l-.49,2.33a7.84,7.84,0,0,1,1.73-2,2.83,2.83,0,0,1,1.72-.63,3.39,3.39,0,0,1,1.43.42l-.8,1.8a1.83,1.83,0,0,0-1.1-.36,3,3,0,0,0-2.1,1.14,8.58,8.58,0,0,0-1.68,4.09L461,304Z"/><path class="cls-3" d="M474.83,300.15l1.89.19a5.73,5.73,0,0,1-1.88,2.67,5.12,5.12,0,0,1-3.49,1.27,4.74,4.74,0,0,1-2.33-.58,3.81,3.81,0,0,1-1.61-1.71,5.61,5.61,0,0,1-.55-2.54,8.07,8.07,0,0,1,.86-3.63,6.18,6.18,0,0,1,2.24-2.61,5.54,5.54,0,0,1,3-.85,4.31,4.31,0,0,1,3.26,1.27,4.76,4.76,0,0,1,1.22,3.45,10.17,10.17,0,0,1-.15,1.72h-8.41c0,.23,0,.43,0,.6a3.62,3.62,0,0,0,.74,2.45,2.3,2.3,0,0,0,1.8.84,3.5,3.5,0,0,0,2-.65A4.29,4.29,0,0,0,474.83,300.15Zm-5.65-2.83h6.4c0-.2,0-.34,0-.43a3.15,3.15,0,0,0-.73-2.24,2.46,2.46,0,0,0-1.88-.78,3.46,3.46,0,0,0-2.27.86A5.11,5.11,0,0,0,469.18,297.32Z"/><path class="cls-3" d="M478.87,300.12l1.94-.11a3.62,3.62,0,0,0,.26,1.43,2,2,0,0,0,.95,1,3.34,3.34,0,0,0,1.62.38,3,3,0,0,0,1.93-.52,1.51,1.51,0,0,0,.64-1.21,1.48,1.48,0,0,0-.38-1,6.17,6.17,0,0,0-1.94-1.11,17.24,17.24,0,0,1-2-.93,3.12,3.12,0,0,1-1.09-1,2.56,2.56,0,0,1-.36-1.36,3,3,0,0,1,1.07-2.33,4.37,4.37,0,0,1,3-1,4.81,4.81,0,0,1,3.27,1A3.42,3.42,0,0,1,489,296l-1.9.13a2.16,2.16,0,0,0-.73-1.64,2.85,2.85,0,0,0-1.94-.6,2.45,2.45,0,0,0-1.57.46,1.33,1.33,0,0,0-.56,1,1.2,1.2,0,0,0,.49.95,8.21,8.21,0,0,0,1.66.86,11,11,0,0,1,2.81,1.52,2.91,2.91,0,0,1,.93,2.17,3.14,3.14,0,0,1-.52,1.67,3.6,3.6,0,0,1-1.59,1.3,5.93,5.93,0,0,1-2.52.49,5.61,5.61,0,0,1-3.36-1A3.44,3.44,0,0,1,478.87,300.12Z"/><path class="cls-3" d="M489.87,300.12l1.94-.11a3.62,3.62,0,0,0,.26,1.43,2,2,0,0,0,.95,1,3.34,3.34,0,0,0,1.62.38,3,3,0,0,0,1.93-.52,1.51,1.51,0,0,0,.64-1.21,1.48,1.48,0,0,0-.38-1,6.17,6.17,0,0,0-1.94-1.11,17.24,17.24,0,0,1-2-.93,3.12,3.12,0,0,1-1.09-1,2.56,2.56,0,0,1-.36-1.36,3,3,0,0,1,1.07-2.33,4.37,4.37,0,0,1,3-1,4.81,4.81,0,0,1,3.27,1A3.42,3.42,0,0,1,500,296l-1.9.13a2.16,2.16,0,0,0-.73-1.64,2.85,2.85,0,0,0-1.94-.6,2.45,2.45,0,0,0-1.57.46,1.33,1.33,0,0,0-.56,1,1.2,1.2,0,0,0,.49.95,8.21,8.21,0,0,0,1.66.86,11,11,0,0,1,2.81,1.52,2.91,2.91,0,0,1,.93,2.17,3.14,3.14,0,0,1-.52,1.67,3.6,3.6,0,0,1-1.59,1.3,5.93,5.93,0,0,1-2.52.49,5.61,5.61,0,0,1-3.36-1A3.44,3.44,0,0,1,489.87,300.12Z"/><path class="cls-3" d="M514.49,302.61a7.77,7.77,0,0,1-2,1.27,5,5,0,0,1-2,.4,3.5,3.5,0,0,1-2.54-.93,3.14,3.14,0,0,1-1-2.38,3.27,3.27,0,0,1,.44-1.69,3.42,3.42,0,0,1,1.15-1.18,5.08,5.08,0,0,1,1.76-.64,19.25,19.25,0,0,1,2.49-.2,8.82,8.82,0,0,0,2.63-.39,5,5,0,0,0,.22-1.32,1.26,1.26,0,0,0-.49-1.06,3.12,3.12,0,0,0-2-.54,3.45,3.45,0,0,0-2,.54,3.11,3.11,0,0,0-1.14,1.54l-2-.17a5.13,5.13,0,0,1,1.91-2.6,5.65,5.65,0,0,1,3.29-.9,5.15,5.15,0,0,1,3.35,1,2.37,2.37,0,0,1,.94,1.95,9.75,9.75,0,0,1-.26,2.12l-.64,2.84a10.58,10.58,0,0,0-.3,2.2,7.17,7.17,0,0,0,.24,1.54h-2A6.74,6.74,0,0,1,514.49,302.61Zm.72-4.37a5,5,0,0,1-.88.25q-.47.09-1.56.18a12.23,12.23,0,0,0-2.4.39,2,2,0,0,0-1.05.73,1.88,1.88,0,0,0-.35,1.12,1.74,1.74,0,0,0,.56,1.34,2.26,2.26,0,0,0,1.61.53,3.79,3.79,0,0,0,3.26-1.94A8.4,8.4,0,0,0,515.21,298.24Z"/><path class="cls-3" d="M519,304l2.39-11.4h1.76l-.42,2a8.87,8.87,0,0,1,2.15-1.7,4.21,4.21,0,0,1,2-.54,3,3,0,0,1,2.17.75,2.63,2.63,0,0,1,.79,2,10.92,10.92,0,0,1-.28,2l-1.45,6.9h-1.94l1.51-7.23a8.42,8.42,0,0,0,.23-1.55,1.21,1.21,0,0,0-.39-.93,1.67,1.67,0,0,0-1.14-.35,3.85,3.85,0,0,0-2.66,1.07,7,7,0,0,0-1.71,3.69L521,304Z"/><path class="cls-3" d="M539,302.37a4.7,4.7,0,0,1-3.48,1.91,3.47,3.47,0,0,1-2.7-1.2,5,5,0,0,1-1.08-3.47,8.46,8.46,0,0,1,.85-3.81,6.4,6.4,0,0,1,2.14-2.58,4.52,4.52,0,0,1,2.57-.86,3.44,3.44,0,0,1,3.21,2.05l1.29-6.13h1.93L540.41,304h-1.8Zm-5.33-3.13a5.84,5.84,0,0,0,.24,1.88,2.43,2.43,0,0,0,.8,1.15,2.15,2.15,0,0,0,1.37.45,3,3,0,0,0,2.39-1.37,7.06,7.06,0,0,0,1.44-4.51,3,3,0,0,0-.71-2.12,2.32,2.32,0,0,0-1.78-.76,2.57,2.57,0,0,0-1.27.31,3.59,3.59,0,0,0-1.14,1.06,7.61,7.61,0,0,0-1.34,3.91Z"/><path class="cls-3" d="M557.49,299.87l1.94.2a6.58,6.58,0,0,1-2.08,3.18,4.89,4.89,0,0,1-3.06,1,4,4,0,0,1-3-1.2,4.64,4.64,0,0,1-1.15-3.36,9.71,9.71,0,0,1,.74-3.68A5.88,5.88,0,0,1,553,293.3a5.44,5.44,0,0,1,3.15-.94,4,4,0,0,1,2.92,1,3.68,3.68,0,0,1,1.07,2.75l-1.91.13a2.35,2.35,0,0,0-.63-1.7A2.21,2.21,0,0,0,556,294a3,3,0,0,0-2,.74,4.9,4.9,0,0,0-1.35,2.25,9.65,9.65,0,0,0-.49,2.91,3.24,3.24,0,0,0,.65,2.19,2.06,2.06,0,0,0,1.59.73,2.8,2.8,0,0,0,1.81-.72A4.71,4.71,0,0,0,557.49,299.87Z"/><path class="cls-3" d="M560.46,304l3.29-15.74h1.94L562.41,304Z"/><path class="cls-3" d="M565.43,304l2.38-11.4h2L567.37,304Zm2.83-13.54.46-2.2h1.94l-.46,2.2Z"/><path class="cls-3" d="M578.77,300.15l1.89.19a5.66,5.66,0,0,1-1.88,2.67,5.12,5.12,0,0,1-3.49,1.27,4.74,4.74,0,0,1-2.33-.58,3.87,3.87,0,0,1-1.61-1.71,5.61,5.61,0,0,1-.55-2.54,8.2,8.2,0,0,1,.86-3.63,6.18,6.18,0,0,1,2.24-2.61,5.54,5.54,0,0,1,3-.85,4.31,4.31,0,0,1,3.26,1.27,4.76,4.76,0,0,1,1.22,3.45,10.17,10.17,0,0,1-.15,1.72h-8.4a4.83,4.83,0,0,0,0,.6,3.62,3.62,0,0,0,.74,2.45,2.3,2.3,0,0,0,1.8.84,3.5,3.5,0,0,0,2-.65A4.29,4.29,0,0,0,578.77,300.15Zm-5.65-2.83h6.4c0-.2,0-.34,0-.43a3.15,3.15,0,0,0-.73-2.24,2.46,2.46,0,0,0-1.88-.78,3.46,3.46,0,0,0-2.27.86A5.11,5.11,0,0,0,573.12,297.32Z"/><path class="cls-3" d="M582.62,304l2.39-11.4h1.76l-.42,2a9.07,9.07,0,0,1,2.15-1.7,4.27,4.27,0,0,1,2-.54,3,3,0,0,1,2.18.75,2.67,2.67,0,0,1,.79,2,11.9,11.9,0,0,1-.28,2l-1.45,6.9h-1.95l1.52-7.23a8.19,8.19,0,0,0,.22-1.55,1.21,1.21,0,0,0-.39-.93,1.66,1.66,0,0,0-1.13-.35,3.84,3.84,0,0,0-2.66,1.07,6.83,6.83,0,0,0-1.71,3.69l-1.11,5.3Z"/><path class="cls-3" d="M599.4,302.45l-.32,1.58a5,5,0,0,1-1.35.19,2.8,2.8,0,0,1-1.85-.57,1.47,1.47,0,0,1-.52-1.17,12.74,12.74,0,0,1,.28-1.73l1.39-6.63h-1.54l.32-1.5h1.53l.59-2.81,2.23-1.34-.87,4.15h1.91l-.32,1.5H599l-1.32,6.31a12.31,12.31,0,0,0-.24,1.43.69.69,0,0,0,.19.53,1,1,0,0,0,.65.18A5,5,0,0,0,599.4,302.45Z"/><path class="cls-3" d="M603.66,290.54l.46-2.2h2.21l-.39,1.93a5.19,5.19,0,0,1-1.14,2.53,2.88,2.88,0,0,1-1.81.93l.18-.85c.85-.23,1.41-1,1.69-2.34Z"/><path class="cls-3" d="M605.64,300.12l2-.11a3.62,3.62,0,0,0,.26,1.43,2,2,0,0,0,.95,1,3.33,3.33,0,0,0,1.61.38,3,3,0,0,0,1.94-.52,1.51,1.51,0,0,0,.64-1.21,1.48,1.48,0,0,0-.38-1,6.3,6.3,0,0,0-1.94-1.11,17.24,17.24,0,0,1-2-.93,3.12,3.12,0,0,1-1.09-1,2.56,2.56,0,0,1-.36-1.36,3,3,0,0,1,1.07-2.33,4.37,4.37,0,0,1,3-1,4.81,4.81,0,0,1,3.27,1,3.42,3.42,0,0,1,1.16,2.62l-1.9.13a2.2,2.2,0,0,0-.73-1.64,2.85,2.85,0,0,0-1.94-.6,2.45,2.45,0,0,0-1.57.46,1.33,1.33,0,0,0-.56,1,1.22,1.22,0,0,0,.48.95,8.73,8.73,0,0,0,1.67.86,11,11,0,0,1,2.81,1.52,2.91,2.91,0,0,1,.93,2.17,3.14,3.14,0,0,1-.52,1.67,3.6,3.6,0,0,1-1.59,1.3,6,6,0,0,1-2.52.49,5.61,5.61,0,0,1-3.36-1A3.47,3.47,0,0,1,605.64,300.12Z"/><path class="cls-3" d="M623.1,304l3.3-15.74h2.09L625.21,304Z"/><path class="cls-3" d="M628.9,304l3.3-15.74h6.57a6.49,6.49,0,0,1,2.57.39,3.18,3.18,0,0,1,1.41,1.34,4.16,4.16,0,0,1,.56,2.13,5.86,5.86,0,0,1-1.4,3.66,5,5,0,0,1-1.23,1,5.14,5.14,0,0,1-1.34.5,13.74,13.74,0,0,1-3.06.35h-3.94L631,304Zm3.82-8.17h3.47a7.5,7.5,0,0,0,3-.44,3.6,3.6,0,0,0,2.08-3.21,2.41,2.41,0,0,0-.3-1.27,1.75,1.75,0,0,0-.85-.71A6,6,0,0,0,638,290h-4Z"/><path class="cls-3" d="M656.35,302.61a7.6,7.6,0,0,1-2,1.27,5,5,0,0,1-2,.4,3.51,3.51,0,0,1-2.55-.93,3.17,3.17,0,0,1-1-2.38,3.27,3.27,0,0,1,.44-1.69,3.42,3.42,0,0,1,1.15-1.18,5.08,5.08,0,0,1,1.76-.64,19.25,19.25,0,0,1,2.49-.2,8.82,8.82,0,0,0,2.63-.39,5,5,0,0,0,.22-1.32,1.26,1.26,0,0,0-.49-1.06,3.12,3.12,0,0,0-2-.54,3.45,3.45,0,0,0-2,.54A3,3,0,0,0,652,296l-2-.17a5.13,5.13,0,0,1,1.91-2.6,5.65,5.65,0,0,1,3.29-.9,5.15,5.15,0,0,1,3.35,1,2.38,2.38,0,0,1,1,1.95,9.83,9.83,0,0,1-.27,2.12l-.64,2.84a10.58,10.58,0,0,0-.3,2.2,7.17,7.17,0,0,0,.24,1.54h-2A7.48,7.48,0,0,1,656.35,302.61Zm.72-4.37a4.74,4.74,0,0,1-.88.25q-.47.09-1.56.18a12.23,12.23,0,0,0-2.4.39,2,2,0,0,0-1.05.73,1.88,1.88,0,0,0-.35,1.12,1.74,1.74,0,0,0,.56,1.34,2.28,2.28,0,0,0,1.61.53,3.79,3.79,0,0,0,3.26-1.94A8.14,8.14,0,0,0,657.07,298.24Z"/><path class="cls-3" d="M668.58,302.37a4.7,4.7,0,0,1-3.48,1.91,3.48,3.48,0,0,1-2.7-1.2,5,5,0,0,1-1.08-3.47,8.46,8.46,0,0,1,.86-3.81,6.46,6.46,0,0,1,2.13-2.58,4.57,4.57,0,0,1,2.58-.86,3.46,3.46,0,0,1,3.21,2.05l1.29-6.13h1.93L670,304h-1.79Zm-5.32-3.13a5.88,5.88,0,0,0,.23,1.88,2.53,2.53,0,0,0,.81,1.15,2.12,2.12,0,0,0,1.36.45,3,3,0,0,0,2.4-1.37,7.06,7.06,0,0,0,1.44-4.51,3,3,0,0,0-.71-2.12A2.34,2.34,0,0,0,667,294a2.6,2.6,0,0,0-1.27.31,3.81,3.81,0,0,0-1.14,1.06,7,7,0,0,0-1,1.89A6.38,6.38,0,0,0,663.26,299.24Z"/><path class="cls-3" d="M680.82,302.37a4.7,4.7,0,0,1-3.48,1.91,3.48,3.48,0,0,1-2.7-1.2,5,5,0,0,1-1.08-3.47,8.46,8.46,0,0,1,.85-3.81,6.4,6.4,0,0,1,2.14-2.58,4.52,4.52,0,0,1,2.57-.86,3.44,3.44,0,0,1,3.21,2.05l1.29-6.13h1.94L682.27,304h-1.79Zm-5.33-3.13a5.84,5.84,0,0,0,.24,1.88,2.43,2.43,0,0,0,.8,1.15,2.15,2.15,0,0,0,1.37.45,3,3,0,0,0,2.39-1.37,7.06,7.06,0,0,0,1.44-4.51,3,3,0,0,0-.71-2.12,2.31,2.31,0,0,0-1.78-.76,2.57,2.57,0,0,0-1.27.31,3.59,3.59,0,0,0-1.14,1.06,6.67,6.67,0,0,0-1,1.89A6.43,6.43,0,0,0,675.49,299.24Z"/><path class="cls-3" d="M685.36,304l2.39-11.4h1.72L689,295a7.84,7.84,0,0,1,1.73-2,2.83,2.83,0,0,1,1.72-.63,3.39,3.39,0,0,1,1.43.42l-.8,1.8a1.83,1.83,0,0,0-1.1-.36,3,3,0,0,0-2.1,1.14,8.68,8.68,0,0,0-1.68,4.09l-1,4.57Z"/><path class="cls-3" d="M701.07,300.15l1.89.19a5.66,5.66,0,0,1-1.88,2.67,5.12,5.12,0,0,1-3.49,1.27,4.74,4.74,0,0,1-2.33-.58,3.87,3.87,0,0,1-1.61-1.71,5.61,5.61,0,0,1-.55-2.54,8.2,8.2,0,0,1,.86-3.63,6.18,6.18,0,0,1,2.24-2.61,5.54,5.54,0,0,1,3-.85,4.31,4.31,0,0,1,3.26,1.27,4.76,4.76,0,0,1,1.22,3.45,10.17,10.17,0,0,1-.15,1.72h-8.4a4.83,4.83,0,0,0-.05.6,3.62,3.62,0,0,0,.74,2.45,2.3,2.3,0,0,0,1.8.84,3.5,3.5,0,0,0,2-.65A4.29,4.29,0,0,0,701.07,300.15Zm-5.65-2.83h6.4c0-.2,0-.34,0-.43a3.15,3.15,0,0,0-.73-2.24,2.46,2.46,0,0,0-1.88-.78,3.46,3.46,0,0,0-2.27.86A5.11,5.11,0,0,0,695.42,297.32Z"/><path class="cls-3" d="M705.11,300.12l1.94-.11a3.62,3.62,0,0,0,.26,1.43,2,2,0,0,0,1,1,3.34,3.34,0,0,0,1.62.38,3,3,0,0,0,1.93-.52,1.51,1.51,0,0,0,.64-1.21,1.43,1.43,0,0,0-.38-1,6.17,6.17,0,0,0-1.94-1.11,17.24,17.24,0,0,1-2-.93,3.21,3.21,0,0,1-1.09-1,2.56,2.56,0,0,1-.36-1.36,3,3,0,0,1,1.07-2.33,4.37,4.37,0,0,1,3-1,4.81,4.81,0,0,1,3.27,1,3.47,3.47,0,0,1,1.17,2.62l-1.91.13a2.16,2.16,0,0,0-.73-1.64,2.83,2.83,0,0,0-1.94-.6,2.45,2.45,0,0,0-1.57.46,1.33,1.33,0,0,0-.56,1,1.2,1.2,0,0,0,.49.95,8.52,8.52,0,0,0,1.66.86,11.3,11.3,0,0,1,2.82,1.52,2.93,2.93,0,0,1,.92,2.17,3.06,3.06,0,0,1-.52,1.67,3.6,3.6,0,0,1-1.59,1.3,5.93,5.93,0,0,1-2.52.49,5.61,5.61,0,0,1-3.36-1A3.44,3.44,0,0,1,705.11,300.12Z"/><path class="cls-3" d="M716.11,300.12l1.94-.11a3.62,3.62,0,0,0,.26,1.43,2,2,0,0,0,1,1,3.34,3.34,0,0,0,1.62.38,3,3,0,0,0,1.93-.52,1.51,1.51,0,0,0,.64-1.21,1.43,1.43,0,0,0-.38-1,6.17,6.17,0,0,0-1.94-1.11,17.24,17.24,0,0,1-2-.93,3.21,3.21,0,0,1-1.09-1,2.56,2.56,0,0,1-.36-1.36,3,3,0,0,1,1.07-2.33,4.37,4.37,0,0,1,3-1,4.81,4.81,0,0,1,3.27,1,3.47,3.47,0,0,1,1.17,2.62l-1.91.13a2.16,2.16,0,0,0-.73-1.64,2.83,2.83,0,0,0-1.94-.6,2.45,2.45,0,0,0-1.57.46,1.33,1.33,0,0,0-.56,1,1.2,1.2,0,0,0,.49.95,8.52,8.52,0,0,0,1.66.86,11.3,11.3,0,0,1,2.82,1.52,2.93,2.93,0,0,1,.92,2.17,3.06,3.06,0,0,1-.52,1.67,3.6,3.6,0,0,1-1.59,1.3,5.93,5.93,0,0,1-2.52.49,5.61,5.61,0,0,1-3.36-1A3.44,3.44,0,0,1,716.11,300.12Z"/><path class="cls-3" d="M245.26,330.42V316.53h-5.19v-1.85h12.48v1.85h-5.21v13.89Z"/><path class="cls-3" d="M251.28,324.72A5.88,5.88,0,0,1,253,320a5.29,5.29,0,0,1,3.59-1.27,5.12,5.12,0,0,1,3.85,1.54,5.89,5.89,0,0,1,1.49,4.26,7.52,7.52,0,0,1-.66,3.46,4.65,4.65,0,0,1-1.92,2,5.55,5.55,0,0,1-2.76.7,5.12,5.12,0,0,1-3.87-1.53A6.13,6.13,0,0,1,251.28,324.72Zm2,0a4.83,4.83,0,0,0,1,3.28,3.19,3.19,0,0,0,4.8,0,5,5,0,0,0,1-3.34,4.72,4.72,0,0,0-1-3.21,3.19,3.19,0,0,0-4.79,0A4.85,4.85,0,0,0,253.27,324.72Z"/><path class="cls-3" d="M264.77,321.22V319H267v2.2Zm0,9.2v-2.2H267v2.2Z"/><path class="cls-3" d="M300,330.42l3.29-15.74h1.94L302,330.42Z"/><path class="cls-3" d="M305.42,326.09a8,8,0,0,1,2-5.53,5.45,5.45,0,0,1,4.25-1.8,4.44,4.44,0,0,1,3.33,1.29,4.77,4.77,0,0,1,1.26,3.48,8.51,8.51,0,0,1-.8,3.66,5.91,5.91,0,0,1-2.26,2.59,5.78,5.78,0,0,1-3.09.9,5.17,5.17,0,0,1-2.42-.57A3.91,3.91,0,0,1,306,328.5,4.83,4.83,0,0,1,305.42,326.09Zm1.95-.19a3.46,3.46,0,0,0,.77,2.45,2.59,2.59,0,0,0,2,.83,3.38,3.38,0,0,0,1.23-.25,3.65,3.65,0,0,0,1.14-.77,5.5,5.5,0,0,0,.9-1.18,7.19,7.19,0,0,0,.59-1.42,6.91,6.91,0,0,0,.34-2,3.43,3.43,0,0,0-.78-2.4,2.56,2.56,0,0,0-2-.86,3.28,3.28,0,0,0-1.67.44,4.5,4.5,0,0,0-1.36,1.27,5.81,5.81,0,0,0-.89,1.95A8,8,0,0,0,307.37,325.9Z"/><path class="cls-3" d="M325,329a8,8,0,0,1-1.95,1.27,5,5,0,0,1-2,.4,3.5,3.5,0,0,1-2.54-.93,3.14,3.14,0,0,1-1-2.38,3.18,3.18,0,0,1,.44-1.69,3.33,3.33,0,0,1,1.15-1.18,5.08,5.08,0,0,1,1.76-.64,19.25,19.25,0,0,1,2.49-.2,8.88,8.88,0,0,0,2.63-.39,5,5,0,0,0,.22-1.32,1.29,1.29,0,0,0-.49-1.07,3.18,3.18,0,0,0-2-.53,3.42,3.42,0,0,0-2,.54,3.11,3.11,0,0,0-1.14,1.54l-2-.17a5.12,5.12,0,0,1,1.9-2.6,5.68,5.68,0,0,1,3.3-.9,5.11,5.11,0,0,1,3.35,1,2.37,2.37,0,0,1,.94,2,9.83,9.83,0,0,1-.27,2.12l-.63,2.83a10.74,10.74,0,0,0-.3,2.21,7.17,7.17,0,0,0,.24,1.54h-2A6.74,6.74,0,0,1,325,329Zm.72-4.37a5,5,0,0,1-.88.25q-.47.09-1.56.18a11.38,11.38,0,0,0-2.4.39,2,2,0,0,0-1.05.73,1.89,1.89,0,0,0-.36,1.12,1.75,1.75,0,0,0,.57,1.34,2.25,2.25,0,0,0,1.6.53,3.79,3.79,0,0,0,3.27-1.94A8.4,8.4,0,0,0,325.73,324.64Z"/><path class="cls-3" d="M337.24,328.77a4.7,4.7,0,0,1-3.48,1.91,3.48,3.48,0,0,1-2.7-1.2A5,5,0,0,1,330,326a8.46,8.46,0,0,1,.85-3.81,6.4,6.4,0,0,1,2.14-2.58,4.54,4.54,0,0,1,2.57-.86,3.47,3.47,0,0,1,3.22,2.05l1.28-6.13H342l-3.29,15.74H336.9Zm-5.33-3.13a5.84,5.84,0,0,0,.24,1.88,2.51,2.51,0,0,0,.8,1.15,2.15,2.15,0,0,0,1.37.45,3,3,0,0,0,2.39-1.37,7.06,7.06,0,0,0,1.44-4.51,3,3,0,0,0-.71-2.12,2.31,2.31,0,0,0-1.78-.76,2.6,2.6,0,0,0-1.27.31,3.81,3.81,0,0,0-1.14,1.06,6.67,6.67,0,0,0-.95,1.89A6.43,6.43,0,0,0,331.91,325.64Z"/><path class="cls-3" d="M347.9,330.42l3.28-15.74h1.95L352,320.3a6.81,6.81,0,0,1,1.67-1.19,3.6,3.6,0,0,1,1.57-.35,3.44,3.44,0,0,1,2.67,1.19,5.06,5.06,0,0,1,1.07,3.47,8.43,8.43,0,0,1-.43,2.77,7.85,7.85,0,0,1-1.06,2.11,6.91,6.91,0,0,1-1.31,1.37,5.29,5.29,0,0,1-1.39.76,4,4,0,0,1-1.36.25,3.43,3.43,0,0,1-2-.59,3.88,3.88,0,0,1-1.34-1.83l-.46,2.16Zm2.88-4.68v.37a3.21,3.21,0,0,0,.69,2.22,2.27,2.27,0,0,0,1.74.76,2.9,2.9,0,0,0,1.88-.71,5.16,5.16,0,0,0,1.4-2.23,8.15,8.15,0,0,0,.55-2.79,3.27,3.27,0,0,0-.7-2.24,2.17,2.17,0,0,0-1.71-.79,2.78,2.78,0,0,0-1.93.81,6,6,0,0,0-1.47,2.49A6.45,6.45,0,0,0,350.78,325.74Z"/><path class="cls-3" d="M367.82,329a7.73,7.73,0,0,1-1.94,1.27,5,5,0,0,1-2,.4,3.5,3.5,0,0,1-2.54-.93,3.14,3.14,0,0,1-1-2.38,3.27,3.27,0,0,1,.43-1.69A3.45,3.45,0,0,1,362,324.5a5.08,5.08,0,0,1,1.76-.64,19.25,19.25,0,0,1,2.49-.2,8.74,8.74,0,0,0,2.62-.39,5.08,5.08,0,0,0,.23-1.32,1.3,1.3,0,0,0-.5-1.07,3.17,3.17,0,0,0-2-.53,3.4,3.4,0,0,0-2,.54,3.11,3.11,0,0,0-1.14,1.54l-2-.17a5.12,5.12,0,0,1,1.9-2.6,5.68,5.68,0,0,1,3.3-.9,5.11,5.11,0,0,1,3.35,1,2.37,2.37,0,0,1,.94,2,9.83,9.83,0,0,1-.27,2.12l-.63,2.83a10.74,10.74,0,0,0-.3,2.21,7.17,7.17,0,0,0,.24,1.54h-2A7.39,7.39,0,0,1,367.82,329Zm.72-4.37a4.63,4.63,0,0,1-.87.25c-.31.06-.83.12-1.57.18a11.38,11.38,0,0,0-2.39.39,2,2,0,0,0-1,.73,1.89,1.89,0,0,0-.36,1.12,1.75,1.75,0,0,0,.57,1.34,2.25,2.25,0,0,0,1.6.53,3.67,3.67,0,0,0,1.86-.51,3.73,3.73,0,0,0,1.41-1.43A8.17,8.17,0,0,0,368.54,324.64Z"/><path class="cls-3" d="M372.22,330.42l3.28-15.74h1.95l-3.29,15.74Z"/><path class="cls-3" d="M385,329a7.77,7.77,0,0,1-1.95,1.27,5,5,0,0,1-2,.4,3.5,3.5,0,0,1-2.54-.93,3.14,3.14,0,0,1-1-2.38,3.27,3.27,0,0,1,.44-1.69,3.42,3.42,0,0,1,1.15-1.18,5.08,5.08,0,0,1,1.76-.64,19.25,19.25,0,0,1,2.49-.2,8.82,8.82,0,0,0,2.63-.39,5,5,0,0,0,.22-1.32,1.29,1.29,0,0,0-.49-1.07,3.18,3.18,0,0,0-2-.53,3.42,3.42,0,0,0-2,.54,3.11,3.11,0,0,0-1.14,1.54l-2-.17a5.13,5.13,0,0,1,1.91-2.6,5.65,5.65,0,0,1,3.29-.9,5.09,5.09,0,0,1,3.35,1,2.37,2.37,0,0,1,.94,2,9.75,9.75,0,0,1-.26,2.12l-.64,2.83a10.74,10.74,0,0,0-.3,2.21,7.17,7.17,0,0,0,.24,1.54h-2A6.74,6.74,0,0,1,385,329Zm.72-4.37a5,5,0,0,1-.88.25q-.46.09-1.56.18a11.5,11.5,0,0,0-2.4.39,2,2,0,0,0-1.05.73,1.88,1.88,0,0,0-.35,1.12,1.74,1.74,0,0,0,.56,1.34,2.26,2.26,0,0,0,1.61.53,3.79,3.79,0,0,0,3.26-1.94A8.4,8.4,0,0,0,385.67,324.64Z"/><path class="cls-3" d="M389.49,330.42l2.39-11.4h1.76l-.42,2a8.87,8.87,0,0,1,2.15-1.7,4.21,4.21,0,0,1,2-.54,3,3,0,0,1,2.17.75,2.63,2.63,0,0,1,.79,2,10.92,10.92,0,0,1-.28,2l-1.45,6.9H396.7l1.51-7.23a8.42,8.42,0,0,0,.23-1.55,1.21,1.21,0,0,0-.39-.93,1.67,1.67,0,0,0-1.14-.35,3.85,3.85,0,0,0-2.66,1.07,7,7,0,0,0-1.71,3.69l-1.1,5.3Z"/><path class="cls-3" d="M409.6,326.27l1.94.2a6.57,6.57,0,0,1-2.07,3.18,4.92,4.92,0,0,1-3.07,1,4,4,0,0,1-3-1.2,4.65,4.65,0,0,1-1.16-3.36,9.71,9.71,0,0,1,.74-3.68,5.94,5.94,0,0,1,2.12-2.74,5.45,5.45,0,0,1,3.16-.94,4,4,0,0,1,2.91,1,3.68,3.68,0,0,1,1.07,2.75l-1.91.13a2.35,2.35,0,0,0-.63-1.7,2.19,2.19,0,0,0-1.63-.61,3,3,0,0,0-2,.74,4.81,4.81,0,0,0-1.34,2.25,9.35,9.35,0,0,0-.49,2.91,3.24,3.24,0,0,0,.64,2.19,2.06,2.06,0,0,0,1.59.73,2.8,2.8,0,0,0,1.81-.72A4.71,4.71,0,0,0,409.6,326.27Z"/><path class="cls-3" d="M421.1,326.55l1.9.19a5.73,5.73,0,0,1-1.88,2.67,5.15,5.15,0,0,1-3.5,1.27,4.7,4.7,0,0,1-2.32-.58,3.81,3.81,0,0,1-1.61-1.71,5.62,5.62,0,0,1-.56-2.54,8.08,8.08,0,0,1,.87-3.63,6.18,6.18,0,0,1,2.24-2.61,5.53,5.53,0,0,1,3-.85,4.29,4.29,0,0,1,3.26,1.27,4.72,4.72,0,0,1,1.22,3.45,10.17,10.17,0,0,1-.15,1.72h-8.4a4.62,4.62,0,0,0,0,.6,3.62,3.62,0,0,0,.74,2.45,2.3,2.3,0,0,0,1.8.84,3.5,3.5,0,0,0,2-.65A4.2,4.2,0,0,0,421.1,326.55Zm-5.65-2.83h6.41c0-.2,0-.34,0-.43a3.19,3.19,0,0,0-.73-2.24,2.47,2.47,0,0,0-1.88-.78,3.46,3.46,0,0,0-2.27.86A5.19,5.19,0,0,0,415.45,323.72Z"/><path class="cls-3" d="M425,330.42l2.39-11.4h1.71l-.48,2.33a7.84,7.84,0,0,1,1.73-2,2.83,2.83,0,0,1,1.72-.63,3.39,3.39,0,0,1,1.43.42l-.8,1.8a1.83,1.83,0,0,0-1.1-.36,3,3,0,0,0-2.1,1.14,8.58,8.58,0,0,0-1.68,4.09l-1,4.57Z"/><path class="cls-3" d="M435.79,316.94l.46-2.2h2.21l-.39,1.93a5.1,5.1,0,0,1-1.14,2.53,2.88,2.88,0,0,1-1.81.93l.19-.85q1.26-.34,1.68-2.34Z"/><path class="cls-3" d="M437.78,326.52l1.94-.11a3.62,3.62,0,0,0,.26,1.43,2,2,0,0,0,.95,1,3.34,3.34,0,0,0,1.62.38,3,3,0,0,0,1.93-.52,1.51,1.51,0,0,0,.64-1.21,1.43,1.43,0,0,0-.38-1,6.17,6.17,0,0,0-1.94-1.11,17.24,17.24,0,0,1-2-.93,3.21,3.21,0,0,1-1.09-1,2.56,2.56,0,0,1-.36-1.36,3,3,0,0,1,1.07-2.33,4.37,4.37,0,0,1,3-1,4.81,4.81,0,0,1,3.27,1,3.47,3.47,0,0,1,1.17,2.62l-1.91.13a2.16,2.16,0,0,0-.73-1.64,2.83,2.83,0,0,0-1.94-.6,2.45,2.45,0,0,0-1.57.46,1.32,1.32,0,0,0-.56,1,1.2,1.2,0,0,0,.49.95,8.52,8.52,0,0,0,1.66.86,11.3,11.3,0,0,1,2.82,1.52,2.93,2.93,0,0,1,.92,2.17,3.06,3.06,0,0,1-.52,1.67,3.6,3.6,0,0,1-1.59,1.3,5.93,5.93,0,0,1-2.52.49,5.61,5.61,0,0,1-3.36-1A3.44,3.44,0,0,1,437.78,326.52Z"/><path class="cls-3" d="M454.94,330.42l3.29-15.74h2.59l1.59,10.2c.21,1.34.34,2.63.41,3.86a39.11,39.11,0,0,1,2.19-4.31l5.52-9.75h2.63l-3.29,15.74H467.8l1.64-7.66c.38-1.76.93-3.75,1.64-5.95a35.75,35.75,0,0,1-1.68,3.31l-5.86,10.3h-2l-1.58-10.09a29.77,29.77,0,0,1-.31-3.24c-.18,1.39-.36,2.48-.53,3.29l-2.1,10Z"/><path class="cls-3" d="M471.86,330.42l8.93-15.74h2.48l2.6,15.74h-2l-.76-4.53H476.7l-2.53,4.53Zm5.74-6.15h5.21l-.61-3.95a39.41,39.41,0,0,1-.44-3.93,29.69,29.69,0,0,1-1.57,3.22Z"/><path class="cls-3" d="M500.24,324.88l2.09.29a8.6,8.6,0,0,1-2.88,4.13,7,7,0,0,1-4.25,1.39,6,6,0,0,1-4.54-1.75,6.93,6.93,0,0,1-1.69-5,10,10,0,0,1,2.56-7,7.36,7.36,0,0,1,5.66-2.48,6,6,0,0,1,4.06,1.34,5.4,5.4,0,0,1,1.8,3.61l-2,.18A4.3,4.3,0,0,0,499.8,317a3.71,3.71,0,0,0-2.51-.84,5.42,5.42,0,0,0-4.67,2.57,8.85,8.85,0,0,0-1.55,5.25,5.24,5.24,0,0,0,1.19,3.7,4,4,0,0,0,3.11,1.28,4.59,4.59,0,0,0,2.95-1.06A6,6,0,0,0,500.24,324.88Z"/><path class="cls-3" d="M517.4,329a7.6,7.6,0,0,1-1.95,1.27,5,5,0,0,1-2,.4,3.51,3.51,0,0,1-2.55-.93,3.17,3.17,0,0,1-1-2.38,3.27,3.27,0,0,1,.44-1.69,3.42,3.42,0,0,1,1.15-1.18,5.08,5.08,0,0,1,1.76-.64,19.25,19.25,0,0,1,2.49-.2,8.82,8.82,0,0,0,2.63-.39,5,5,0,0,0,.22-1.32,1.29,1.29,0,0,0-.49-1.07,3.18,3.18,0,0,0-2-.53,3.45,3.45,0,0,0-2,.54,3,3,0,0,0-1.13,1.54l-2-.17a5.13,5.13,0,0,1,1.91-2.6,5.65,5.65,0,0,1,3.29-.9,5.09,5.09,0,0,1,3.35,1,2.38,2.38,0,0,1,.95,2,9.83,9.83,0,0,1-.27,2.12l-.64,2.83a10.74,10.74,0,0,0-.3,2.21,7.17,7.17,0,0,0,.24,1.54h-2A7.48,7.48,0,0,1,517.4,329Zm.72-4.37a4.74,4.74,0,0,1-.88.25q-.47.09-1.56.18a11.5,11.5,0,0,0-2.4.39,2,2,0,0,0-1,.73,1.88,1.88,0,0,0-.35,1.12,1.74,1.74,0,0,0,.56,1.34,2.28,2.28,0,0,0,1.61.53,3.79,3.79,0,0,0,3.26-1.94A8.14,8.14,0,0,0,518.12,324.64Z"/><path class="cls-3" d="M521.94,330.42l2.39-11.4h1.76l-.42,2a9.07,9.07,0,0,1,2.15-1.7,4.21,4.21,0,0,1,2-.54,3,3,0,0,1,2.17.75,2.63,2.63,0,0,1,.79,2,10.92,10.92,0,0,1-.28,2l-1.45,6.9h-1.94l1.51-7.23a8.42,8.42,0,0,0,.23-1.55,1.21,1.21,0,0,0-.39-.93,1.67,1.67,0,0,0-1.14-.35,3.81,3.81,0,0,0-2.65,1.07,6.91,6.91,0,0,0-1.72,3.69l-1.1,5.3Z"/><path class="cls-3" d="M541.87,328.77a4.7,4.7,0,0,1-3.48,1.91,3.48,3.48,0,0,1-2.7-1.2,5,5,0,0,1-1.08-3.47,8.46,8.46,0,0,1,.85-3.81,6.4,6.4,0,0,1,2.14-2.58,4.52,4.52,0,0,1,2.57-.86,3.44,3.44,0,0,1,3.21,2.05l1.29-6.13h1.94l-3.29,15.74h-1.8Zm-5.33-3.13a5.84,5.84,0,0,0,.24,1.88,2.43,2.43,0,0,0,.8,1.15,2.15,2.15,0,0,0,1.37.45,3,3,0,0,0,2.39-1.37,7.06,7.06,0,0,0,1.44-4.51,3,3,0,0,0-.71-2.12,2.31,2.31,0,0,0-1.78-.76,2.57,2.57,0,0,0-1.27.31,3.59,3.59,0,0,0-1.14,1.06,6.67,6.67,0,0,0-1,1.89A6.43,6.43,0,0,0,536.54,325.64Z"/><path class="cls-3" d="M553.05,330.42l3.3-15.74h2.09l-3.28,15.74Z"/><path class="cls-3" d="M558.85,330.42l3.3-15.74h6.57a6.49,6.49,0,0,1,2.57.39,3.18,3.18,0,0,1,1.41,1.34,4.16,4.16,0,0,1,.56,2.13,5.47,5.47,0,0,1-.4,2,5.33,5.33,0,0,1-1,1.67,5,5,0,0,1-1.23,1,5.14,5.14,0,0,1-1.34.5,13.74,13.74,0,0,1-3.06.35h-3.94L561,330.42Zm3.82-8.17h3.47a7.5,7.5,0,0,0,3-.44,3.6,3.6,0,0,0,2.08-3.21,2.41,2.41,0,0,0-.3-1.27,1.83,1.83,0,0,0-.85-.72,6.35,6.35,0,0,0-2.1-.23h-4Z"/><path class="cls-3" d="M586.3,329a7.6,7.6,0,0,1-1.95,1.27,5,5,0,0,1-2,.4,3.51,3.51,0,0,1-2.55-.93,3.17,3.17,0,0,1-1-2.38,3.27,3.27,0,0,1,.44-1.69,3.42,3.42,0,0,1,1.15-1.18,5.08,5.08,0,0,1,1.76-.64,19.25,19.25,0,0,1,2.49-.2,8.82,8.82,0,0,0,2.63-.39,5,5,0,0,0,.22-1.32,1.29,1.29,0,0,0-.49-1.07,3.18,3.18,0,0,0-2-.53,3.45,3.45,0,0,0-2,.54,3,3,0,0,0-1.13,1.54l-2-.17a5.13,5.13,0,0,1,1.91-2.6,5.65,5.65,0,0,1,3.29-.9,5.09,5.09,0,0,1,3.35,1,2.38,2.38,0,0,1,1,2,9.83,9.83,0,0,1-.27,2.12l-.64,2.83a10.74,10.74,0,0,0-.3,2.21,7.17,7.17,0,0,0,.24,1.54h-2A7.48,7.48,0,0,1,586.3,329Zm.72-4.37a4.74,4.74,0,0,1-.88.25q-.46.09-1.56.18a11.5,11.5,0,0,0-2.4.39,2,2,0,0,0-1,.73,1.88,1.88,0,0,0-.35,1.12,1.74,1.74,0,0,0,.56,1.34,2.28,2.28,0,0,0,1.61.53,3.76,3.76,0,0,0,3.26-1.94A8.14,8.14,0,0,0,587,324.64Z"/><path class="cls-3" d="M598.53,328.77a4.7,4.7,0,0,1-3.48,1.91,3.48,3.48,0,0,1-2.7-1.2,5,5,0,0,1-1.08-3.47,8.46,8.46,0,0,1,.86-3.81,6.46,6.46,0,0,1,2.13-2.58,4.57,4.57,0,0,1,2.58-.86,3.46,3.46,0,0,1,3.21,2.05l1.29-6.13h1.93L600,330.42h-1.79Zm-5.32-3.13a5.88,5.88,0,0,0,.23,1.88,2.53,2.53,0,0,0,.81,1.15,2.12,2.12,0,0,0,1.36.45,3,3,0,0,0,2.4-1.37,7.06,7.06,0,0,0,1.44-4.51,3,3,0,0,0-.71-2.12,2.33,2.33,0,0,0-1.79-.76,2.6,2.6,0,0,0-1.27.31,3.81,3.81,0,0,0-1.14,1.06,7,7,0,0,0-.95,1.89A6.38,6.38,0,0,0,593.21,325.64Z"/><path class="cls-3" d="M610.77,328.77a4.7,4.7,0,0,1-3.48,1.91,3.48,3.48,0,0,1-2.7-1.2,5,5,0,0,1-1.08-3.47,8.46,8.46,0,0,1,.85-3.81,6.4,6.4,0,0,1,2.14-2.58,4.52,4.52,0,0,1,2.57-.86,3.44,3.44,0,0,1,3.21,2.05l1.29-6.13h1.94l-3.29,15.74h-1.79Zm-5.33-3.13a5.84,5.84,0,0,0,.24,1.88,2.43,2.43,0,0,0,.8,1.15,2.15,2.15,0,0,0,1.37.45,3,3,0,0,0,2.39-1.37,7.06,7.06,0,0,0,1.44-4.51,3,3,0,0,0-.71-2.12,2.31,2.31,0,0,0-1.78-.76,2.57,2.57,0,0,0-1.27.31,3.59,3.59,0,0,0-1.14,1.06,6.67,6.67,0,0,0-.95,1.89A6.43,6.43,0,0,0,605.44,325.64Z"/><path class="cls-3" d="M615.31,330.42,617.7,319h1.72l-.49,2.33a8,8,0,0,1,1.73-2,2.83,2.83,0,0,1,1.72-.63,3.39,3.39,0,0,1,1.43.42L623,321a1.89,1.89,0,0,0-1.11-.36,3,3,0,0,0-2.1,1.14,8.68,8.68,0,0,0-1.68,4.09l-1,4.57Z"/><path class="cls-3" d="M631,326.55l1.89.19a5.66,5.66,0,0,1-1.88,2.67,5.12,5.12,0,0,1-3.49,1.27,4.74,4.74,0,0,1-2.33-.58,3.87,3.87,0,0,1-1.61-1.71,5.61,5.61,0,0,1-.55-2.54,8.2,8.2,0,0,1,.86-3.63,6.18,6.18,0,0,1,2.24-2.61,5.54,5.54,0,0,1,3-.85,4.31,4.31,0,0,1,3.26,1.27,4.76,4.76,0,0,1,1.22,3.45,10.17,10.17,0,0,1-.15,1.72h-8.4a4.83,4.83,0,0,0,0,.6,3.62,3.62,0,0,0,.74,2.45,2.3,2.3,0,0,0,1.8.84,3.5,3.5,0,0,0,2-.65A4.29,4.29,0,0,0,631,326.55Zm-5.65-2.83h6.4c0-.2,0-.34,0-.43a3.15,3.15,0,0,0-.73-2.24,2.46,2.46,0,0,0-1.88-.78,3.46,3.46,0,0,0-2.27.86A5.11,5.11,0,0,0,625.37,323.72Z"/><path class="cls-3" d="M635.06,326.52l1.94-.11a3.62,3.62,0,0,0,.26,1.43,2,2,0,0,0,1,1,3.34,3.34,0,0,0,1.62.38,3,3,0,0,0,1.93-.52,1.51,1.51,0,0,0,.64-1.21,1.43,1.43,0,0,0-.38-1,6.17,6.17,0,0,0-1.94-1.11,17.24,17.24,0,0,1-2-.93,3.21,3.21,0,0,1-1.09-1,2.56,2.56,0,0,1-.36-1.36,3,3,0,0,1,1.07-2.33,4.37,4.37,0,0,1,3-1,4.81,4.81,0,0,1,3.27,1,3.47,3.47,0,0,1,1.17,2.62l-1.91.13a2.16,2.16,0,0,0-.73-1.64,2.83,2.83,0,0,0-1.94-.6,2.45,2.45,0,0,0-1.57.46,1.32,1.32,0,0,0-.56,1,1.2,1.2,0,0,0,.49.95,8.52,8.52,0,0,0,1.66.86,11.3,11.3,0,0,1,2.82,1.52,2.93,2.93,0,0,1,.92,2.17,3.06,3.06,0,0,1-.52,1.67,3.6,3.6,0,0,1-1.59,1.3,5.93,5.93,0,0,1-2.52.49,5.61,5.61,0,0,1-3.36-1A3.44,3.44,0,0,1,635.06,326.52Z"/><path class="cls-3" d="M646.06,326.52l1.94-.11a3.62,3.62,0,0,0,.26,1.43,2,2,0,0,0,1,1,3.34,3.34,0,0,0,1.62.38,3,3,0,0,0,1.93-.52,1.51,1.51,0,0,0,.64-1.21,1.43,1.43,0,0,0-.38-1,6.17,6.17,0,0,0-1.94-1.11,17.24,17.24,0,0,1-2-.93,3.21,3.21,0,0,1-1.09-1,2.56,2.56,0,0,1-.36-1.36,3,3,0,0,1,1.07-2.33,4.37,4.37,0,0,1,3-1,4.81,4.81,0,0,1,3.27,1,3.47,3.47,0,0,1,1.17,2.62l-1.91.13a2.16,2.16,0,0,0-.73-1.64,2.83,2.83,0,0,0-1.94-.6,2.45,2.45,0,0,0-1.57.46,1.32,1.32,0,0,0-.56,1,1.2,1.2,0,0,0,.49.95,8.52,8.52,0,0,0,1.66.86,11.3,11.3,0,0,1,2.82,1.52,2.93,2.93,0,0,1,.92,2.17,3.06,3.06,0,0,1-.52,1.67,3.6,3.6,0,0,1-1.59,1.3,5.93,5.93,0,0,1-2.52.49,5.61,5.61,0,0,1-3.36-1A3.44,3.44,0,0,1,646.06,326.52Z"/><rect class="cls-2" x="37.58" y="37.27" width="319.88" height="212.42"/><path class="cls-3" d="M117.88,155.41V115.33h17.77a23.68,23.68,0,0,1,8.15,1.08,9,9,0,0,1,4.46,3.81,11.42,11.42,0,0,1,1.66,6,10.09,10.09,0,0,1-2.76,7.19q-2.76,2.92-8.53,3.72a13.93,13.93,0,0,1,3.2,2,27.36,27.36,0,0,1,4.4,5.33l7,10.91h-6.68l-5.3-8.34q-2.32-3.6-3.83-5.52a12.17,12.17,0,0,0-2.69-2.68,8,8,0,0,0-2.42-1.06,15.6,15.6,0,0,0-3-.2h-6.15v17.8Zm5.3-22.39h11.4a17.15,17.15,0,0,0,5.69-.75,6,6,0,0,0,3.12-2.41,6.5,6.5,0,0,0,1.07-3.59,6,6,0,0,0-2.07-4.68q-2.07-1.83-6.52-1.83H123.18Z"/><path class="cls-3" d="M155.78,140.9q0-8.07,4.48-12a13.52,13.52,0,0,1,9.13-3.23,13,13,0,0,1,9.79,3.92q3.81,3.93,3.8,10.85a19.2,19.2,0,0,1-1.68,8.81,11.82,11.82,0,0,1-4.89,5,14.23,14.23,0,0,1-7,1.78,13,13,0,0,1-9.85-3.91Q155.78,148.25,155.78,140.9Zm5.05,0c0,3.71.81,6.5,2.44,8.35a8.11,8.11,0,0,0,12.22,0q2.43-2.79,2.43-8.51,0-5.39-2.44-8.16a8.1,8.1,0,0,0-12.21,0Q160.82,135.32,160.83,140.9Z"/><path class="cls-3" d="M207.78,155.41v-4.26a10.62,10.62,0,0,1-9.21,4.92,11.81,11.81,0,0,1-4.8-1,7.87,7.87,0,0,1-3.31-2.48,9.23,9.23,0,0,1-1.52-3.65,25,25,0,0,1-.3-4.59v-18h4.92v16.1a27.68,27.68,0,0,0,.31,5.2,5.11,5.11,0,0,0,2,3,6.18,6.18,0,0,0,3.72,1.1,8.18,8.18,0,0,0,4.16-1.13,6.38,6.38,0,0,0,2.75-3.09,15.75,15.75,0,0,0,.8-5.68V126.38h4.93v29Z"/><path class="cls-3" d="M230.64,151l.71,4.35a18.31,18.31,0,0,1-3.72.44,8.45,8.45,0,0,1-4.15-.85,4.75,4.75,0,0,1-2.08-2.23q-.6-1.38-.6-5.81V130.2h-3.61v-3.82h3.61v-7.2l4.89-3v10.15h4.95v3.82h-4.95v17a8.67,8.67,0,0,0,.26,2.71,2.13,2.13,0,0,0,.85,1,3.24,3.24,0,0,0,1.68.35A15.51,15.51,0,0,0,230.64,151Z"/><path class="cls-3" d="M255.33,146.06l5.09.63a12.41,12.41,0,0,1-4.46,6.92,13.4,13.4,0,0,1-8.31,2.46q-6.37,0-10.1-3.92t-3.74-11c0-4.88,1.26-8.68,3.78-11.37a12.76,12.76,0,0,1,9.79-4.05,12.41,12.41,0,0,1,9.51,4q3.69,4,3.69,11.16c0,.29,0,.73,0,1.31H238.9c.18,3.19,1.08,5.64,2.71,7.33a8,8,0,0,0,6.07,2.54,7.53,7.53,0,0,0,4.62-1.42A9.43,9.43,0,0,0,255.33,146.06Zm-16.16-7.95h16.22a9.84,9.84,0,0,0-1.86-5.5,7.53,7.53,0,0,0-6.1-2.84,7.79,7.79,0,0,0-5.7,2.27A9,9,0,0,0,239.17,138.11Z"/><path class="cls-3" d="M266.54,155.41v-29H271v4.4a12.17,12.17,0,0,1,3.13-4.08,5.52,5.52,0,0,1,3.16-1,9.58,9.58,0,0,1,5.06,1.59l-1.69,4.56a7.07,7.07,0,0,0-3.61-1.06,4.67,4.67,0,0,0-2.9,1,5.16,5.16,0,0,0-1.83,2.69,19,19,0,0,0-.82,5.74v15.2Z"/><line class="cls-5" x1="161.9" y1="322.92" x2="161.9" y2="265.59"/><polygon class="cls-6" points="161.9 356.21 181.95 321.47 141.84 321.47 161.9 356.21"/><rect class="cls-2" x="37.58" y="704.24" width="319.88" height="212.42"/><path class="cls-3" d="M92.65,822.39V782.3h15a18.64,18.64,0,0,1,7.37,1.22,9.47,9.47,0,0,1,4.35,3.75,9.84,9.84,0,0,1,1.57,5.29,9.11,9.11,0,0,1-1.39,4.84,10,10,0,0,1-4.22,3.66,10.46,10.46,0,0,1,5.6,3.64,9.76,9.76,0,0,1,2,6.07,11.64,11.64,0,0,1-1.19,5.24,10.13,10.13,0,0,1-2.94,3.73,12.36,12.36,0,0,1-4.39,2,26.48,26.48,0,0,1-6.46.67ZM98,799.15h8.66a19.25,19.25,0,0,0,5.06-.47,5.59,5.59,0,0,0,3-2,5.72,5.72,0,0,0,1-3.5,6.45,6.45,0,0,0-1-3.52,4.89,4.89,0,0,0-2.73-2.08A23,23,0,0,0,106,787H98Zm0,18.51h10a22.82,22.82,0,0,0,3.61-.19,8.68,8.68,0,0,0,3.06-1.1,5.82,5.82,0,0,0,2-2.22,7,7,0,0,0,.8-3.38,6.7,6.7,0,0,0-1.15-3.9,6.05,6.05,0,0,0-3.19-2.32,19.62,19.62,0,0,0-5.86-.67H98Z"/><path class="cls-3" d="M148.54,818.81a18.25,18.25,0,0,1-5.26,3.28,15.2,15.2,0,0,1-5.43,1q-4.78,0-7.35-2.34a7.7,7.7,0,0,1-2.57-6,8.1,8.1,0,0,1,3.51-6.72,12.18,12.18,0,0,1,3.54-1.62,35.08,35.08,0,0,1,4.38-.73,45.09,45.09,0,0,0,8.77-1.7q0-1,0-1.29c0-2-.46-3.41-1.39-4.23-1.26-1.12-3.13-1.67-5.61-1.67A8.64,8.64,0,0,0,136,798a7.38,7.38,0,0,0-2.44,4.3l-4.82-.65a12,12,0,0,1,2.16-5,9.5,9.5,0,0,1,4.35-2.93,19.48,19.48,0,0,1,6.59-1,17.49,17.49,0,0,1,6,.88,8,8,0,0,1,3.42,2.2,7.69,7.69,0,0,1,1.53,3.35,26.92,26.92,0,0,1,.25,4.54v6.56a69.83,69.83,0,0,0,.31,8.68,10.91,10.91,0,0,0,1.25,3.49h-5.14A10.57,10.57,0,0,1,148.54,818.81Zm-.41-11a36,36,0,0,1-8,1.85,19.27,19.27,0,0,0-4.29,1,4.22,4.22,0,0,0-1.94,1.6,4.36,4.36,0,0,0,.81,5.62,6.42,6.42,0,0,0,4.36,1.31,10.17,10.17,0,0,0,5.06-1.24,7.69,7.69,0,0,0,3.25-3.41,11.86,11.86,0,0,0,.79-4.92Z"/><path class="cls-3" d="M179.69,811.75l4.84.63a12.61,12.61,0,0,1-4.06,7.84,11.88,11.88,0,0,1-8,2.83,12.45,12.45,0,0,1-9.58-3.9q-3.63-3.9-3.63-11.17a20.17,20.17,0,0,1,1.56-8.23,10.83,10.83,0,0,1,4.75-5.29,14,14,0,0,1,6.93-1.77,12,12,0,0,1,7.74,2.4,11,11,0,0,1,3.85,6.79l-4.78.74a8,8,0,0,0-2.42-4.4,6.25,6.25,0,0,0-4.2-1.48,7.63,7.63,0,0,0-6,2.67c-1.55,1.77-2.33,4.59-2.33,8.43s.75,6.74,2.25,8.51a7.27,7.27,0,0,0,5.85,2.65,6.89,6.89,0,0,0,4.84-1.78A8.86,8.86,0,0,0,179.69,811.75Z"/><path class="cls-3" d="M188.77,822.39V782.3h4.92v22.86l11.65-11.81h6.37l-11.1,10.77,12.22,18.27h-6.07l-9.6-14.85-3.47,3.34v11.51Z"/><path class="cls-3" d="M236.62,813l5.08.63a12.48,12.48,0,0,1-4.45,6.92,13.41,13.41,0,0,1-8.32,2.46q-6.36,0-10.1-3.93t-3.73-11q0-7.33,3.77-11.38a12.78,12.78,0,0,1,9.79-4,12.46,12.46,0,0,1,9.52,4q3.69,4,3.69,11.16c0,.29,0,.73,0,1.31H220.18q.28,4.79,2.71,7.33A8.08,8.08,0,0,0,229,819a7.49,7.49,0,0,0,4.62-1.42A9.44,9.44,0,0,0,236.62,813Zm-16.16-8h16.21a9.84,9.84,0,0,0-1.86-5.49,7.54,7.54,0,0,0-6.1-2.85A7.83,7.83,0,0,0,223,799,9,9,0,0,0,220.46,805.08Z"/><path class="cls-3" d="M247.88,822.39v-29h4.43v4.13a10.45,10.45,0,0,1,9.24-4.79,12.14,12.14,0,0,1,4.83.95,7.61,7.61,0,0,1,3.3,2.47,9.81,9.81,0,0,1,1.53,3.64,28.52,28.52,0,0,1,.27,4.78v17.86h-4.92V804.73a13,13,0,0,0-.58-4.5,4.69,4.69,0,0,0-2-2.38,6.51,6.51,0,0,0-3.43-.89,8,8,0,0,0-5.43,2q-2.29,2-2.29,7.57v15.86Z"/><path class="cls-3" d="M297.87,822.39v-3.66a9,9,0,0,1-8.12,4.32,11.36,11.36,0,0,1-6.39-1.92,12.61,12.61,0,0,1-4.51-5.34,18.44,18.44,0,0,1-1.6-7.89A20.57,20.57,0,0,1,278.7,800a11.37,11.37,0,0,1,4.35-5.43,11.6,11.6,0,0,1,6.48-1.89,9.62,9.62,0,0,1,4.67,1.11,9.77,9.77,0,0,1,3.34,2.89V782.3h4.89v40.09ZM282.31,807.9q0,5.58,2.35,8.34a7.1,7.1,0,0,0,5.55,2.76,7,7,0,0,0,5.48-2.64q2.26-2.64,2.26-8.05c0-4-.77-6.89-2.3-8.75a7.06,7.06,0,0,0-5.66-2.79,6.81,6.81,0,0,0-5.48,2.68Q282.31,802.12,282.31,807.9Z"/><line class="cls-5" x1="161.9" y1="655.73" x2="161.9" y2="598.4"/><polygon class="cls-6" points="161.9 689.02 181.95 654.28 141.84 654.28 161.9 689.02"/><rect class="cls-4" x="224.58" y="601.76" width="522" height="84.55"/><path class="cls-3" d="M241.36,637.16V621.41H252v1.86h-8.54v4.88h7.39V630h-7.39v7.15Z"/><path class="cls-3" d="M254.42,637.16V625.75h1.74v1.73a4.63,4.63,0,0,1,1.23-1.6,2.14,2.14,0,0,1,1.24-.39,3.77,3.77,0,0,1,2,.63l-.67,1.79a2.74,2.74,0,0,0-1.42-.42,1.88,1.88,0,0,0-1.14.38,2.19,2.19,0,0,0-.72,1.06,7.71,7.71,0,0,0-.32,2.26v6Z"/><path class="cls-3" d="M261.05,631.46a5.87,5.87,0,0,1,1.76-4.7,5.32,5.32,0,0,1,3.59-1.27,5.11,5.11,0,0,1,3.84,1.55,5.82,5.82,0,0,1,1.49,4.26,7.42,7.42,0,0,1-.66,3.46,4.71,4.71,0,0,1-1.92,2,5.65,5.65,0,0,1-2.75.7,5.13,5.13,0,0,1-3.88-1.54A6.14,6.14,0,0,1,261.05,631.46Zm2,0a4.85,4.85,0,0,0,1,3.28,3.18,3.18,0,0,0,4.8,0,5,5,0,0,0,1-3.34,4.73,4.73,0,0,0-1-3.21,3.19,3.19,0,0,0-4.8,0A4.83,4.83,0,0,0,263,631.46Z"/><path class="cls-3" d="M274,637.16V625.75h1.73v1.6a4,4,0,0,1,3.46-1.86,3.78,3.78,0,0,1,2.08.53,2.8,2.8,0,0,1,1.14,1.47,4.11,4.11,0,0,1,3.53-2,3.5,3.5,0,0,1,2.61.94,4.08,4.08,0,0,1,.91,2.9v7.83h-1.92V630a5.45,5.45,0,0,0-.19-1.67,1.64,1.64,0,0,0-.68-.82,2.12,2.12,0,0,0-1.16-.31,2.71,2.71,0,0,0-2,.8,3.52,3.52,0,0,0-.8,2.56v6.63h-1.93v-7.41a3.32,3.32,0,0,0-.47-1.94,1.79,1.79,0,0,0-1.55-.64,2.79,2.79,0,0,0-1.51.43,2.39,2.39,0,0,0-1,1.26,7,7,0,0,0-.31,2.38v5.92Z"/><path class="cls-3" d="M292.86,628v-2.2h2.21V628Zm0,9.21V635h2.21v2.2Z"/><path class="cls-3" d="M304,637.16l3.29-15.75h2.11l-2.92,14h8.18l-.38,1.78Z"/><path class="cls-3" d="M316.29,637.16l3.3-15.75h4.88a13.1,13.1,0,0,1,2,.11,4.68,4.68,0,0,1,1.78.64,3.08,3.08,0,0,1,1.13,1.24,3.91,3.91,0,0,1,.39,1.75,3.84,3.84,0,0,1-.71,2.29,4.38,4.38,0,0,1-2.19,1.5,3.78,3.78,0,0,1,1.91,1.26,3.17,3.17,0,0,1,.64,2,4.63,4.63,0,0,1-.75,2.49,5.19,5.19,0,0,1-2,1.84,5.84,5.84,0,0,1-2.75.65Zm2.48-1.78h3.59a12.78,12.78,0,0,0,1.93-.1,4.12,4.12,0,0,0,1.62-.59,2.87,2.87,0,0,0,1-1.09,3.06,3.06,0,0,0,.35-1.41,2.05,2.05,0,0,0-.69-1.68,4.27,4.27,0,0,0-2.64-.58h-4Zm1.52-7.24h3.19a5.76,5.76,0,0,0,3.29-.73,2.48,2.48,0,0,0,1-2.13,2.15,2.15,0,0,0-.31-1.15,1.79,1.79,0,0,0-.84-.7,5.68,5.68,0,0,0-2-.22h-3.35Z"/><path class="cls-3" d="M333.43,623.68l.46-2.2h2.21l-.4,1.93a5.14,5.14,0,0,1-1.13,2.53,3,3,0,0,1-1.81.93l.18-.85c.85-.24,1.41-1,1.69-2.34Z"/><path class="cls-3" d="M335.41,633.26l1.95-.12a3.42,3.42,0,0,0,.26,1.43,2,2,0,0,0,.95,1,3.33,3.33,0,0,0,1.61.37,3.1,3.1,0,0,0,1.94-.51,1.53,1.53,0,0,0,.64-1.22,1.48,1.48,0,0,0-.38-.95,6.3,6.3,0,0,0-1.94-1.11,17.24,17.24,0,0,1-2-.93,3.21,3.21,0,0,1-1.09-1,2.59,2.59,0,0,1-.36-1.37,3,3,0,0,1,1.07-2.32,4.37,4.37,0,0,1,3-1,4.81,4.81,0,0,1,3.27,1,3.4,3.4,0,0,1,1.16,2.61l-1.9.13a2.19,2.19,0,0,0-.73-1.63A2.85,2.85,0,0,0,341,627a2.37,2.37,0,0,0-1.57.46,1.32,1.32,0,0,0-.56,1,1.2,1.2,0,0,0,.48.94,7.66,7.66,0,0,0,1.67.86,11.23,11.23,0,0,1,2.81,1.53,2.89,2.89,0,0,1,.93,2.17,3.11,3.11,0,0,1-.52,1.66,3.61,3.61,0,0,1-1.59,1.31,6,6,0,0,1-2.52.49,5.68,5.68,0,0,1-3.36-1A3.45,3.45,0,0,1,335.41,633.26Z"/><path class="cls-3" d="M352.58,637.16l3.29-15.75h2.59l1.59,10.21c.2,1.34.34,2.62.4,3.85a41.49,41.49,0,0,1,2.2-4.3l5.52-9.76h2.63l-3.29,15.75h-2.07l1.64-7.66q.57-2.65,1.64-6c-.46,1-1,2.13-1.68,3.31l-5.87,10.3h-2l-1.58-10.1c-.14-.92-.24-2-.31-3.23-.18,1.38-.35,2.48-.52,3.29l-2.1,10Z"/><path class="cls-3" d="M369.5,637.16l8.93-15.75h2.48l2.6,15.75h-2l-.77-4.53h-6.37l-2.52,4.53Zm5.74-6.15h5.21l-.62-4c-.23-1.57-.38-2.87-.44-3.92a28.71,28.71,0,0,1-1.57,3.21Z"/><path class="cls-3" d="M397.88,631.62l2.08.29a8.49,8.49,0,0,1-2.87,4.12,7,7,0,0,1-4.25,1.4,6,6,0,0,1-4.55-1.75,7,7,0,0,1-1.68-5,10,10,0,0,1,2.56-7,7.35,7.35,0,0,1,5.66-2.49,6,6,0,0,1,4.06,1.35,5.32,5.32,0,0,1,1.79,3.61l-2,.18a4.25,4.25,0,0,0-1.29-2.55,3.68,3.68,0,0,0-2.5-.85,5.47,5.47,0,0,0-4.68,2.57,9,9,0,0,0-1.54,5.25,5.22,5.22,0,0,0,1.19,3.71,4,4,0,0,0,3.1,1.28,4.65,4.65,0,0,0,3-1.06A6.05,6.05,0,0,0,397.88,631.62Z"/><path class="cls-3" d="M415,635.74a7.67,7.67,0,0,1-2,1.27,5,5,0,0,1-2,.41,3.5,3.5,0,0,1-2.54-.93,3.14,3.14,0,0,1-1-2.38,3.25,3.25,0,0,1,.44-1.69,3.33,3.33,0,0,1,1.15-1.18,5.08,5.08,0,0,1,1.76-.64,18.7,18.7,0,0,1,2.49-.21,9.24,9.24,0,0,0,2.63-.38,5,5,0,0,0,.22-1.33,1.27,1.27,0,0,0-.49-1.06,3.12,3.12,0,0,0-2-.54,3.35,3.35,0,0,0-2,.55,3.06,3.06,0,0,0-1.14,1.54l-2-.17a5.08,5.08,0,0,1,1.9-2.6,5.71,5.71,0,0,1,3.3-.91,5.15,5.15,0,0,1,3.35,1,2.4,2.4,0,0,1,.94,2,10.5,10.5,0,0,1-.26,2.12l-.64,2.83a10.66,10.66,0,0,0-.3,2.2,7.25,7.25,0,0,0,.24,1.55h-2A6.74,6.74,0,0,1,415,635.74Zm.72-4.36a5,5,0,0,1-.88.25q-.47.09-1.56.18a12.42,12.42,0,0,0-2.4.38,2,2,0,0,0-1.05.74,1.87,1.87,0,0,0-.36,1.12,1.75,1.75,0,0,0,.57,1.34,2.25,2.25,0,0,0,1.6.52,3.67,3.67,0,0,0,1.86-.51A3.63,3.63,0,0,0,415,634,8.49,8.49,0,0,0,415.76,631.38Z"/><path class="cls-3" d="M427.27,635.51a4.7,4.7,0,0,1-3.48,1.91,3.48,3.48,0,0,1-2.7-1.2,5,5,0,0,1-1.08-3.47,8.46,8.46,0,0,1,.85-3.81,6.5,6.5,0,0,1,2.14-2.59,4.62,4.62,0,0,1,2.57-.86,3.48,3.48,0,0,1,3.22,2.06l1.28-6.14H432l-3.29,15.75h-1.79Zm-5.33-3.13a5.92,5.92,0,0,0,.24,1.88,2.43,2.43,0,0,0,.8,1.14,2.1,2.1,0,0,0,1.37.46,3,3,0,0,0,2.39-1.37,7.09,7.09,0,0,0,1.44-4.52,3,3,0,0,0-.7-2.11,2.35,2.35,0,0,0-1.79-.77,2.6,2.6,0,0,0-1.27.32,3.76,3.76,0,0,0-1.14,1.05,6.61,6.61,0,0,0-.95,1.9A6.43,6.43,0,0,0,421.94,632.38Z"/><path class="cls-3" d="M439.51,635.51a4.7,4.7,0,0,1-3.48,1.91,3.49,3.49,0,0,1-2.71-1.2,5,5,0,0,1-1.08-3.47,8.46,8.46,0,0,1,.86-3.81,6.5,6.5,0,0,1,2.14-2.59,4.59,4.59,0,0,1,2.57-.86,3.45,3.45,0,0,1,3.21,2.06l1.29-6.14h1.93L441,637.16h-1.8Zm-5.33-3.13a6.27,6.27,0,0,0,.23,1.88,2.45,2.45,0,0,0,.81,1.14,2.07,2.07,0,0,0,1.36.46,3.06,3.06,0,0,0,2.4-1.37,7.09,7.09,0,0,0,1.44-4.52,3,3,0,0,0-.71-2.11,2.33,2.33,0,0,0-1.78-.77,2.64,2.64,0,0,0-1.28.32,3.63,3.63,0,0,0-1.13,1.05,7.45,7.45,0,0,0-1.34,3.92Z"/><path class="cls-3" d="M444.05,637.16l2.39-11.41h1.71l-.48,2.33a8,8,0,0,1,1.72-2,2.9,2.9,0,0,1,1.73-.64,3.39,3.39,0,0,1,1.43.42l-.8,1.81a1.78,1.78,0,0,0-1.1-.37,3,3,0,0,0-2.1,1.14,8.72,8.72,0,0,0-1.69,4.09l-1,4.58Z"/><path class="cls-3" d="M459.76,633.28l1.89.2a5.78,5.78,0,0,1-1.88,2.67,5.15,5.15,0,0,1-3.5,1.27,4.71,4.71,0,0,1-2.32-.59,3.79,3.79,0,0,1-1.61-1.7,5.66,5.66,0,0,1-.56-2.55,8.07,8.07,0,0,1,.87-3.62,6.18,6.18,0,0,1,2.24-2.61,5.54,5.54,0,0,1,3-.86,4.31,4.31,0,0,1,3.26,1.27,4.76,4.76,0,0,1,1.22,3.46,10.26,10.26,0,0,1-.15,1.72h-8.4c0,.22,0,.42,0,.6a3.59,3.59,0,0,0,.74,2.44,2.28,2.28,0,0,0,1.8.85,3.44,3.44,0,0,0,2-.66A4.18,4.18,0,0,0,459.76,633.28Zm-5.66-2.82h6.41c0-.2,0-.35,0-.43a3.18,3.18,0,0,0-.73-2.24,2.47,2.47,0,0,0-1.88-.78,3.46,3.46,0,0,0-2.27.86A5.11,5.11,0,0,0,454.1,630.46Z"/><path class="cls-3" d="M463.79,633.26l1.95-.12a3.42,3.42,0,0,0,.26,1.43,2,2,0,0,0,.95,1,3.33,3.33,0,0,0,1.61.37,3.1,3.1,0,0,0,1.94-.51,1.53,1.53,0,0,0,.64-1.22,1.48,1.48,0,0,0-.38-.95,6.3,6.3,0,0,0-1.94-1.11,17.24,17.24,0,0,1-2-.93,3.21,3.21,0,0,1-1.09-1,2.6,2.6,0,0,1-.37-1.37,3,3,0,0,1,1.08-2.32,4.37,4.37,0,0,1,3-1,4.81,4.81,0,0,1,3.27,1,3.4,3.4,0,0,1,1.16,2.61l-1.9.13a2.19,2.19,0,0,0-.73-1.63,2.85,2.85,0,0,0-1.94-.6,2.37,2.37,0,0,0-1.57.46,1.32,1.32,0,0,0-.56,1,1.2,1.2,0,0,0,.48.94,7.66,7.66,0,0,0,1.67.86,11.23,11.23,0,0,1,2.81,1.53,2.89,2.89,0,0,1,.93,2.17,3.11,3.11,0,0,1-.52,1.66,3.61,3.61,0,0,1-1.59,1.31,6,6,0,0,1-2.52.49,5.73,5.73,0,0,1-3.37-1A3.47,3.47,0,0,1,463.79,633.26Z"/><path class="cls-3" d="M474.79,633.26l1.95-.12a3.42,3.42,0,0,0,.26,1.43,2,2,0,0,0,.95,1,3.33,3.33,0,0,0,1.61.37,3.1,3.1,0,0,0,1.94-.51,1.53,1.53,0,0,0,.64-1.22,1.48,1.48,0,0,0-.38-.95,6.3,6.3,0,0,0-1.94-1.11,17.24,17.24,0,0,1-2-.93,3.21,3.21,0,0,1-1.09-1,2.6,2.6,0,0,1-.37-1.37,3,3,0,0,1,1.08-2.32,4.37,4.37,0,0,1,3-1,4.81,4.81,0,0,1,3.27,1,3.4,3.4,0,0,1,1.16,2.61l-1.9.13a2.19,2.19,0,0,0-.73-1.63,2.85,2.85,0,0,0-1.94-.6,2.37,2.37,0,0,0-1.57.46,1.32,1.32,0,0,0-.56,1,1.2,1.2,0,0,0,.48.94,7.66,7.66,0,0,0,1.67.86,11.23,11.23,0,0,1,2.81,1.53,2.89,2.89,0,0,1,.93,2.17,3.11,3.11,0,0,1-.52,1.66,3.61,3.61,0,0,1-1.59,1.31,6,6,0,0,1-2.52.49,5.73,5.73,0,0,1-3.37-1A3.47,3.47,0,0,1,474.79,633.26Z"/><path class="cls-3" d="M499.42,635.74a7.67,7.67,0,0,1-1.95,1.27,5,5,0,0,1-2,.41,3.5,3.5,0,0,1-2.54-.93,3.43,3.43,0,0,1-.53-4.07,3.33,3.33,0,0,1,1.15-1.18,5.08,5.08,0,0,1,1.76-.64,18.7,18.7,0,0,1,2.49-.21,9.31,9.31,0,0,0,2.63-.38,5,5,0,0,0,.22-1.33,1.27,1.27,0,0,0-.49-1.06,3.12,3.12,0,0,0-2-.54,3.35,3.35,0,0,0-2,.55,3.06,3.06,0,0,0-1.14,1.54l-2-.17a5.08,5.08,0,0,1,1.9-2.6,5.69,5.69,0,0,1,3.3-.91,5.15,5.15,0,0,1,3.35,1,2.4,2.4,0,0,1,.94,2,10.5,10.5,0,0,1-.26,2.12l-.64,2.83a10.66,10.66,0,0,0-.3,2.2,7.25,7.25,0,0,0,.24,1.55h-2A6.74,6.74,0,0,1,499.42,635.74Zm.72-4.36a5,5,0,0,1-.88.25q-.47.09-1.56.18a12.28,12.28,0,0,0-2.4.38,2,2,0,0,0-1.05.74,1.87,1.87,0,0,0-.36,1.12,1.75,1.75,0,0,0,.57,1.34,2.25,2.25,0,0,0,1.6.52,3.67,3.67,0,0,0,1.86-.51,3.63,3.63,0,0,0,1.41-1.42A8.49,8.49,0,0,0,500.14,631.38Z"/><path class="cls-3" d="M504,637.16l2.38-11.41h1.77l-.42,2a9.2,9.2,0,0,1,2.15-1.71,4.21,4.21,0,0,1,2-.54,3,3,0,0,1,2.17.76,2.63,2.63,0,0,1,.79,2,10.84,10.84,0,0,1-.28,2l-1.45,6.91h-1.94l1.51-7.23a8.38,8.38,0,0,0,.23-1.56,1.19,1.19,0,0,0-.39-.92,1.64,1.64,0,0,0-1.14-.36,3.82,3.82,0,0,0-2.66,1.08,6.91,6.91,0,0,0-1.71,3.68l-1.11,5.31Z"/><path class="cls-3" d="M523.89,635.51a4.7,4.7,0,0,1-3.48,1.91,3.49,3.49,0,0,1-2.71-1.2,5,5,0,0,1-1.08-3.47,8.46,8.46,0,0,1,.86-3.81,6.5,6.5,0,0,1,2.14-2.59,4.59,4.59,0,0,1,2.57-.86,3.45,3.45,0,0,1,3.21,2.06l1.29-6.14h1.93l-3.28,15.75h-1.8Zm-5.33-3.13a6.27,6.27,0,0,0,.23,1.88,2.45,2.45,0,0,0,.81,1.14,2.07,2.07,0,0,0,1.36.46,3.06,3.06,0,0,0,2.4-1.37A7.09,7.09,0,0,0,524.8,630a3,3,0,0,0-.71-2.11,2.33,2.33,0,0,0-1.78-.77,2.64,2.64,0,0,0-1.28.32,3.63,3.63,0,0,0-1.13,1.05,7.45,7.45,0,0,0-1.34,3.92Z"/><path class="cls-3" d="M542.42,633l1.94.21a6.55,6.55,0,0,1-2.08,3.17,4.9,4.9,0,0,1-3.06,1,4,4,0,0,1-3-1.2,4.69,4.69,0,0,1-1.15-3.37,9.47,9.47,0,0,1,.74-3.67,6,6,0,0,1,2.12-2.75,5.51,5.51,0,0,1,3.15-.94,4,4,0,0,1,2.91,1,3.64,3.64,0,0,1,1.08,2.75l-1.91.12a2.33,2.33,0,0,0-.63-1.69,2.22,2.22,0,0,0-1.63-.62,3,3,0,0,0-2,.75,4.9,4.9,0,0,0-1.35,2.25A9.54,9.54,0,0,0,537,633a3.2,3.2,0,0,0,.65,2.19,2,2,0,0,0,1.59.73,2.8,2.8,0,0,0,1.81-.72A4.74,4.74,0,0,0,542.42,633Z"/><path class="cls-3" d="M545.39,637.16l3.29-15.75h1.94l-3.28,15.75Z"/><path class="cls-3" d="M550.35,637.16l2.39-11.41h1.94l-2.38,11.41Zm2.84-13.55.46-2.2h1.94l-.47,2.2Z"/><path class="cls-3" d="M563.7,633.28l1.89.2a5.78,5.78,0,0,1-1.88,2.67,5.12,5.12,0,0,1-3.49,1.27,4.75,4.75,0,0,1-2.33-.59,3.84,3.84,0,0,1-1.61-1.7,5.66,5.66,0,0,1-.55-2.55,8.06,8.06,0,0,1,.86-3.62,6.18,6.18,0,0,1,2.24-2.61,5.55,5.55,0,0,1,3-.86,4.35,4.35,0,0,1,3.26,1.27,4.81,4.81,0,0,1,1.22,3.46,10.26,10.26,0,0,1-.15,1.72h-8.41c0,.22,0,.42,0,.6a3.59,3.59,0,0,0,.74,2.44,2.28,2.28,0,0,0,1.8.85,3.44,3.44,0,0,0,2-.66A4.18,4.18,0,0,0,563.7,633.28Zm-5.65-2.82h6.4c0-.2,0-.35,0-.43a3.13,3.13,0,0,0-.73-2.24,2.46,2.46,0,0,0-1.88-.78,3.46,3.46,0,0,0-2.27.86A5,5,0,0,0,558.05,630.46Z"/><path class="cls-3" d="M567.55,637.16l2.39-11.41h1.76l-.42,2a9.41,9.41,0,0,1,2.15-1.71,4.27,4.27,0,0,1,2-.54,3,3,0,0,1,2.17.76,2.64,2.64,0,0,1,.8,2,11.82,11.82,0,0,1-.28,2l-1.45,6.91h-2l1.52-7.23a8.17,8.17,0,0,0,.22-1.56,1.19,1.19,0,0,0-.39-.92,1.61,1.61,0,0,0-1.13-.36,3.79,3.79,0,0,0-2.66,1.08,6.83,6.83,0,0,0-1.72,3.68l-1.1,5.31Z"/><path class="cls-3" d="M584.33,635.58l-.32,1.59a5.46,5.46,0,0,1-1.35.18,2.8,2.8,0,0,1-1.85-.57,1.44,1.44,0,0,1-.52-1.17,13,13,0,0,1,.28-1.73l1.39-6.62h-1.54l.31-1.51h1.54l.59-2.8,2.22-1.34-.87,4.14h1.92l-.33,1.51h-1.9l-1.32,6.3a13.11,13.11,0,0,0-.25,1.44.69.69,0,0,0,.2.53,1,1,0,0,0,.65.18A4.44,4.44,0,0,0,584.33,635.58Z"/><path class="cls-3" d="M588.59,623.68l.46-2.2h2.21l-.4,1.93a5.14,5.14,0,0,1-1.13,2.53,3,3,0,0,1-1.81.93l.18-.85c.85-.24,1.41-1,1.69-2.34Z"/><path class="cls-3" d="M590.57,633.26l1.95-.12a3.42,3.42,0,0,0,.26,1.43,2,2,0,0,0,1,1,3.33,3.33,0,0,0,1.61.37,3.1,3.1,0,0,0,1.94-.51,1.53,1.53,0,0,0,.64-1.22,1.44,1.44,0,0,0-.39-.95,6.08,6.08,0,0,0-1.93-1.11,18.7,18.7,0,0,1-2-.93,3.18,3.18,0,0,1-1.08-1,2.6,2.6,0,0,1-.37-1.37,3,3,0,0,1,1.08-2.32,4.36,4.36,0,0,1,3-1,4.81,4.81,0,0,1,3.27,1,3.44,3.44,0,0,1,1.16,2.61l-1.9.13a2.19,2.19,0,0,0-.73-1.63,2.87,2.87,0,0,0-1.94-.6,2.37,2.37,0,0,0-1.57.46,1.32,1.32,0,0,0-.56,1,1.2,1.2,0,0,0,.48.94,7.66,7.66,0,0,0,1.67.86,11.23,11.23,0,0,1,2.81,1.53,2.89,2.89,0,0,1,.93,2.17,3.11,3.11,0,0,1-.52,1.66,3.61,3.61,0,0,1-1.59,1.31,6,6,0,0,1-2.52.49,5.73,5.73,0,0,1-3.37-1A3.47,3.47,0,0,1,590.57,633.26Z"/><path class="cls-3" d="M608,637.16l3.3-15.75h2.09l-3.28,15.75Z"/><path class="cls-3" d="M613.83,637.16l3.3-15.75h6.57a6.4,6.4,0,0,1,2.56.39,3.22,3.22,0,0,1,1.42,1.35,4.13,4.13,0,0,1,.56,2.13,5.56,5.56,0,0,1-.4,2,5.18,5.18,0,0,1-1,1.66,4.54,4.54,0,0,1-1.23,1,5,5,0,0,1-1.33.49,13.19,13.19,0,0,1-3.06.36h-3.94l-1.33,6.39Zm3.81-8.17h3.47a7.52,7.52,0,0,0,3-.44,3.47,3.47,0,0,0,1.51-1.33,3.43,3.43,0,0,0,.57-1.89,2.4,2.4,0,0,0-.3-1.26,1.83,1.83,0,0,0-.85-.72,6.35,6.35,0,0,0-2.1-.23h-4Z"/><path class="cls-3" d="M641.28,635.74a7.5,7.5,0,0,1-1.95,1.27,5,5,0,0,1-2,.41,3.5,3.5,0,0,1-2.54-.93,3.14,3.14,0,0,1-1-2.38,3.25,3.25,0,0,1,.44-1.69,3.33,3.33,0,0,1,1.15-1.18,5.08,5.08,0,0,1,1.76-.64,18.7,18.7,0,0,1,2.49-.21,9.24,9.24,0,0,0,2.63-.38,5,5,0,0,0,.22-1.33,1.27,1.27,0,0,0-.49-1.06,3.12,3.12,0,0,0-2-.54,3.37,3.37,0,0,0-2,.55,3.06,3.06,0,0,0-1.14,1.54l-2-.17a5.09,5.09,0,0,1,1.91-2.6,5.65,5.65,0,0,1,3.29-.91,5.15,5.15,0,0,1,3.35,1,2.41,2.41,0,0,1,1,2,9.9,9.9,0,0,1-.27,2.12l-.64,2.83a10.66,10.66,0,0,0-.3,2.2,7.25,7.25,0,0,0,.24,1.55h-2A6.74,6.74,0,0,1,641.28,635.74Zm.72-4.36a5,5,0,0,1-.88.25q-.47.09-1.56.18a12.42,12.42,0,0,0-2.4.38,2.06,2.06,0,0,0-1,.74,1.86,1.86,0,0,0-.35,1.12,1.74,1.74,0,0,0,.56,1.34,2.26,2.26,0,0,0,1.61.52,3.81,3.81,0,0,0,3.26-1.93A8.49,8.49,0,0,0,642,631.38Z"/><path class="cls-3" d="M653.51,635.51a4.7,4.7,0,0,1-3.48,1.91,3.48,3.48,0,0,1-2.7-1.2,5,5,0,0,1-1.08-3.47,8.59,8.59,0,0,1,.85-3.81,6.59,6.59,0,0,1,2.14-2.59,4.64,4.64,0,0,1,2.57-.86,3.48,3.48,0,0,1,3.22,2.06l1.29-6.14h1.93L655,637.16h-1.79Zm-5.33-3.13a5.92,5.92,0,0,0,.24,1.88,2.45,2.45,0,0,0,.81,1.14,2.07,2.07,0,0,0,1.36.46,3.07,3.07,0,0,0,2.4-1.37,7.09,7.09,0,0,0,1.44-4.52,3,3,0,0,0-.71-2.11,2.35,2.35,0,0,0-1.79-.77,2.6,2.6,0,0,0-1.27.32,3.76,3.76,0,0,0-1.14,1.05,6.61,6.61,0,0,0-.95,1.9A6.43,6.43,0,0,0,648.18,632.38Z"/><path class="cls-3" d="M665.75,635.51a4.7,4.7,0,0,1-3.48,1.91,3.47,3.47,0,0,1-2.7-1.2,5,5,0,0,1-1.08-3.47,8.46,8.46,0,0,1,.85-3.81,6.5,6.5,0,0,1,2.14-2.59,4.59,4.59,0,0,1,2.57-.86,3.45,3.45,0,0,1,3.21,2.06l1.29-6.14h1.93l-3.28,15.75h-1.8Zm-5.33-3.13a5.92,5.92,0,0,0,.24,1.88,2.36,2.36,0,0,0,.8,1.14,2.1,2.1,0,0,0,1.37.46,3,3,0,0,0,2.39-1.37,7.09,7.09,0,0,0,1.44-4.52,3,3,0,0,0-.71-2.11,2.33,2.33,0,0,0-1.78-.77,2.58,2.58,0,0,0-1.27.32,3.55,3.55,0,0,0-1.14,1.05,6.36,6.36,0,0,0-1,1.9A6.43,6.43,0,0,0,660.42,632.38Z"/><path class="cls-3" d="M670.29,637.16l2.39-11.41h1.71l-.48,2.33a7.78,7.78,0,0,1,1.73-2,2.85,2.85,0,0,1,1.72-.64,3.39,3.39,0,0,1,1.43.42l-.8,1.81a1.78,1.78,0,0,0-1.1-.37,3,3,0,0,0-2.1,1.14,8.63,8.63,0,0,0-1.68,4.09l-1,4.58Z"/><path class="cls-3" d="M686,633.28l1.89.2a5.78,5.78,0,0,1-1.88,2.67,5.12,5.12,0,0,1-3.49,1.27,4.75,4.75,0,0,1-2.33-.59,3.79,3.79,0,0,1-1.61-1.7,5.66,5.66,0,0,1-.55-2.55,8.06,8.06,0,0,1,.86-3.62,6.18,6.18,0,0,1,2.24-2.61,5.55,5.55,0,0,1,3-.86,4.35,4.35,0,0,1,3.26,1.27,4.81,4.81,0,0,1,1.22,3.46,10.26,10.26,0,0,1-.15,1.72H680c0,.22,0,.42,0,.6a3.59,3.59,0,0,0,.74,2.44,2.28,2.28,0,0,0,1.8.85,3.44,3.44,0,0,0,2-.66A4.18,4.18,0,0,0,686,633.28Zm-5.65-2.82h6.4c0-.2,0-.35,0-.43a3.13,3.13,0,0,0-.73-2.24,2.46,2.46,0,0,0-1.88-.78,3.46,3.46,0,0,0-2.27.86A5,5,0,0,0,680.35,630.46Z"/><path class="cls-3" d="M690,633.26l1.94-.12a3.58,3.58,0,0,0,.26,1.43,2,2,0,0,0,1,1,3.34,3.34,0,0,0,1.62.37,3.09,3.09,0,0,0,1.93-.51,1.53,1.53,0,0,0,.64-1.22,1.48,1.48,0,0,0-.38-.95,6.17,6.17,0,0,0-1.94-1.11,17.24,17.24,0,0,1-2-.93,3.21,3.21,0,0,1-1.09-1,2.59,2.59,0,0,1-.36-1.37,3,3,0,0,1,1.07-2.32,4.37,4.37,0,0,1,3-1,4.81,4.81,0,0,1,3.27,1,3.4,3.4,0,0,1,1.16,2.61l-1.9.13a2.16,2.16,0,0,0-.73-1.63,2.85,2.85,0,0,0-1.94-.6,2.39,2.39,0,0,0-1.57.46,1.32,1.32,0,0,0-.56,1,1.18,1.18,0,0,0,.49.94,7.25,7.25,0,0,0,1.66.86,11.23,11.23,0,0,1,2.81,1.53,2.89,2.89,0,0,1,.93,2.17,3.11,3.11,0,0,1-.52,1.66,3.61,3.61,0,0,1-1.59,1.31,5.93,5.93,0,0,1-2.52.49,5.68,5.68,0,0,1-3.36-1A3.44,3.44,0,0,1,690,633.26Z"/><path class="cls-3" d="M701,633.26l1.94-.12a3.58,3.58,0,0,0,.26,1.43,2,2,0,0,0,1,1,3.34,3.34,0,0,0,1.62.37,3.09,3.09,0,0,0,1.93-.51,1.53,1.53,0,0,0,.64-1.22,1.48,1.48,0,0,0-.38-.95,6.17,6.17,0,0,0-1.94-1.11,17.24,17.24,0,0,1-2-.93,3.21,3.21,0,0,1-1.09-1,2.59,2.59,0,0,1-.36-1.37,3,3,0,0,1,1.07-2.32,4.37,4.37,0,0,1,3-1,4.81,4.81,0,0,1,3.27,1,3.4,3.4,0,0,1,1.16,2.61l-1.9.13a2.16,2.16,0,0,0-.73-1.63,2.85,2.85,0,0,0-1.94-.6,2.39,2.39,0,0,0-1.57.46,1.32,1.32,0,0,0-.56,1,1.18,1.18,0,0,0,.49.94,7.25,7.25,0,0,0,1.66.86,11.23,11.23,0,0,1,2.81,1.53,2.89,2.89,0,0,1,.93,2.17,3.11,3.11,0,0,1-.52,1.66,3.61,3.61,0,0,1-1.59,1.31,5.93,5.93,0,0,1-2.52.49,5.68,5.68,0,0,1-3.36-1A3.44,3.44,0,0,1,701,633.26Z"/><path class="cls-3" d="M245.26,663.56V649.67h-5.19v-1.86h12.48v1.86h-5.21v13.89Z"/><path class="cls-3" d="M251.28,657.86a5.9,5.9,0,0,1,1.76-4.7,5.34,5.34,0,0,1,3.59-1.27,5.13,5.13,0,0,1,3.85,1.55,5.85,5.85,0,0,1,1.49,4.25,7.57,7.57,0,0,1-.66,3.47,4.71,4.71,0,0,1-1.92,2,5.55,5.55,0,0,1-2.76.7,5.09,5.09,0,0,1-3.87-1.54A6.1,6.1,0,0,1,251.28,657.86Zm2,0a4.85,4.85,0,0,0,1,3.28,3.18,3.18,0,0,0,4.8,0,5,5,0,0,0,1-3.34,4.69,4.69,0,0,0-1-3.2,3.17,3.17,0,0,0-4.79,0A4.81,4.81,0,0,0,253.27,657.86Z"/><path class="cls-3" d="M264.77,654.35v-2.2H267v2.2Zm0,9.21v-2.2H267v2.2Z"/><path class="cls-3" d="M300.19,663.56l3.29-15.75h1.94l-1.17,5.63a7.41,7.41,0,0,1,1.68-1.2,3.71,3.71,0,0,1,1.57-.35,3.45,3.45,0,0,1,2.67,1.2,5,5,0,0,1,1.06,3.47,8.43,8.43,0,0,1-.43,2.77,7.57,7.57,0,0,1-1.06,2.11,6.57,6.57,0,0,1-1.31,1.36,5.18,5.18,0,0,1-1.39.77,4.22,4.22,0,0,1-1.36.25,3.41,3.41,0,0,1-2-.6,3.85,3.85,0,0,1-1.34-1.82l-.45,2.16Zm2.88-4.68v.36a3.17,3.17,0,0,0,.7,2.23,2.27,2.27,0,0,0,1.74.76,2.84,2.84,0,0,0,1.87-.72,5,5,0,0,0,1.4-2.23,8.15,8.15,0,0,0,.55-2.79,3.29,3.29,0,0,0-.69-2.23,2.18,2.18,0,0,0-1.71-.8,2.8,2.8,0,0,0-1.94.81,6,6,0,0,0-1.47,2.5A6.73,6.73,0,0,0,303.07,658.88Z"/><path class="cls-3" d="M320.12,662.14a7.83,7.83,0,0,1-1.95,1.28,5.12,5.12,0,0,1-2,.4,3.51,3.51,0,0,1-2.55-.93,3.14,3.14,0,0,1-1-2.38,3.25,3.25,0,0,1,.44-1.69,3.33,3.33,0,0,1,1.15-1.18A5.08,5.08,0,0,1,316,657a18.7,18.7,0,0,1,2.49-.21,9.24,9.24,0,0,0,2.63-.38,5,5,0,0,0,.22-1.33,1.27,1.27,0,0,0-.49-1.06,3.12,3.12,0,0,0-2-.54,3.45,3.45,0,0,0-2,.55,3,3,0,0,0-1.13,1.54l-2-.17a5.09,5.09,0,0,1,1.91-2.6,5.58,5.58,0,0,1,3.29-.91,5.15,5.15,0,0,1,3.35,1,2.41,2.41,0,0,1,.95,2A9.74,9.74,0,0,1,323,657l-.64,2.84a10.66,10.66,0,0,0-.3,2.2,7.25,7.25,0,0,0,.24,1.55h-2A7.46,7.46,0,0,1,320.12,662.14Zm.72-4.36a5,5,0,0,1-.88.25q-.46.09-1.56.18a12.42,12.42,0,0,0-2.4.38,2.06,2.06,0,0,0-1.05.74,1.85,1.85,0,0,0-.35,1.11,1.74,1.74,0,0,0,.56,1.35,2.28,2.28,0,0,0,1.61.52,3.81,3.81,0,0,0,3.26-1.93A8.23,8.23,0,0,0,320.84,657.78Z"/><path class="cls-3" d="M332.54,659.4l1.94.21a6.55,6.55,0,0,1-2.08,3.17,4.91,4.91,0,0,1-3.07,1,4,4,0,0,1-3-1.21,4.64,4.64,0,0,1-1.15-3.36,9.47,9.47,0,0,1,.74-3.67,6,6,0,0,1,2.12-2.75,5.51,5.51,0,0,1,3.15-.94,4,4,0,0,1,2.91,1,3.63,3.63,0,0,1,1.08,2.74l-1.91.13a2.31,2.31,0,0,0-.63-1.69,2.22,2.22,0,0,0-1.63-.62,3,3,0,0,0-2,.75,4.9,4.9,0,0,0-1.35,2.25,9.54,9.54,0,0,0-.49,2.9,3.2,3.2,0,0,0,.65,2.19,2,2,0,0,0,1.59.73,2.8,2.8,0,0,0,1.81-.72A4.79,4.79,0,0,0,332.54,659.4Z"/><path class="cls-3" d="M335.68,663.56l3.3-15.75h1.93l-2,9.77,5.68-5.43h2.56l-4.86,4.26,2.94,7.15h-2.13l-2.27-5.85-2.37,2-.79,3.81Z"/><path class="cls-3" d="M355,659.68l1.89.2a5.75,5.75,0,0,1-1.87,2.67,5.17,5.17,0,0,1-3.5,1.27,4.77,4.77,0,0,1-2.33-.59,3.89,3.89,0,0,1-1.61-1.7,5.63,5.63,0,0,1-.55-2.55,8.07,8.07,0,0,1,.87-3.62,6.17,6.17,0,0,1,2.23-2.61,5.55,5.55,0,0,1,3-.86,4.33,4.33,0,0,1,3.26,1.27,4.81,4.81,0,0,1,1.22,3.46,10.26,10.26,0,0,1-.15,1.72h-8.4a4.41,4.41,0,0,0,0,.6,3.59,3.59,0,0,0,.73,2.44,2.28,2.28,0,0,0,1.8.85,3.47,3.47,0,0,0,2-.66A4.23,4.23,0,0,0,355,659.68Zm-5.65-2.82h6.4c0-.2,0-.35,0-.43a3.13,3.13,0,0,0-.73-2.24,2.44,2.44,0,0,0-1.88-.78,3.46,3.46,0,0,0-2.27.86A5.17,5.17,0,0,0,349.39,656.86Z"/><path class="cls-3" d="M358.9,663.56l2.38-11.41H363l-.42,2a9.63,9.63,0,0,1,2.15-1.71,4.27,4.27,0,0,1,2-.54,3,3,0,0,1,2.18.76,2.62,2.62,0,0,1,.79,2,10.81,10.81,0,0,1-.28,2l-1.45,6.91H366.1l1.52-7.23a8.38,8.38,0,0,0,.23-1.56,1.19,1.19,0,0,0-.4-.92,1.61,1.61,0,0,0-1.13-.36,3.8,3.8,0,0,0-2.66,1.08,6.8,6.8,0,0,0-1.71,3.68l-1.11,5.31Z"/><path class="cls-3" d="M378.82,661.91a4.7,4.7,0,0,1-3.48,1.91,3.48,3.48,0,0,1-2.7-1.2,5,5,0,0,1-1.08-3.48,8.45,8.45,0,0,1,.86-3.8,6.57,6.57,0,0,1,2.13-2.59,4.65,4.65,0,0,1,2.58-.86,3.47,3.47,0,0,1,3.21,2.06l1.29-6.14h1.93l-3.29,15.75h-1.79Zm-5.32-3.13a6,6,0,0,0,.23,1.88,2.45,2.45,0,0,0,.81,1.14,2.07,2.07,0,0,0,1.36.46,3.06,3.06,0,0,0,2.4-1.38,7,7,0,0,0,1.44-4.51,3,3,0,0,0-.71-2.11,2.34,2.34,0,0,0-1.79-.77,2.6,2.6,0,0,0-1.27.32,3.76,3.76,0,0,0-1.14,1.05,6.87,6.87,0,0,0-.95,1.9A6.38,6.38,0,0,0,373.5,658.78Z"/><path class="cls-3" d="M386.05,650.08l.47-2.2h2.21l-.4,1.93a5.14,5.14,0,0,1-1.13,2.53,3,3,0,0,1-1.81.93l.18-.85c.84-.24,1.41-1,1.69-2.34Z"/><path class="cls-3" d="M388,659.66l1.94-.12a3.58,3.58,0,0,0,.26,1.43,2,2,0,0,0,.95,1,3.34,3.34,0,0,0,1.62.37,3.07,3.07,0,0,0,1.93-.51,1.54,1.54,0,0,0,.65-1.22,1.44,1.44,0,0,0-.39-1,6,6,0,0,0-1.94-1.11,18.19,18.19,0,0,1-2-.93,3.18,3.18,0,0,1-1.08-1,2.51,2.51,0,0,1-.37-1.37,3,3,0,0,1,1.08-2.32,4.33,4.33,0,0,1,3-1,4.77,4.77,0,0,1,3.27,1,3.44,3.44,0,0,1,1.17,2.61l-1.9.13a2.17,2.17,0,0,0-.73-1.63,2.88,2.88,0,0,0-1.95-.6,2.36,2.36,0,0,0-1.56.46,1.29,1.29,0,0,0-.56,1,1.2,1.2,0,0,0,.48.94,7.5,7.5,0,0,0,1.66.86,11.57,11.57,0,0,1,2.82,1.53,2.88,2.88,0,0,1,.92,2.17,3,3,0,0,1-.52,1.66,3.56,3.56,0,0,1-1.59,1.31,6.09,6.09,0,0,1-2.52.49,5.7,5.7,0,0,1-3.36-1A3.47,3.47,0,0,1,388,659.66Z"/><path class="cls-3" d="M405.21,663.56l3.28-15.75h2.59L412.67,658a36.34,36.34,0,0,1,.41,3.85,43.1,43.1,0,0,1,2.19-4.3l5.52-9.76h2.64l-3.29,15.75h-2.08l1.65-7.66q.57-2.65,1.63-5.95c-.45,1-1,2.13-1.67,3.31l-5.87,10.3h-2l-1.58-10.1a32,32,0,0,1-.31-3.23c-.18,1.38-.36,2.48-.53,3.29l-2.09,10Z"/><path class="cls-3" d="M422.13,663.56l8.92-15.75h2.48l2.6,15.75h-2l-.76-4.53H427l-2.52,4.53Zm5.73-6.16h5.21l-.61-3.95c-.24-1.57-.38-2.87-.44-3.92a28.71,28.71,0,0,1-1.57,3.21Z"/><path class="cls-3" d="M450.51,658l2.08.29a8.57,8.57,0,0,1-2.88,4.12,7,7,0,0,1-4.24,1.4,6,6,0,0,1-4.55-1.75,7,7,0,0,1-1.68-5,10,10,0,0,1,2.55-7,7.4,7.4,0,0,1,5.67-2.48,6,6,0,0,1,4.05,1.35,5.31,5.31,0,0,1,1.8,3.61l-2,.18a4.19,4.19,0,0,0-1.28-2.55,3.65,3.65,0,0,0-2.51-.85,5.46,5.46,0,0,0-4.67,2.57,9,9,0,0,0-1.55,5.25,5.27,5.27,0,0,0,1.19,3.71,4.07,4.07,0,0,0,3.11,1.28,4.58,4.58,0,0,0,2.95-1.07A6.06,6.06,0,0,0,450.51,658Z"/><path class="cls-3" d="M467.66,662.14a7.79,7.79,0,0,1-1.94,1.28,5.17,5.17,0,0,1-2,.4,3.54,3.54,0,0,1-2.55-.93,3.16,3.16,0,0,1-1-2.38,3.24,3.24,0,0,1,.43-1.69,3.36,3.36,0,0,1,1.16-1.18,5,5,0,0,1,1.76-.64,18.33,18.33,0,0,1,2.48-.21,9.18,9.18,0,0,0,2.63-.38,5.07,5.07,0,0,0,.23-1.33,1.28,1.28,0,0,0-.5-1.06,3.1,3.1,0,0,0-2-.54,3.46,3.46,0,0,0-2,.55,3,3,0,0,0-1.13,1.54l-2-.17a5.15,5.15,0,0,1,1.91-2.6,5.6,5.6,0,0,1,3.29-.91,5.15,5.15,0,0,1,3.35,1,2.41,2.41,0,0,1,.95,2,9.74,9.74,0,0,1-.27,2.11l-.63,2.84a10.66,10.66,0,0,0-.3,2.2,7.78,7.78,0,0,0,.23,1.55h-2A6.67,6.67,0,0,1,467.66,662.14Zm.72-4.36a4.63,4.63,0,0,1-.87.25c-.32.06-.84.12-1.57.18a12.14,12.14,0,0,0-2.39.38,2,2,0,0,0-1.06.74,1.92,1.92,0,0,0-.35,1.11,1.78,1.78,0,0,0,.56,1.35,2.29,2.29,0,0,0,1.61.52,3.73,3.73,0,0,0,1.86-.51,3.77,3.77,0,0,0,1.41-1.42A8.25,8.25,0,0,0,468.38,657.78Z"/><path class="cls-3" d="M472.21,663.56l2.38-11.41h1.76l-.42,2a9.63,9.63,0,0,1,2.15-1.71,4.27,4.27,0,0,1,2-.54,3,3,0,0,1,2.18.76,2.66,2.66,0,0,1,.79,2,11.77,11.77,0,0,1-.28,2l-1.45,6.91h-1.95l1.52-7.23a8.17,8.17,0,0,0,.22-1.56,1.19,1.19,0,0,0-.39-.92,1.61,1.61,0,0,0-1.13-.36,3.8,3.8,0,0,0-2.66,1.08,6.8,6.8,0,0,0-1.71,3.68l-1.11,5.31Z"/><path class="cls-3" d="M492.13,661.91a4.7,4.7,0,0,1-3.48,1.91,3.48,3.48,0,0,1-2.7-1.2,5,5,0,0,1-1.08-3.48,8.58,8.58,0,0,1,.85-3.8,6.59,6.59,0,0,1,2.14-2.59,4.65,4.65,0,0,1,2.58-.86,3.47,3.47,0,0,1,3.21,2.06l1.29-6.14h1.93l-3.29,15.75h-1.79Zm-5.33-3.13a5.92,5.92,0,0,0,.24,1.88,2.45,2.45,0,0,0,.81,1.14,2.07,2.07,0,0,0,1.36.46,3.06,3.06,0,0,0,2.4-1.38,7,7,0,0,0,1.44-4.51,3,3,0,0,0-.71-2.11,2.35,2.35,0,0,0-1.79-.77,2.6,2.6,0,0,0-1.27.32,3.76,3.76,0,0,0-1.14,1.05,6.87,6.87,0,0,0-.95,1.9A6.43,6.43,0,0,0,486.8,658.78Z"/><path class="cls-3" d="M503.31,663.56l3.3-15.75h2.1l-3.29,15.75Z"/><path class="cls-3" d="M509.12,663.56l3.29-15.75H519a6.44,6.44,0,0,1,2.56.39,3.2,3.2,0,0,1,1.41,1.35,4.13,4.13,0,0,1,.56,2.13,5.35,5.35,0,0,1-.4,2,5.28,5.28,0,0,1-1,1.66,4.86,4.86,0,0,1-1.23,1,5.18,5.18,0,0,1-1.33.49,13.19,13.19,0,0,1-3.06.36h-4l-1.33,6.39Zm3.81-8.18h3.47a7.5,7.5,0,0,0,3-.43,3.49,3.49,0,0,0,1.52-1.33,3.43,3.43,0,0,0,.57-1.89,2.4,2.4,0,0,0-.3-1.26,1.82,1.82,0,0,0-.85-.72,6.46,6.46,0,0,0-2.11-.23h-4Z"/><path class="cls-3" d="M536.56,662.14a7.79,7.79,0,0,1-1.94,1.28,5.17,5.17,0,0,1-2,.4,3.54,3.54,0,0,1-2.55-.93,3.16,3.16,0,0,1-1-2.38,3.24,3.24,0,0,1,.43-1.69,3.36,3.36,0,0,1,1.16-1.18,5,5,0,0,1,1.76-.64,18.33,18.33,0,0,1,2.48-.21,9.18,9.18,0,0,0,2.63-.38,5.07,5.07,0,0,0,.23-1.33,1.28,1.28,0,0,0-.5-1.06,3.1,3.1,0,0,0-2-.54,3.46,3.46,0,0,0-2,.55,3,3,0,0,0-1.13,1.54l-2-.17a5.15,5.15,0,0,1,1.91-2.6,5.6,5.6,0,0,1,3.29-.91,5.15,5.15,0,0,1,3.35,1,2.41,2.41,0,0,1,1,2,9.74,9.74,0,0,1-.27,2.11l-.63,2.84a10.66,10.66,0,0,0-.3,2.2,7.78,7.78,0,0,0,.23,1.55h-2A6.67,6.67,0,0,1,536.56,662.14Zm.72-4.36a4.63,4.63,0,0,1-.87.25c-.31.06-.84.12-1.57.18a12.14,12.14,0,0,0-2.39.38,2,2,0,0,0-1.06.74,1.92,1.92,0,0,0-.35,1.11,1.78,1.78,0,0,0,.56,1.35,2.29,2.29,0,0,0,1.61.52,3.73,3.73,0,0,0,1.86-.51,3.77,3.77,0,0,0,1.41-1.42A8.25,8.25,0,0,0,537.28,657.78Z"/><path class="cls-3" d="M548.8,661.91a4.7,4.7,0,0,1-3.48,1.91,3.47,3.47,0,0,1-2.7-1.2,5,5,0,0,1-1.08-3.48,8.44,8.44,0,0,1,.85-3.8,6.5,6.5,0,0,1,2.14-2.59,4.59,4.59,0,0,1,2.57-.86,3.45,3.45,0,0,1,3.21,2.06l1.29-6.14h1.93l-3.28,15.75h-1.8Zm-5.33-3.13a5.92,5.92,0,0,0,.24,1.88,2.36,2.36,0,0,0,.8,1.14,2.1,2.1,0,0,0,1.37.46,3,3,0,0,0,2.39-1.38,7,7,0,0,0,1.44-4.51,3,3,0,0,0-.71-2.11,2.33,2.33,0,0,0-1.78-.77,2.58,2.58,0,0,0-1.27.32,3.55,3.55,0,0,0-1.14,1.05,6.36,6.36,0,0,0-.95,1.9A6.43,6.43,0,0,0,543.47,658.78Z"/><path class="cls-3" d="M561,661.91a4.7,4.7,0,0,1-3.48,1.91,3.48,3.48,0,0,1-2.7-1.2,5,5,0,0,1-1.08-3.48,8.58,8.58,0,0,1,.85-3.8,6.59,6.59,0,0,1,2.14-2.59,4.65,4.65,0,0,1,2.58-.86,3.47,3.47,0,0,1,3.21,2.06l1.29-6.14h1.93l-3.29,15.75h-1.79Zm-5.33-3.13a5.92,5.92,0,0,0,.24,1.88,2.45,2.45,0,0,0,.81,1.14,2.07,2.07,0,0,0,1.36.46,3.06,3.06,0,0,0,2.4-1.38,7,7,0,0,0,1.44-4.51,3,3,0,0,0-.71-2.11,2.35,2.35,0,0,0-1.79-.77,2.6,2.6,0,0,0-1.27.32,3.76,3.76,0,0,0-1.14,1.05,6.87,6.87,0,0,0-.95,1.9A6.43,6.43,0,0,0,555.7,658.78Z"/><path class="cls-3" d="M565.58,663.56,568,652.15h1.72l-.48,2.33a7.76,7.76,0,0,1,1.72-2,2.87,2.87,0,0,1,1.72-.64,3.35,3.35,0,0,1,1.43.42l-.79,1.81a1.83,1.83,0,0,0-1.11-.37,3,3,0,0,0-2.09,1.14,8.62,8.62,0,0,0-1.69,4.09l-1,4.58Z"/><path class="cls-3" d="M581.28,659.68l1.89.2a5.68,5.68,0,0,1-1.87,2.67,5.17,5.17,0,0,1-3.5,1.27,4.71,4.71,0,0,1-2.32-.59,3.86,3.86,0,0,1-1.62-1.7,5.76,5.76,0,0,1-.55-2.55,8.07,8.07,0,0,1,.87-3.62,6.12,6.12,0,0,1,2.24-2.61,5.49,5.49,0,0,1,3-.86,4.33,4.33,0,0,1,3.26,1.27,4.81,4.81,0,0,1,1.22,3.46,10.26,10.26,0,0,1-.15,1.72h-8.4a4.41,4.41,0,0,0,0,.6,3.59,3.59,0,0,0,.73,2.44,2.28,2.28,0,0,0,1.8.85,3.47,3.47,0,0,0,2-.66A4.23,4.23,0,0,0,581.28,659.68Zm-5.65-2.82H582c0-.2,0-.35,0-.43a3.13,3.13,0,0,0-.73-2.24,2.44,2.44,0,0,0-1.88-.78,3.48,3.48,0,0,0-2.27.86A5.17,5.17,0,0,0,575.63,656.86Z"/><path class="cls-3" d="M585.32,659.66l1.95-.12a3.59,3.59,0,0,0,.25,1.43,2,2,0,0,0,1,1,3.37,3.37,0,0,0,1.62.37,3.07,3.07,0,0,0,1.93-.51,1.54,1.54,0,0,0,.65-1.22,1.44,1.44,0,0,0-.39-1,6,6,0,0,0-1.94-1.11,18.19,18.19,0,0,1-2-.93,3.18,3.18,0,0,1-1.08-1,2.51,2.51,0,0,1-.37-1.37,3,3,0,0,1,1.08-2.32,4.33,4.33,0,0,1,3-1,4.77,4.77,0,0,1,3.27,1,3.44,3.44,0,0,1,1.17,2.61l-1.9.13a2.17,2.17,0,0,0-.73-1.63,2.88,2.88,0,0,0-1.95-.6,2.36,2.36,0,0,0-1.56.46,1.29,1.29,0,0,0-.56,1,1.2,1.2,0,0,0,.48.94,7.66,7.66,0,0,0,1.67.86,11.64,11.64,0,0,1,2.81,1.53,2.88,2.88,0,0,1,.92,2.17,3,3,0,0,1-.52,1.66,3.51,3.51,0,0,1-1.59,1.31,6.09,6.09,0,0,1-2.52.49,5.72,5.72,0,0,1-3.36-1A3.47,3.47,0,0,1,585.32,659.66Z"/><path class="cls-3" d="M596.32,659.66l1.95-.12a3.59,3.59,0,0,0,.25,1.43,2,2,0,0,0,1,1,3.37,3.37,0,0,0,1.62.37,3.07,3.07,0,0,0,1.93-.51,1.54,1.54,0,0,0,.65-1.22,1.44,1.44,0,0,0-.39-1,6,6,0,0,0-1.94-1.11,18.19,18.19,0,0,1-2-.93,3.18,3.18,0,0,1-1.08-1,2.51,2.51,0,0,1-.37-1.37,3,3,0,0,1,1.08-2.32,4.33,4.33,0,0,1,3-1,4.77,4.77,0,0,1,3.27,1,3.44,3.44,0,0,1,1.17,2.61l-1.9.13a2.17,2.17,0,0,0-.73-1.63,2.88,2.88,0,0,0-1.95-.6,2.36,2.36,0,0,0-1.56.46,1.29,1.29,0,0,0-.56,1,1.2,1.2,0,0,0,.48.94,7.66,7.66,0,0,0,1.67.86,11.64,11.64,0,0,1,2.81,1.53,2.88,2.88,0,0,1,.92,2.17,3,3,0,0,1-.52,1.66,3.51,3.51,0,0,1-1.59,1.31,6.09,6.09,0,0,1-2.52.49,5.72,5.72,0,0,1-3.36-1A3.47,3.47,0,0,1,596.32,659.66Z"/></svg>